%TF.GenerationSoftware,KiCad,Pcbnew,7.0.9*%
%TF.CreationDate,2024-01-07T05:54:30-05:00*%
%TF.ProjectId,Flipper-ICSP,466c6970-7065-4722-9d49-4353502e6b69,A*%
%TF.SameCoordinates,Original*%
%TF.FileFunction,Copper,L1,Top*%
%TF.FilePolarity,Positive*%
%FSLAX46Y46*%
G04 Gerber Fmt 4.6, Leading zero omitted, Abs format (unit mm)*
G04 Created by KiCad (PCBNEW 7.0.9) date 2024-01-07 05:54:30*
%MOMM*%
%LPD*%
G01*
G04 APERTURE LIST*
G04 Aperture macros list*
%AMRoundRect*
0 Rectangle with rounded corners*
0 $1 Rounding radius*
0 $2 $3 $4 $5 $6 $7 $8 $9 X,Y pos of 4 corners*
0 Add a 4 corners polygon primitive as box body*
4,1,4,$2,$3,$4,$5,$6,$7,$8,$9,$2,$3,0*
0 Add four circle primitives for the rounded corners*
1,1,$1+$1,$2,$3*
1,1,$1+$1,$4,$5*
1,1,$1+$1,$6,$7*
1,1,$1+$1,$8,$9*
0 Add four rect primitives between the rounded corners*
20,1,$1+$1,$2,$3,$4,$5,0*
20,1,$1+$1,$4,$5,$6,$7,0*
20,1,$1+$1,$6,$7,$8,$9,0*
20,1,$1+$1,$8,$9,$2,$3,0*%
G04 Aperture macros list end*
%TA.AperFunction,SMDPad,CuDef*%
%ADD10R,1.500000X1.500000*%
%TD*%
%TA.AperFunction,SMDPad,CuDef*%
%ADD11R,1.200000X1.950000*%
%TD*%
%TA.AperFunction,ComponentPad*%
%ADD12R,1.725000X1.725000*%
%TD*%
%TA.AperFunction,ComponentPad*%
%ADD13C,1.725000*%
%TD*%
%TA.AperFunction,SMDPad,CuDef*%
%ADD14RoundRect,0.250000X0.400000X0.625000X-0.400000X0.625000X-0.400000X-0.625000X0.400000X-0.625000X0*%
%TD*%
%TA.AperFunction,ComponentPad*%
%ADD15C,1.524000*%
%TD*%
%TA.AperFunction,ViaPad*%
%ADD16C,0.800000*%
%TD*%
%TA.AperFunction,Conductor*%
%ADD17C,0.250000*%
%TD*%
G04 APERTURE END LIST*
D10*
%TO.P,LED1,1*%
%TO.N,RESET*%
X122555000Y-69569332D03*
%TO.P,LED1,2*%
%TO.N,Net-(LED1-Pad2)*%
X122555000Y-66569332D03*
%TD*%
D11*
%TO.P,S1,1,NC_1*%
%TO.N,5v*%
X113515722Y-63132260D03*
%TO.P,S1,2,COM_1*%
%TO.N,VCC*%
X116015722Y-63132260D03*
%TO.P,S1,3,NC_2*%
%TO.N,3v3*%
X118515722Y-63132260D03*
%TO.P,S1,4,NC_3*%
%TO.N,5v*%
X113515722Y-68782260D03*
%TO.P,S1,5,COM_2*%
%TO.N,VCC*%
X116015722Y-68782260D03*
%TO.P,S1,6,NC_4*%
%TO.N,3v3*%
X118515722Y-68782260D03*
%TD*%
D12*
%TO.P,J2,1,1*%
%TO.N,MOSI*%
X86995000Y-63030000D03*
D13*
%TO.P,J2,2,2*%
%TO.N,VCC*%
X86995000Y-65570000D03*
%TO.P,J2,3,3*%
%TO.N,unconnected-(J2-Pad3)*%
X84455000Y-63030000D03*
%TO.P,J2,4,4*%
%TO.N,GND*%
X84455000Y-65570000D03*
%TO.P,J2,5,5*%
%TO.N,RESET*%
X81915000Y-63030000D03*
%TO.P,J2,6,6*%
%TO.N,GND*%
X81915000Y-65570000D03*
%TO.P,J2,7,7*%
%TO.N,SCK*%
X79375000Y-63030000D03*
%TO.P,J2,8,8*%
%TO.N,GND*%
X79375000Y-65570000D03*
%TO.P,J2,9,9*%
%TO.N,MISO*%
X76835000Y-63030000D03*
%TO.P,J2,10,10*%
%TO.N,GND*%
X76835000Y-65570000D03*
%TD*%
D10*
%TO.P,LED4,1*%
%TO.N,MISO*%
X130175000Y-69569332D03*
%TO.P,LED4,2*%
%TO.N,Net-(LED1-Pad2)*%
X130175000Y-66569332D03*
%TD*%
%TO.P,LED3,1*%
%TO.N,MOSI*%
X127635000Y-69569332D03*
%TO.P,LED3,2*%
%TO.N,Net-(LED1-Pad2)*%
X127635000Y-66569332D03*
%TD*%
D12*
%TO.P,J3,1,1*%
%TO.N,MISO*%
X104775000Y-62865000D03*
D13*
%TO.P,J3,2,2*%
%TO.N,VCC*%
X104775000Y-65405000D03*
%TO.P,J3,3,3*%
%TO.N,SCK*%
X102235000Y-62865000D03*
%TO.P,J3,4,4*%
%TO.N,MOSI*%
X102235000Y-65405000D03*
%TO.P,J3,5,5*%
%TO.N,RESET*%
X99695000Y-62865000D03*
%TO.P,J3,6,6*%
%TO.N,GND*%
X99695000Y-65405000D03*
%TD*%
D14*
%TO.P,R1,1*%
%TO.N,Net-(LED1-Pad2)*%
X96800000Y-71755000D03*
%TO.P,R1,2*%
%TO.N,GND*%
X93700000Y-71755000D03*
%TD*%
D15*
%TO.P,J1,1,5v*%
%TO.N,5v*%
X71755000Y-73025000D03*
%TO.P,J1,2,A7*%
%TO.N,MOSI*%
X74295000Y-73025000D03*
%TO.P,J1,3,A6*%
%TO.N,MISO*%
X76835000Y-73025000D03*
%TO.P,J1,4,A4*%
%TO.N,unconnected-(J1A-A4-Pad4)*%
X79375000Y-73025000D03*
%TO.P,J1,5,B3*%
%TO.N,SCK*%
X81915000Y-73025000D03*
%TO.P,J1,6,B2*%
%TO.N,RESET*%
X84455000Y-73025000D03*
%TO.P,J1,7,C3*%
%TO.N,unconnected-(J1A-C3-Pad7)*%
X86995000Y-73025000D03*
%TO.P,J1,8,GND*%
%TO.N,unconnected-(J1A-GND-Pad8)*%
X89535000Y-73025000D03*
%TO.P,J1,9,3V3*%
%TO.N,3v3*%
X107315000Y-73025000D03*
%TO.P,J1,10,SWC*%
%TO.N,GND*%
X109855000Y-73025000D03*
%TO.P,J1,11,GND*%
%TO.N,unconnected-(J1A-GND-Pad11)*%
X112395000Y-73025000D03*
%TO.P,J1,12,SIO*%
%TO.N,unconnected-(J1A-SIO-Pad12)*%
X114935000Y-73025000D03*
%TO.P,J1,13,TX*%
%TO.N,unconnected-(J1A-TX-Pad13)*%
X117475000Y-73025000D03*
%TO.P,J1,14,RX*%
%TO.N,unconnected-(J1A-RX-Pad14)*%
X120015000Y-73025000D03*
%TO.P,J1,15,C1*%
%TO.N,unconnected-(J1A-C1-Pad15)*%
X122555000Y-73025000D03*
%TO.P,J1,16,C0*%
%TO.N,unconnected-(J1A-C0-Pad16)*%
X125095000Y-73025000D03*
%TO.P,J1,17,1W*%
%TO.N,unconnected-(J1A-1W-Pad17)*%
X127635000Y-73025000D03*
%TO.P,J1,18,GND*%
%TO.N,unconnected-(J1A-GND-Pad18)*%
X130175000Y-73025000D03*
%TD*%
D10*
%TO.P,LED2,1*%
%TO.N,SCK*%
X125095000Y-69569332D03*
%TO.P,LED2,2*%
%TO.N,Net-(LED1-Pad2)*%
X125095000Y-66569332D03*
%TD*%
D16*
%TO.N,MOSI*%
X119451755Y-71030500D03*
X95266614Y-64220065D03*
%TO.N,MISO*%
X80475533Y-68291907D03*
X118745000Y-71755000D03*
X100419501Y-69760500D03*
%TO.N,SCK*%
X86995000Y-67945000D03*
X82766982Y-68291407D03*
X89535000Y-65405000D03*
X123799007Y-68103316D03*
%TO.N,RESET*%
X90443073Y-66310467D03*
X84458987Y-68291907D03*
X120015000Y-69495500D03*
%TO.N,GND*%
X92075000Y-71755000D03*
X88924860Y-68853278D03*
%TO.N,VCC*%
X114935000Y-66040000D03*
X109220000Y-66040000D03*
%TO.N,Net-(LED1-Pad2)*%
X105410000Y-68580000D03*
X120015000Y-67945000D03*
X111760000Y-68580000D03*
X98425000Y-71755000D03*
%TD*%
D17*
%TO.N,5v*%
X74295000Y-70485000D02*
X111812982Y-70485000D01*
X71755000Y-73025000D02*
X74295000Y-70485000D01*
X111812982Y-70485000D02*
X113515722Y-68782260D01*
X113515722Y-68782260D02*
X113515722Y-63132260D01*
%TO.N,MOSI*%
X127635000Y-70485000D02*
X127635000Y-69569332D01*
X119451755Y-71030500D02*
X127089500Y-71030500D01*
X95269179Y-64217500D02*
X101047500Y-64217500D01*
X101047500Y-64217500D02*
X102235000Y-65405000D01*
X127089500Y-71030500D02*
X127635000Y-70485000D01*
X95266614Y-64220065D02*
X95269179Y-64217500D01*
%TO.N,MISO*%
X81944126Y-69760500D02*
X100419501Y-69760500D01*
X129540000Y-71755000D02*
X130175000Y-71120000D01*
X118745000Y-71755000D02*
X129540000Y-71755000D01*
X78022500Y-64217500D02*
X76835000Y-63030000D01*
X130175000Y-71120000D02*
X130175000Y-69569332D01*
X80475533Y-68291907D02*
X80417528Y-68291907D01*
X78022500Y-65896879D02*
X78022500Y-64217500D01*
X80417528Y-68291907D02*
X78022500Y-65896879D01*
X80475533Y-68291907D02*
X81944126Y-69760500D01*
%TO.N,SCK*%
X85923093Y-69016907D02*
X83492482Y-69016907D01*
X123799007Y-68103316D02*
X123799007Y-68273339D01*
X83492482Y-69016907D02*
X82766982Y-68291407D01*
X82766982Y-68266361D02*
X80562500Y-66061879D01*
X123799007Y-68273339D02*
X125095000Y-69569332D01*
X101047500Y-61677500D02*
X102235000Y-62865000D01*
X86995000Y-67945000D02*
X85923093Y-69016907D01*
X80562500Y-66061879D02*
X80562500Y-64217500D01*
X80562500Y-64217500D02*
X79375000Y-63030000D01*
X89535000Y-65405000D02*
X93262500Y-61677500D01*
X93262500Y-61677500D02*
X101047500Y-61677500D01*
X82766982Y-68291407D02*
X82766982Y-68266361D01*
%TO.N,RESET*%
X120015000Y-69495500D02*
X120088832Y-69569332D01*
X83102500Y-66061879D02*
X83102500Y-64217500D01*
X120088832Y-69569332D02*
X122555000Y-69569332D01*
X90457043Y-66310467D02*
X93902510Y-62865000D01*
X84458987Y-68291907D02*
X84458987Y-67418366D01*
X90443073Y-66310467D02*
X90457043Y-66310467D01*
X93902510Y-62865000D02*
X99695000Y-62865000D01*
X84458987Y-67418366D02*
X83102500Y-66061879D01*
X83102500Y-64217500D02*
X81915000Y-63030000D01*
%TO.N,3v3*%
X118515722Y-68782260D02*
X118515722Y-63132260D01*
X118515722Y-70079278D02*
X118515722Y-68782260D01*
X109405000Y-70935000D02*
X117660000Y-70935000D01*
X107315000Y-73025000D02*
X109405000Y-70935000D01*
X117660000Y-70935000D02*
X118515722Y-70079278D01*
%TO.N,GND*%
X88265000Y-68189695D02*
X87295305Y-67220000D01*
X93700000Y-71755000D02*
X92075000Y-71755000D01*
X88265000Y-68189695D02*
X88265000Y-68193418D01*
X88265000Y-68193418D02*
X88924860Y-68853278D01*
X87295305Y-67220000D02*
X86105000Y-67220000D01*
X86105000Y-67220000D02*
X84455000Y-65570000D01*
%TO.N,VCC*%
X104775000Y-65405000D02*
X102235000Y-67945000D01*
X116015722Y-67120722D02*
X114935000Y-66040000D01*
X109220000Y-66040000D02*
X105410000Y-66040000D01*
X89370000Y-67945000D02*
X86995000Y-65570000D01*
X116015722Y-63132260D02*
X116015722Y-64959278D01*
X116015722Y-64959278D02*
X114935000Y-66040000D01*
X105410000Y-66040000D02*
X104775000Y-65405000D01*
X116015722Y-68782260D02*
X116015722Y-67120722D01*
X102235000Y-67945000D02*
X89370000Y-67945000D01*
%TO.N,Net-(LED1-Pad2)*%
X98425000Y-71755000D02*
X96800000Y-71755000D01*
X130175000Y-66569332D02*
X127635000Y-66569332D01*
X125095000Y-66569332D02*
X122555000Y-66569332D01*
X111760000Y-68580000D02*
X105410000Y-68580000D01*
X121390668Y-66569332D02*
X120015000Y-67945000D01*
X127635000Y-66569332D02*
X125095000Y-66569332D01*
X122555000Y-66569332D02*
X121390668Y-66569332D01*
%TD*%
M02*
