%TF.GenerationSoftware,KiCad,Pcbnew,7.0.9*%
%TF.CreationDate,2024-01-07T05:54:30-05:00*%
%TF.ProjectId,Flipper-ICSP,466c6970-7065-4722-9d49-4353502e6b69,A*%
%TF.SameCoordinates,Original*%
%TF.FileFunction,Soldermask,Bot*%
%TF.FilePolarity,Negative*%
%FSLAX46Y46*%
G04 Gerber Fmt 4.6, Leading zero omitted, Abs format (unit mm)*
G04 Created by KiCad (PCBNEW 7.0.9) date 2024-01-07 05:54:30*
%MOMM*%
%LPD*%
G01*
G04 APERTURE LIST*
%ADD10R,1.725000X1.725000*%
%ADD11C,1.725000*%
%ADD12C,1.524000*%
G04 APERTURE END LIST*
%TO.C,G\u002A\u002A\u002A*%
G36*
X144428275Y-64530365D02*
G01*
X144548231Y-64535883D01*
X144702174Y-64544535D01*
X144894087Y-64556495D01*
X145127951Y-64571935D01*
X145407747Y-64591029D01*
X145737456Y-64613951D01*
X145861432Y-64622637D01*
X146172788Y-64644650D01*
X146435603Y-64663646D01*
X146653843Y-64680003D01*
X146831477Y-64694106D01*
X146972470Y-64706337D01*
X147080788Y-64717079D01*
X147160398Y-64726713D01*
X147215266Y-64735622D01*
X147249361Y-64744188D01*
X147266646Y-64752796D01*
X147271089Y-64761825D01*
X147270269Y-64765046D01*
X147260540Y-64772600D01*
X147236727Y-64777886D01*
X147194851Y-64780730D01*
X147130930Y-64780961D01*
X147040982Y-64778404D01*
X146921027Y-64772886D01*
X146767084Y-64764235D01*
X146575170Y-64752274D01*
X146341307Y-64736834D01*
X146061510Y-64717740D01*
X145731801Y-64694818D01*
X145607826Y-64686133D01*
X145296470Y-64664119D01*
X145033655Y-64645124D01*
X144815414Y-64628766D01*
X144637780Y-64614664D01*
X144496788Y-64602433D01*
X144388469Y-64591691D01*
X144308860Y-64582057D01*
X144253991Y-64573148D01*
X144219897Y-64564582D01*
X144202611Y-64555975D01*
X144198168Y-64546945D01*
X144198988Y-64543723D01*
X144208718Y-64536170D01*
X144232530Y-64530884D01*
X144274407Y-64528039D01*
X144338327Y-64527808D01*
X144428275Y-64530365D01*
G37*
G36*
X156176276Y-62337219D02*
G01*
X156885555Y-62386835D01*
X157612170Y-62437712D01*
X158288267Y-62485117D01*
X158915619Y-62529180D01*
X159496004Y-62570036D01*
X160031193Y-62607819D01*
X160522964Y-62642662D01*
X160973087Y-62674697D01*
X161383342Y-62704059D01*
X161755499Y-62730881D01*
X162091336Y-62755295D01*
X162392626Y-62777436D01*
X162661143Y-62797435D01*
X162898663Y-62815429D01*
X163106960Y-62831548D01*
X163287809Y-62845927D01*
X163442984Y-62858700D01*
X163574259Y-62869998D01*
X163683410Y-62879956D01*
X163772211Y-62888707D01*
X163842438Y-62896384D01*
X163895864Y-62903122D01*
X163934263Y-62909052D01*
X163959412Y-62914309D01*
X163973083Y-62919025D01*
X163977052Y-62923333D01*
X163974298Y-62926317D01*
X163962391Y-62929322D01*
X163939420Y-62931286D01*
X163903600Y-62932095D01*
X163853144Y-62931632D01*
X163786269Y-62929782D01*
X163701190Y-62926429D01*
X163596120Y-62921459D01*
X163469274Y-62914755D01*
X163318870Y-62906204D01*
X163143118Y-62895686D01*
X162940237Y-62883090D01*
X162708440Y-62868300D01*
X162445941Y-62851199D01*
X162150957Y-62831671D01*
X161821700Y-62809601D01*
X161456388Y-62784876D01*
X161053234Y-62757379D01*
X160610454Y-62726993D01*
X160126262Y-62693604D01*
X159598872Y-62657096D01*
X159026500Y-62617355D01*
X158407360Y-62574264D01*
X157739669Y-62527709D01*
X157021640Y-62477572D01*
X156251488Y-62423740D01*
X155647820Y-62381541D01*
X154918368Y-62330594D01*
X154239651Y-62283253D01*
X153609882Y-62239403D01*
X153027278Y-62198927D01*
X152490051Y-62161711D01*
X151996419Y-62127640D01*
X151544595Y-62096597D01*
X151132794Y-62068468D01*
X150759232Y-62043137D01*
X150422122Y-62020488D01*
X150119680Y-62000406D01*
X149850121Y-61982775D01*
X149611659Y-61967481D01*
X149402510Y-61954407D01*
X149220888Y-61943439D01*
X149065007Y-61934461D01*
X148933083Y-61927356D01*
X148823332Y-61922011D01*
X148733967Y-61918309D01*
X148663203Y-61916136D01*
X148609254Y-61915374D01*
X148570338Y-61915910D01*
X148544667Y-61917629D01*
X148530457Y-61920412D01*
X148525922Y-61924147D01*
X148519907Y-61942674D01*
X148482662Y-61961753D01*
X148463477Y-61965131D01*
X148439401Y-61999359D01*
X148433386Y-62017886D01*
X148396141Y-62036965D01*
X148378647Y-62040697D01*
X148358108Y-62075856D01*
X148347225Y-62155437D01*
X148341984Y-62206769D01*
X148326071Y-62259898D01*
X148298310Y-62273908D01*
X148280816Y-62277642D01*
X148260277Y-62312801D01*
X148249396Y-62392381D01*
X148244153Y-62443714D01*
X148228240Y-62496843D01*
X148200480Y-62510853D01*
X148182985Y-62514586D01*
X148162447Y-62549745D01*
X148151565Y-62629326D01*
X148146323Y-62680658D01*
X148130409Y-62733786D01*
X148102649Y-62747797D01*
X148073105Y-62762479D01*
X148056561Y-62825836D01*
X148044259Y-62882010D01*
X148010473Y-62903876D01*
X147992979Y-62907608D01*
X147972440Y-62942767D01*
X147961558Y-63022348D01*
X147956317Y-63073680D01*
X147940403Y-63126809D01*
X147912643Y-63140819D01*
X147895149Y-63144553D01*
X147874610Y-63179712D01*
X147863727Y-63259292D01*
X147858486Y-63310625D01*
X147842572Y-63363754D01*
X147814812Y-63377764D01*
X147797318Y-63381497D01*
X147776779Y-63416656D01*
X147765897Y-63496237D01*
X147760655Y-63547569D01*
X147744742Y-63600697D01*
X147716981Y-63614708D01*
X147699487Y-63618442D01*
X147678949Y-63653601D01*
X147668067Y-63733181D01*
X147662824Y-63784514D01*
X147646912Y-63837642D01*
X147619152Y-63851653D01*
X147601657Y-63855386D01*
X147581118Y-63890545D01*
X147570236Y-63970125D01*
X147564995Y-64021458D01*
X147549081Y-64074586D01*
X147521321Y-64088597D01*
X147503827Y-64092331D01*
X147483287Y-64127490D01*
X147472406Y-64207069D01*
X147467164Y-64258403D01*
X147451250Y-64311531D01*
X147423490Y-64325542D01*
X147405996Y-64329275D01*
X147385457Y-64364433D01*
X147374575Y-64444014D01*
X147369333Y-64495347D01*
X147353419Y-64548475D01*
X147325660Y-64562486D01*
X147306475Y-64565864D01*
X147282399Y-64600091D01*
X147276384Y-64618620D01*
X147239138Y-64637697D01*
X147220611Y-64631682D01*
X147201532Y-64594437D01*
X147207547Y-64575909D01*
X147244793Y-64556831D01*
X147262288Y-64553098D01*
X147282827Y-64517939D01*
X147293708Y-64438359D01*
X147298950Y-64387026D01*
X147314864Y-64333898D01*
X147342624Y-64319887D01*
X147360118Y-64316154D01*
X147380657Y-64280995D01*
X147391539Y-64201415D01*
X147396781Y-64150082D01*
X147412694Y-64096954D01*
X147440454Y-64082942D01*
X147457948Y-64079209D01*
X147478487Y-64044050D01*
X147489370Y-63964471D01*
X147494611Y-63913137D01*
X147510525Y-63860009D01*
X147538285Y-63845998D01*
X147555779Y-63842265D01*
X147576318Y-63807107D01*
X147587200Y-63727526D01*
X147592442Y-63676193D01*
X147608356Y-63623065D01*
X147636116Y-63609053D01*
X147653610Y-63605321D01*
X147674148Y-63570162D01*
X147685031Y-63490582D01*
X147690273Y-63439249D01*
X147706186Y-63386120D01*
X147733946Y-63372109D01*
X147751441Y-63368377D01*
X147771979Y-63333218D01*
X147782861Y-63253637D01*
X147788102Y-63202305D01*
X147804016Y-63149176D01*
X147831776Y-63135165D01*
X147849270Y-63131432D01*
X147869810Y-63096273D01*
X147880692Y-63016693D01*
X147885933Y-62965360D01*
X147901847Y-62912231D01*
X147929607Y-62898221D01*
X147947101Y-62894488D01*
X147967641Y-62859329D01*
X147978522Y-62779748D01*
X147983764Y-62728416D01*
X147999678Y-62675288D01*
X148027438Y-62661277D01*
X148044932Y-62657543D01*
X148065470Y-62622384D01*
X148076353Y-62542804D01*
X148081595Y-62491471D01*
X148097508Y-62438343D01*
X148125268Y-62424332D01*
X148142762Y-62420599D01*
X148163301Y-62385440D01*
X148174184Y-62305860D01*
X148179425Y-62254527D01*
X148195338Y-62201399D01*
X148223099Y-62187388D01*
X148252642Y-62172706D01*
X148269187Y-62109349D01*
X148281489Y-62053174D01*
X148315274Y-62031310D01*
X148332769Y-62027577D01*
X148353308Y-61992417D01*
X148364189Y-61912837D01*
X148372672Y-61791538D01*
X156176276Y-62337219D01*
G37*
G36*
X64243447Y-55943038D02*
G01*
X64281545Y-55944070D01*
X64330977Y-55945947D01*
X64392532Y-55948722D01*
X64467000Y-55952450D01*
X64555168Y-55957185D01*
X64657825Y-55962981D01*
X64775758Y-55969893D01*
X64909758Y-55977975D01*
X65060611Y-55987283D01*
X65229106Y-55997869D01*
X65416033Y-56009787D01*
X65622178Y-56023093D01*
X65848332Y-56037841D01*
X66095281Y-56054085D01*
X66363815Y-56071879D01*
X66654722Y-56091278D01*
X66968791Y-56112336D01*
X67306809Y-56135107D01*
X67669566Y-56159645D01*
X68057849Y-56186007D01*
X68472447Y-56214244D01*
X68914150Y-56244412D01*
X69383744Y-56276565D01*
X69882018Y-56310757D01*
X70409762Y-56347043D01*
X70967763Y-56385477D01*
X71556809Y-56426113D01*
X72177690Y-56469006D01*
X72831193Y-56514209D01*
X73518108Y-56561779D01*
X74239222Y-56611767D01*
X74995324Y-56664230D01*
X75787202Y-56719220D01*
X76615646Y-56776793D01*
X77481442Y-56837003D01*
X78385380Y-56899904D01*
X79328249Y-56965551D01*
X80310835Y-57033998D01*
X81333929Y-57105299D01*
X82398318Y-57179509D01*
X83504791Y-57256680D01*
X84654136Y-57336870D01*
X85847142Y-57420131D01*
X87084597Y-57506517D01*
X88367290Y-57596084D01*
X89696009Y-57688886D01*
X91071542Y-57784975D01*
X92494678Y-57884408D01*
X93966206Y-57987239D01*
X95486912Y-58093521D01*
X97057588Y-58203310D01*
X98679020Y-58316659D01*
X100351997Y-58433622D01*
X102077307Y-58554254D01*
X103855739Y-58678610D01*
X143520691Y-61452254D01*
X143512208Y-61573554D01*
X143510255Y-61625117D01*
X143518619Y-61679943D01*
X143544159Y-61697681D01*
X143571372Y-61716332D01*
X143578937Y-61781375D01*
X143583302Y-61838714D01*
X143613716Y-61865069D01*
X143630521Y-61871200D01*
X143645966Y-61908875D01*
X143645667Y-61989195D01*
X143643713Y-62040758D01*
X143652078Y-62095584D01*
X143677618Y-62113322D01*
X143694422Y-62119453D01*
X143709869Y-62157128D01*
X143709569Y-62237449D01*
X143707616Y-62289012D01*
X143715981Y-62343838D01*
X143741520Y-62361576D01*
X143758325Y-62367708D01*
X143773770Y-62405383D01*
X143773472Y-62485703D01*
X143771518Y-62537266D01*
X143779883Y-62592092D01*
X143805423Y-62609830D01*
X143822227Y-62615961D01*
X143837673Y-62653636D01*
X143837374Y-62733957D01*
X143835420Y-62785519D01*
X143843785Y-62840345D01*
X143869325Y-62858083D01*
X143886129Y-62864215D01*
X143901575Y-62901890D01*
X143901276Y-62982210D01*
X143899323Y-63033774D01*
X143907687Y-63088600D01*
X143933226Y-63106337D01*
X143950032Y-63112469D01*
X143965477Y-63150144D01*
X143965178Y-63230464D01*
X143963224Y-63282027D01*
X143971589Y-63336853D01*
X143997129Y-63354591D01*
X144013933Y-63360723D01*
X144029380Y-63398398D01*
X144029080Y-63478718D01*
X144027126Y-63530281D01*
X144035491Y-63585107D01*
X144061031Y-63602845D01*
X144077835Y-63608976D01*
X144093282Y-63646651D01*
X144092982Y-63726972D01*
X144091029Y-63778534D01*
X144099394Y-63833361D01*
X144124934Y-63851098D01*
X144141738Y-63857230D01*
X144157183Y-63894906D01*
X144156885Y-63975225D01*
X144154931Y-64026789D01*
X144163296Y-64081615D01*
X144188836Y-64099353D01*
X144205640Y-64105484D01*
X144221086Y-64143159D01*
X144220787Y-64223480D01*
X144218833Y-64275042D01*
X144227197Y-64329868D01*
X144252738Y-64347606D01*
X144271266Y-64353621D01*
X144290344Y-64390867D01*
X144284329Y-64409395D01*
X144247084Y-64428473D01*
X144228555Y-64422457D01*
X144209478Y-64385212D01*
X144206100Y-64366028D01*
X144171872Y-64341951D01*
X144155067Y-64335820D01*
X144139621Y-64298145D01*
X144139921Y-64217825D01*
X144141874Y-64166262D01*
X144133509Y-64111436D01*
X144107969Y-64093698D01*
X144091165Y-64087567D01*
X144075719Y-64049892D01*
X144076018Y-63969571D01*
X144077972Y-63918008D01*
X144069607Y-63863182D01*
X144044067Y-63845444D01*
X144027263Y-63839312D01*
X144011817Y-63801637D01*
X144012116Y-63721317D01*
X144014069Y-63669754D01*
X144005705Y-63614928D01*
X143980165Y-63597190D01*
X143963360Y-63591059D01*
X143947915Y-63553384D01*
X143948213Y-63473063D01*
X143950167Y-63421501D01*
X143941803Y-63366675D01*
X143916262Y-63348936D01*
X143899458Y-63342805D01*
X143884013Y-63305130D01*
X143884312Y-63224810D01*
X143886265Y-63173246D01*
X143877901Y-63118420D01*
X143852361Y-63100683D01*
X143835556Y-63094551D01*
X143820110Y-63056876D01*
X143820410Y-62976555D01*
X143822363Y-62924993D01*
X143813998Y-62870167D01*
X143788459Y-62852428D01*
X143771654Y-62846297D01*
X143756208Y-62808622D01*
X143756507Y-62728302D01*
X143758461Y-62676739D01*
X143750096Y-62621913D01*
X143724556Y-62604175D01*
X143697343Y-62585524D01*
X143689778Y-62520481D01*
X143685414Y-62463142D01*
X143654999Y-62436787D01*
X143638195Y-62430656D01*
X143622749Y-62392981D01*
X143623048Y-62312661D01*
X143625002Y-62261098D01*
X143616637Y-62206272D01*
X143591097Y-62188534D01*
X143574293Y-62182403D01*
X143558847Y-62144726D01*
X143559146Y-62064407D01*
X143561099Y-62012844D01*
X143552735Y-61958018D01*
X143527194Y-61940280D01*
X143510390Y-61934148D01*
X143494945Y-61896473D01*
X143495244Y-61816153D01*
X143497197Y-61764590D01*
X143488833Y-61709764D01*
X143463293Y-61692026D01*
X143444765Y-61686011D01*
X143425687Y-61648766D01*
X143422309Y-61629581D01*
X143388081Y-61605505D01*
X143369554Y-61599490D01*
X143350475Y-61562244D01*
X143349547Y-61561257D01*
X143341484Y-61558897D01*
X143324490Y-61555966D01*
X143297775Y-61552410D01*
X143260551Y-61548171D01*
X143212029Y-61543193D01*
X143151418Y-61537421D01*
X143077931Y-61530799D01*
X142990778Y-61523271D01*
X142889169Y-61514780D01*
X142772315Y-61505270D01*
X142639430Y-61494687D01*
X142489720Y-61482973D01*
X142322400Y-61470072D01*
X142136679Y-61455930D01*
X141931768Y-61440489D01*
X141706878Y-61423693D01*
X141461219Y-61405489D01*
X141194002Y-61385817D01*
X140904440Y-61364622D01*
X140591743Y-61341850D01*
X140255121Y-61317443D01*
X139893784Y-61291347D01*
X139506945Y-61263503D01*
X139093813Y-61233859D01*
X138653601Y-61202355D01*
X138185519Y-61168937D01*
X137688776Y-61133550D01*
X137162585Y-61096136D01*
X136606157Y-61056639D01*
X136018702Y-61015005D01*
X135399431Y-60971177D01*
X134747554Y-60925098D01*
X134062284Y-60876713D01*
X133342830Y-60825966D01*
X132588404Y-60772801D01*
X131798216Y-60717162D01*
X130971478Y-60658992D01*
X130107400Y-60598237D01*
X129205192Y-60534840D01*
X128264066Y-60468744D01*
X127283235Y-60399894D01*
X126261906Y-60328235D01*
X125199291Y-60253709D01*
X124094602Y-60176261D01*
X122947050Y-60095835D01*
X121755844Y-60012376D01*
X120520198Y-59925825D01*
X119239319Y-59836129D01*
X117912421Y-59743231D01*
X116538713Y-59647076D01*
X115117406Y-59547606D01*
X113647712Y-59444766D01*
X112128842Y-59338500D01*
X110560005Y-59228752D01*
X108940414Y-59115468D01*
X107269278Y-58998587D01*
X105545810Y-58878058D01*
X103769218Y-58753822D01*
X102870437Y-58690972D01*
X101120619Y-58568605D01*
X99423528Y-58449915D01*
X97778373Y-58334847D01*
X96184366Y-58223345D01*
X94640718Y-58115353D01*
X93146639Y-58010815D01*
X91701341Y-57909673D01*
X90304034Y-57811875D01*
X88953930Y-57717362D01*
X87650238Y-57626079D01*
X86392171Y-57537970D01*
X85178938Y-57452978D01*
X84009750Y-57371049D01*
X82883820Y-57292126D01*
X81800357Y-57216152D01*
X80758572Y-57143073D01*
X79757677Y-57072831D01*
X78796882Y-57005371D01*
X77875397Y-56940638D01*
X76992435Y-56878573D01*
X76147205Y-56819124D01*
X75338919Y-56762232D01*
X74566787Y-56707843D01*
X73830021Y-56655898D01*
X73127830Y-56606345D01*
X72459426Y-56559124D01*
X71824021Y-56514183D01*
X71220824Y-56471463D01*
X70649047Y-56430909D01*
X70107901Y-56392465D01*
X69596597Y-56356076D01*
X69114344Y-56321685D01*
X68660355Y-56289235D01*
X68233839Y-56258671D01*
X67834008Y-56229939D01*
X67460074Y-56202980D01*
X67111246Y-56177738D01*
X66786736Y-56154159D01*
X66485753Y-56132187D01*
X66207511Y-56111764D01*
X65951218Y-56092835D01*
X65716087Y-56075345D01*
X65501327Y-56059237D01*
X65306151Y-56044454D01*
X65129768Y-56030943D01*
X64971390Y-56018646D01*
X64830227Y-56007506D01*
X64705490Y-55997469D01*
X64596391Y-55988478D01*
X64502139Y-55980478D01*
X64421946Y-55973410D01*
X64355023Y-55967222D01*
X64300581Y-55961856D01*
X64257831Y-55957257D01*
X64225983Y-55953367D01*
X64204247Y-55950132D01*
X64191837Y-55947495D01*
X64187962Y-55945400D01*
X64189278Y-55944462D01*
X64198102Y-55943288D01*
X64215895Y-55942795D01*
X64243447Y-55943038D01*
G37*
G36*
X67177486Y-60258168D02*
G01*
X67354783Y-60270597D01*
X67663059Y-60292438D01*
X67923327Y-60311300D01*
X68139502Y-60327557D01*
X68315501Y-60341586D01*
X68455241Y-60353760D01*
X68562638Y-60364456D01*
X68641608Y-60374047D01*
X68696068Y-60382908D01*
X68729934Y-60391416D01*
X68747123Y-60399944D01*
X68751552Y-60408869D01*
X68754930Y-60428053D01*
X68789157Y-60452130D01*
X68792379Y-60452949D01*
X68799933Y-60462679D01*
X68805219Y-60486492D01*
X68808063Y-60528368D01*
X68808294Y-60592289D01*
X68805737Y-60682237D01*
X68800219Y-60802192D01*
X68791568Y-60956135D01*
X68779608Y-61148049D01*
X68764167Y-61381912D01*
X68745073Y-61661708D01*
X68722151Y-61991417D01*
X68614711Y-63527878D01*
X70110739Y-63632491D01*
X71606767Y-63737103D01*
X71714207Y-62200642D01*
X71722891Y-62076667D01*
X71744906Y-61765311D01*
X71763900Y-61502496D01*
X71780259Y-61284255D01*
X71794361Y-61106621D01*
X71806592Y-60965629D01*
X71817333Y-60857310D01*
X71826967Y-60777700D01*
X71835876Y-60722831D01*
X71844443Y-60688738D01*
X71853050Y-60671452D01*
X71862080Y-60667009D01*
X71881264Y-60663631D01*
X71905340Y-60629403D01*
X71906887Y-60624942D01*
X71918451Y-60617808D01*
X71944605Y-60612929D01*
X71989280Y-60610482D01*
X72056404Y-60610637D01*
X72149911Y-60613570D01*
X72273729Y-60619456D01*
X72431788Y-60628466D01*
X72628021Y-60640776D01*
X72866357Y-60656559D01*
X73150727Y-60675988D01*
X73485061Y-60699237D01*
X75061955Y-60809504D01*
X74951688Y-62386398D01*
X74841421Y-63963292D01*
X76377882Y-64070732D01*
X77914343Y-64178172D01*
X78021783Y-62641711D01*
X78030467Y-62517735D01*
X78052482Y-62206380D01*
X78071477Y-61943564D01*
X78087834Y-61725324D01*
X78101938Y-61547690D01*
X78114168Y-61406698D01*
X78124910Y-61298379D01*
X78134543Y-61218769D01*
X78143452Y-61163900D01*
X78152020Y-61129807D01*
X78160626Y-61112521D01*
X78169655Y-61108078D01*
X78188841Y-61104700D01*
X78212916Y-61070472D01*
X78214463Y-61066011D01*
X78226028Y-61058876D01*
X78252182Y-61053998D01*
X78296855Y-61051550D01*
X78363981Y-61051706D01*
X78457487Y-61054639D01*
X78581304Y-61060524D01*
X78739365Y-61069535D01*
X78935598Y-61081844D01*
X79173934Y-61097627D01*
X79458304Y-61117056D01*
X79792638Y-61140306D01*
X81369532Y-61250573D01*
X81259265Y-62827466D01*
X81148998Y-64404361D01*
X82685459Y-64511801D01*
X84221919Y-64619240D01*
X84332186Y-63042346D01*
X84442453Y-61465453D01*
X86019348Y-61575720D01*
X86196646Y-61588149D01*
X86504922Y-61609989D01*
X86765189Y-61628852D01*
X86981364Y-61645109D01*
X87157364Y-61659137D01*
X87297103Y-61671311D01*
X87404500Y-61682007D01*
X87483470Y-61691598D01*
X87537930Y-61700460D01*
X87571796Y-61708968D01*
X87588986Y-61717496D01*
X87593415Y-61726420D01*
X87596793Y-61745605D01*
X87631021Y-61769681D01*
X87634241Y-61770501D01*
X87641795Y-61780230D01*
X87647081Y-61804043D01*
X87649926Y-61845919D01*
X87650157Y-61909840D01*
X87647600Y-61999788D01*
X87642082Y-62119743D01*
X87633430Y-62273687D01*
X87621470Y-62465600D01*
X87606030Y-62699464D01*
X87586935Y-62979259D01*
X87564013Y-63308968D01*
X87456573Y-64845429D01*
X88952601Y-64950042D01*
X90448629Y-65054654D01*
X90556069Y-63518193D01*
X90564754Y-63394218D01*
X90586768Y-63082862D01*
X90605763Y-62820047D01*
X90622121Y-62601807D01*
X90636224Y-62424173D01*
X90648454Y-62283180D01*
X90659196Y-62174862D01*
X90668830Y-62095252D01*
X90677739Y-62040383D01*
X90686305Y-62006289D01*
X90694913Y-61989004D01*
X90703942Y-61984561D01*
X90723126Y-61981183D01*
X90747202Y-61946955D01*
X90748749Y-61942494D01*
X90760313Y-61935359D01*
X90786467Y-61930480D01*
X90831142Y-61928033D01*
X90898266Y-61928189D01*
X90991773Y-61931121D01*
X91115591Y-61937007D01*
X91273651Y-61946018D01*
X91469884Y-61958327D01*
X91708220Y-61974110D01*
X91992590Y-61993539D01*
X92326924Y-62016789D01*
X93903818Y-62127056D01*
X93793550Y-63703949D01*
X93683283Y-65280843D01*
X95219744Y-65388283D01*
X96756206Y-65495723D01*
X96863645Y-63959262D01*
X96872331Y-63835287D01*
X96894344Y-63523931D01*
X96913340Y-63261116D01*
X96929697Y-63042875D01*
X96943800Y-62865241D01*
X96956031Y-62724249D01*
X96966772Y-62615930D01*
X96976406Y-62536321D01*
X96985316Y-62481451D01*
X96993882Y-62447358D01*
X97002488Y-62430072D01*
X97011518Y-62425629D01*
X97030703Y-62422251D01*
X97054779Y-62388023D01*
X97056326Y-62383562D01*
X97067890Y-62376428D01*
X97094044Y-62371549D01*
X97138718Y-62369102D01*
X97205843Y-62369257D01*
X97299349Y-62372190D01*
X97423167Y-62378076D01*
X97581227Y-62387086D01*
X97777460Y-62399396D01*
X98015796Y-62415179D01*
X98300166Y-62434608D01*
X98634500Y-62457857D01*
X100211394Y-62568124D01*
X100101127Y-64145018D01*
X99990860Y-65721912D01*
X101446454Y-65823697D01*
X102902049Y-65925482D01*
X103009489Y-64389021D01*
X103018174Y-64265046D01*
X103040188Y-63953690D01*
X103059183Y-63690875D01*
X103075541Y-63472635D01*
X103089643Y-63295001D01*
X103101874Y-63154008D01*
X103112615Y-63045690D01*
X103122250Y-62966080D01*
X103131159Y-62911211D01*
X103139725Y-62877117D01*
X103148332Y-62859831D01*
X103157362Y-62855388D01*
X103176546Y-62852010D01*
X103200622Y-62817783D01*
X103202169Y-62813322D01*
X103213733Y-62806187D01*
X103239887Y-62801308D01*
X103284562Y-62798861D01*
X103351687Y-62799017D01*
X103445193Y-62801949D01*
X103569011Y-62807835D01*
X103727070Y-62816845D01*
X103923304Y-62829155D01*
X104161640Y-62844938D01*
X104446010Y-62864367D01*
X104780344Y-62887617D01*
X106357238Y-62997884D01*
X106246970Y-64574777D01*
X106136703Y-66151671D01*
X107673164Y-66259111D01*
X109209626Y-66366551D01*
X109319893Y-64789657D01*
X109430160Y-63212763D01*
X111007053Y-63323030D01*
X111184352Y-63335459D01*
X111492628Y-63357300D01*
X111752895Y-63376162D01*
X111969070Y-63392419D01*
X112145069Y-63406448D01*
X112284810Y-63418622D01*
X112392206Y-63429318D01*
X112471176Y-63438909D01*
X112525636Y-63447770D01*
X112559503Y-63456278D01*
X112576692Y-63464806D01*
X112581120Y-63473731D01*
X112584498Y-63492915D01*
X112618726Y-63516992D01*
X112621948Y-63517811D01*
X112629502Y-63527541D01*
X112634787Y-63551354D01*
X112637632Y-63593230D01*
X112637863Y-63657151D01*
X112635306Y-63747099D01*
X112629788Y-63867054D01*
X112621136Y-64020997D01*
X112609176Y-64212911D01*
X112593736Y-64446774D01*
X112574642Y-64726570D01*
X112551720Y-65056279D01*
X112444280Y-66592740D01*
X113940308Y-66697353D01*
X115436336Y-66801965D01*
X115543775Y-65265504D01*
X115552460Y-65141529D01*
X115574474Y-64830173D01*
X115593469Y-64567358D01*
X115609826Y-64349117D01*
X115623930Y-64171483D01*
X115636161Y-64030491D01*
X115646902Y-63922172D01*
X115656535Y-63842562D01*
X115665445Y-63787693D01*
X115674012Y-63753600D01*
X115682618Y-63736314D01*
X115691648Y-63731871D01*
X115710833Y-63728493D01*
X115734908Y-63694265D01*
X115736455Y-63689804D01*
X115748020Y-63682670D01*
X115774174Y-63677791D01*
X115818847Y-63675343D01*
X115885973Y-63675499D01*
X115979479Y-63678432D01*
X116103296Y-63684317D01*
X116261357Y-63693328D01*
X116457590Y-63705638D01*
X116695926Y-63721421D01*
X116980296Y-63740850D01*
X117314630Y-63764099D01*
X118891524Y-63874366D01*
X118781257Y-65451260D01*
X118670990Y-67028154D01*
X120207451Y-67135594D01*
X121743911Y-67243034D01*
X121851351Y-65706573D01*
X121860036Y-65582597D01*
X121882051Y-65271242D01*
X121901045Y-65008426D01*
X121917403Y-64790186D01*
X121931506Y-64612552D01*
X121943737Y-64471560D01*
X121954478Y-64363241D01*
X121964112Y-64283631D01*
X121973021Y-64228762D01*
X121981588Y-64194669D01*
X121990195Y-64177383D01*
X121999224Y-64172940D01*
X122018409Y-64169562D01*
X122042485Y-64135334D01*
X122044985Y-64129728D01*
X122058429Y-64122996D01*
X122086951Y-64118513D01*
X122134433Y-64116450D01*
X122204756Y-64116983D01*
X122301802Y-64120284D01*
X122429452Y-64126529D01*
X122591590Y-64135891D01*
X122792096Y-64148544D01*
X123034851Y-64164663D01*
X123323738Y-64184422D01*
X123662640Y-64207995D01*
X125279966Y-64321090D01*
X125169699Y-65897983D01*
X125059432Y-67474878D01*
X126595893Y-67582317D01*
X128132354Y-67689757D01*
X128242621Y-66112863D01*
X128352888Y-64535969D01*
X129929783Y-64646237D01*
X130107081Y-64658666D01*
X130415356Y-64680506D01*
X130675623Y-64699368D01*
X130891799Y-64715625D01*
X131067798Y-64729654D01*
X131207538Y-64741828D01*
X131314935Y-64752524D01*
X131393905Y-64762115D01*
X131448366Y-64770976D01*
X131482232Y-64779485D01*
X131499421Y-64788012D01*
X131503849Y-64796937D01*
X131507227Y-64816121D01*
X131541455Y-64840198D01*
X131544676Y-64841017D01*
X131552230Y-64850747D01*
X131557516Y-64874560D01*
X131560361Y-64916436D01*
X131560591Y-64980357D01*
X131558035Y-65070305D01*
X131552517Y-65190260D01*
X131543865Y-65344203D01*
X131531906Y-65536117D01*
X131516465Y-65769980D01*
X131497370Y-66049776D01*
X131474448Y-66379485D01*
X131367008Y-67915946D01*
X132863036Y-68020559D01*
X134359064Y-68125171D01*
X134466504Y-66588710D01*
X134475188Y-66464735D01*
X134497203Y-66153379D01*
X134516197Y-65890564D01*
X134532555Y-65672323D01*
X134546658Y-65494689D01*
X134558889Y-65353697D01*
X134569630Y-65245378D01*
X134579264Y-65165769D01*
X134588173Y-65110899D01*
X134596740Y-65076806D01*
X134605347Y-65059520D01*
X134614377Y-65055077D01*
X134633561Y-65051699D01*
X134657638Y-65017471D01*
X134659185Y-65013010D01*
X134670748Y-65005876D01*
X134696902Y-65000997D01*
X134741576Y-64998550D01*
X134808702Y-64998705D01*
X134902208Y-65001638D01*
X135026026Y-65007524D01*
X135184085Y-65016534D01*
X135380319Y-65028844D01*
X135618654Y-65044627D01*
X135903025Y-65064056D01*
X136237358Y-65087305D01*
X137814253Y-65197572D01*
X137703986Y-66774466D01*
X137593718Y-68351360D01*
X139130180Y-68458800D01*
X140666640Y-68566240D01*
X140774080Y-67029779D01*
X140782765Y-66905804D01*
X140804779Y-66594448D01*
X140823774Y-66331633D01*
X140840131Y-66113392D01*
X140854235Y-65935758D01*
X140866466Y-65794766D01*
X140877207Y-65686447D01*
X140886841Y-65606837D01*
X140895750Y-65551968D01*
X140904317Y-65517875D01*
X140912924Y-65500589D01*
X140921953Y-65496146D01*
X140941138Y-65492768D01*
X140965213Y-65458540D01*
X140966760Y-65454079D01*
X140978325Y-65446944D01*
X141004479Y-65442066D01*
X141049153Y-65439618D01*
X141116277Y-65439774D01*
X141209784Y-65442707D01*
X141333601Y-65448592D01*
X141491662Y-65457603D01*
X141687895Y-65469912D01*
X141926231Y-65485695D01*
X142210601Y-65505124D01*
X142544935Y-65528374D01*
X144121829Y-65638641D01*
X144011562Y-67215535D01*
X143901295Y-68792429D01*
X145356890Y-68894214D01*
X146812484Y-68995999D01*
X146919924Y-67459538D01*
X146928608Y-67335563D01*
X146950623Y-67024207D01*
X146969617Y-66761392D01*
X146985975Y-66543151D01*
X147000078Y-66365517D01*
X147012309Y-66224525D01*
X147023050Y-66116206D01*
X147032684Y-66036597D01*
X147041593Y-65981727D01*
X147050160Y-65947634D01*
X147058767Y-65930348D01*
X147067796Y-65925905D01*
X147086981Y-65922527D01*
X147111057Y-65888299D01*
X147112604Y-65883838D01*
X147124168Y-65876704D01*
X147150322Y-65871825D01*
X147194996Y-65869377D01*
X147262122Y-65869533D01*
X147355628Y-65872466D01*
X147479445Y-65878352D01*
X147637505Y-65887362D01*
X147833739Y-65899672D01*
X148072074Y-65915455D01*
X148356445Y-65934884D01*
X148690778Y-65958133D01*
X150267673Y-66068400D01*
X150157406Y-67645294D01*
X150047138Y-69222188D01*
X151583600Y-69329628D01*
X153120060Y-69437068D01*
X153230327Y-67860173D01*
X153340594Y-66283280D01*
X154917488Y-66393547D01*
X155094786Y-66405976D01*
X155403063Y-66427817D01*
X155663330Y-66446679D01*
X155879505Y-66462936D01*
X156055505Y-66476964D01*
X156195244Y-66489139D01*
X156302640Y-66499834D01*
X156381611Y-66509425D01*
X156436071Y-66518287D01*
X156469937Y-66526795D01*
X156487127Y-66535323D01*
X156491555Y-66544248D01*
X156494933Y-66563432D01*
X156529161Y-66587508D01*
X156532382Y-66588328D01*
X156539936Y-66598058D01*
X156545221Y-66621870D01*
X156548067Y-66663747D01*
X156548298Y-66727668D01*
X156545740Y-66817615D01*
X156540223Y-66937571D01*
X156531571Y-67091514D01*
X156519611Y-67283427D01*
X156504171Y-67517291D01*
X156485076Y-67797087D01*
X156462154Y-68126796D01*
X156354714Y-69663257D01*
X157850742Y-69767869D01*
X159346770Y-69872482D01*
X159454210Y-68336021D01*
X159462895Y-68212045D01*
X159484908Y-67900690D01*
X159503904Y-67637874D01*
X159520261Y-67419634D01*
X159534364Y-67242000D01*
X159546595Y-67101008D01*
X159557337Y-66992689D01*
X159566971Y-66913079D01*
X159575880Y-66858210D01*
X159584446Y-66824117D01*
X159593054Y-66806831D01*
X159602083Y-66802388D01*
X159621267Y-66799010D01*
X159645343Y-66764782D01*
X159646890Y-66760321D01*
X159658454Y-66753186D01*
X159684608Y-66748308D01*
X159729283Y-66745860D01*
X159796407Y-66746016D01*
X159889913Y-66748949D01*
X160013732Y-66754834D01*
X160171792Y-66763845D01*
X160368024Y-66776154D01*
X160606361Y-66791937D01*
X160890730Y-66811366D01*
X161225065Y-66834616D01*
X162801958Y-66944883D01*
X162691691Y-68521776D01*
X162581424Y-70098671D01*
X163026189Y-70129772D01*
X163174848Y-70140649D01*
X163300436Y-70151549D01*
X163385423Y-70161910D01*
X163436943Y-70172886D01*
X163462133Y-70185633D01*
X163468127Y-70201306D01*
X163467779Y-70203998D01*
X163457446Y-70217269D01*
X163427993Y-70225362D01*
X163372474Y-70228371D01*
X163283948Y-70226387D01*
X163155472Y-70219503D01*
X162980102Y-70207811D01*
X162494904Y-70173883D01*
X162605171Y-68596988D01*
X162715438Y-67020095D01*
X161178977Y-66912655D01*
X159642516Y-66805215D01*
X159532249Y-68382109D01*
X159421982Y-69959003D01*
X157845087Y-69848736D01*
X156268194Y-69738469D01*
X156378461Y-68161574D01*
X156488728Y-66584681D01*
X154952267Y-66477241D01*
X153415806Y-66369801D01*
X153305539Y-67946695D01*
X153195272Y-69523589D01*
X151577945Y-69410495D01*
X149960617Y-69297400D01*
X150070884Y-67720506D01*
X150181152Y-66143612D01*
X148644690Y-66036172D01*
X147108229Y-65928733D01*
X146997962Y-67505626D01*
X146887695Y-69082520D01*
X145351235Y-68975081D01*
X143814774Y-68867641D01*
X143925041Y-67290746D01*
X144035308Y-65713853D01*
X142498847Y-65606413D01*
X140962386Y-65498973D01*
X140852119Y-67075867D01*
X140741851Y-68652761D01*
X139124525Y-68539667D01*
X137507197Y-68426572D01*
X137617464Y-66849678D01*
X137727732Y-65272784D01*
X136191270Y-65165344D01*
X134654810Y-65057905D01*
X134544543Y-66634798D01*
X134434276Y-68211692D01*
X132857382Y-68101425D01*
X131280487Y-67991158D01*
X131390754Y-66414264D01*
X131501022Y-64837370D01*
X129964560Y-64729930D01*
X128428100Y-64622491D01*
X128317833Y-66199384D01*
X128207566Y-67776278D01*
X126590238Y-67663184D01*
X124972912Y-67550089D01*
X125083179Y-65973195D01*
X125193446Y-64396302D01*
X123616552Y-64286034D01*
X122039657Y-64175767D01*
X121929390Y-65752661D01*
X121819123Y-67329555D01*
X120201796Y-67216460D01*
X118584469Y-67103366D01*
X118694736Y-65526472D01*
X118805003Y-63949578D01*
X117268542Y-63842138D01*
X115732081Y-63734698D01*
X115621814Y-65311592D01*
X115511546Y-66888486D01*
X113934653Y-66778219D01*
X112357759Y-66667952D01*
X112468026Y-65091058D01*
X112578293Y-63514164D01*
X111041832Y-63406724D01*
X109505372Y-63299285D01*
X109395105Y-64876178D01*
X109284837Y-66453072D01*
X107667510Y-66339978D01*
X106050182Y-66226883D01*
X106160449Y-64649989D01*
X106270716Y-63073095D01*
X104734256Y-62965656D01*
X103197795Y-62858216D01*
X103087528Y-64435109D01*
X102977261Y-66012004D01*
X101440800Y-65904564D01*
X99904339Y-65797124D01*
X100014606Y-64220230D01*
X100124873Y-62643336D01*
X98588413Y-62535896D01*
X97051952Y-62428457D01*
X96941684Y-64005350D01*
X96831417Y-65582244D01*
X95214090Y-65469150D01*
X93596763Y-65356055D01*
X93707030Y-63779161D01*
X93817297Y-62202268D01*
X92280836Y-62094828D01*
X90744375Y-61987388D01*
X90634108Y-63564281D01*
X90523841Y-65141176D01*
X88946946Y-65030908D01*
X87370053Y-64920641D01*
X87480320Y-63343747D01*
X87590587Y-61766854D01*
X86054126Y-61659414D01*
X84517665Y-61551974D01*
X84407398Y-63128867D01*
X84297131Y-64705762D01*
X82679804Y-64592667D01*
X81062476Y-64479573D01*
X81172744Y-62902678D01*
X81283011Y-61325785D01*
X79746550Y-61218345D01*
X78210089Y-61110905D01*
X78099821Y-62687799D01*
X77989554Y-64264693D01*
X76372228Y-64151598D01*
X74754900Y-64038504D01*
X74865167Y-62461610D01*
X74975434Y-60884716D01*
X73438973Y-60777276D01*
X71902513Y-60669837D01*
X71792246Y-62246730D01*
X71681979Y-63823624D01*
X70105084Y-63713357D01*
X68528190Y-63603090D01*
X68638457Y-62026196D01*
X68748724Y-60449302D01*
X67212264Y-60341862D01*
X65675803Y-60234423D01*
X65565536Y-61811316D01*
X65455269Y-63388210D01*
X64565739Y-63326008D01*
X64425950Y-63316162D01*
X64207920Y-63300319D01*
X64035849Y-63286886D01*
X63904565Y-63275263D01*
X63808899Y-63264853D01*
X63743684Y-63255058D01*
X63703746Y-63245278D01*
X63683921Y-63234916D01*
X63679036Y-63223373D01*
X63679907Y-63219306D01*
X63690838Y-63209442D01*
X63718399Y-63202982D01*
X63767910Y-63200044D01*
X63844692Y-63200745D01*
X63954068Y-63205204D01*
X64101357Y-63213540D01*
X64291881Y-63225871D01*
X64530960Y-63242314D01*
X65380057Y-63301689D01*
X65490324Y-61724795D01*
X65600591Y-60147901D01*
X67177486Y-60258168D01*
G37*
G36*
X83294506Y-66260887D02*
G01*
X83325577Y-66263060D01*
X83764383Y-66293826D01*
X84152495Y-66321222D01*
X84492934Y-66345506D01*
X84788725Y-66366936D01*
X85042889Y-66385769D01*
X85258453Y-66402263D01*
X85438437Y-66416675D01*
X85585866Y-66429263D01*
X85703763Y-66440284D01*
X85795150Y-66449996D01*
X85863053Y-66458656D01*
X85910492Y-66466521D01*
X85940492Y-66473850D01*
X85956077Y-66480899D01*
X85960269Y-66487926D01*
X85963647Y-66507111D01*
X85997874Y-66531186D01*
X86014680Y-66537318D01*
X86030125Y-66574994D01*
X86029826Y-66655313D01*
X86027872Y-66706877D01*
X86036237Y-66761703D01*
X86061777Y-66779441D01*
X86088990Y-66798091D01*
X86096555Y-66863134D01*
X86100919Y-66920474D01*
X86131334Y-66946827D01*
X86148138Y-66952959D01*
X86163584Y-66990635D01*
X86163285Y-67070955D01*
X86161331Y-67122518D01*
X86169696Y-67177344D01*
X86195236Y-67195082D01*
X86212040Y-67201213D01*
X86227486Y-67238888D01*
X86227187Y-67319209D01*
X86225234Y-67370771D01*
X86233599Y-67425597D01*
X86259139Y-67443335D01*
X86275943Y-67449467D01*
X86291388Y-67487142D01*
X86291090Y-67567462D01*
X86289136Y-67619026D01*
X86297500Y-67673852D01*
X86323040Y-67691589D01*
X86350253Y-67710240D01*
X86357818Y-67775283D01*
X86362183Y-67832622D01*
X86392597Y-67858977D01*
X86409401Y-67865108D01*
X86424848Y-67902784D01*
X86424548Y-67983103D01*
X86422595Y-68034667D01*
X86430960Y-68089493D01*
X86456499Y-68107230D01*
X86473304Y-68113362D01*
X86488750Y-68151038D01*
X86488451Y-68231358D01*
X86486497Y-68282920D01*
X86494862Y-68337746D01*
X86520402Y-68355485D01*
X86537206Y-68361616D01*
X86552651Y-68399291D01*
X86552353Y-68479611D01*
X86550399Y-68531174D01*
X86558764Y-68586000D01*
X86584304Y-68603738D01*
X86611516Y-68622389D01*
X86619083Y-68687432D01*
X86623446Y-68744771D01*
X86653861Y-68771126D01*
X86670665Y-68777257D01*
X86686111Y-68814932D01*
X86685812Y-68895252D01*
X86683859Y-68946815D01*
X86692223Y-69001641D01*
X86717763Y-69019379D01*
X86734568Y-69025510D01*
X86750013Y-69063187D01*
X86749714Y-69143506D01*
X86747760Y-69195070D01*
X86756125Y-69249895D01*
X86781665Y-69267634D01*
X86808878Y-69286283D01*
X86816443Y-69351327D01*
X86810789Y-69432193D01*
X89438946Y-69615972D01*
X92067102Y-69799750D01*
X92075584Y-69678451D01*
X92080826Y-69627118D01*
X92096740Y-69573990D01*
X92124500Y-69559979D01*
X92141994Y-69556246D01*
X92162533Y-69521086D01*
X92173415Y-69441507D01*
X92178657Y-69390174D01*
X92194570Y-69337046D01*
X92222330Y-69323034D01*
X92251874Y-69308353D01*
X92268418Y-69244996D01*
X92280720Y-69188821D01*
X92314506Y-69166957D01*
X92332000Y-69163224D01*
X92352539Y-69128064D01*
X92363422Y-69048484D01*
X92368663Y-68997151D01*
X92384576Y-68944024D01*
X92412337Y-68930012D01*
X92429831Y-68926279D01*
X92450370Y-68891120D01*
X92461251Y-68811540D01*
X92466494Y-68760207D01*
X92482407Y-68707079D01*
X92510167Y-68693068D01*
X92527662Y-68689335D01*
X92548201Y-68654175D01*
X92559082Y-68574596D01*
X92564324Y-68523262D01*
X92580238Y-68470135D01*
X92607998Y-68456123D01*
X92637542Y-68441441D01*
X92654086Y-68378084D01*
X92666387Y-68321910D01*
X92700174Y-68300046D01*
X92717668Y-68296312D01*
X92738206Y-68261153D01*
X92749089Y-68181573D01*
X92754331Y-68130240D01*
X92770244Y-68077112D01*
X92798004Y-68063101D01*
X92815498Y-68059368D01*
X92836037Y-68024209D01*
X92846920Y-67944629D01*
X92852161Y-67893296D01*
X92868075Y-67840168D01*
X92895835Y-67826157D01*
X92913329Y-67822423D01*
X92933868Y-67787264D01*
X92944750Y-67707685D01*
X92949992Y-67656351D01*
X92965905Y-67603223D01*
X92993665Y-67589212D01*
X93023209Y-67574530D01*
X93039753Y-67511173D01*
X93052055Y-67454999D01*
X93085841Y-67433134D01*
X93103336Y-67429401D01*
X93123874Y-67394242D01*
X93134756Y-67314662D01*
X93139998Y-67263329D01*
X93155911Y-67210201D01*
X93183671Y-67196190D01*
X93201165Y-67192457D01*
X93221705Y-67157298D01*
X93232587Y-67077718D01*
X93241069Y-66956419D01*
X95950092Y-67145852D01*
X98659116Y-67335285D01*
X98650633Y-67456584D01*
X98648680Y-67508148D01*
X98657044Y-67562974D01*
X98682585Y-67580711D01*
X98709797Y-67599362D01*
X98717363Y-67664405D01*
X98721727Y-67721744D01*
X98752141Y-67748099D01*
X98768946Y-67754230D01*
X98784391Y-67791906D01*
X98784092Y-67872225D01*
X98782138Y-67923789D01*
X98790503Y-67978615D01*
X98816043Y-67996353D01*
X98832847Y-68002484D01*
X98848294Y-68040160D01*
X98847994Y-68120480D01*
X98846041Y-68172042D01*
X98854406Y-68226868D01*
X98879945Y-68244607D01*
X98896750Y-68250738D01*
X98912196Y-68288413D01*
X98911897Y-68368733D01*
X98909943Y-68420296D01*
X98918308Y-68475122D01*
X98943848Y-68492860D01*
X98971061Y-68511511D01*
X98978626Y-68576554D01*
X98982990Y-68633893D01*
X99013405Y-68660248D01*
X99030209Y-68666379D01*
X99045655Y-68704054D01*
X99045356Y-68784375D01*
X99043402Y-68835938D01*
X99051766Y-68890763D01*
X99077307Y-68908501D01*
X99094111Y-68914632D01*
X99109557Y-68952309D01*
X99109257Y-69032628D01*
X99107305Y-69084192D01*
X99115669Y-69139017D01*
X99141209Y-69156756D01*
X99168422Y-69175406D01*
X99175987Y-69240450D01*
X99180352Y-69297789D01*
X99210766Y-69324142D01*
X99227570Y-69330275D01*
X99243016Y-69367950D01*
X99242717Y-69448270D01*
X99240763Y-69499833D01*
X99249128Y-69554659D01*
X99274668Y-69572397D01*
X99291472Y-69578528D01*
X99306919Y-69616203D01*
X99306619Y-69696524D01*
X99304666Y-69748086D01*
X99313030Y-69802912D01*
X99338570Y-69820650D01*
X99355375Y-69826782D01*
X99370820Y-69864457D01*
X99370522Y-69944777D01*
X99368568Y-69996341D01*
X99376933Y-70051167D01*
X99402473Y-70068904D01*
X99429685Y-70087555D01*
X99437251Y-70152598D01*
X99441615Y-70209937D01*
X99472030Y-70236292D01*
X99490557Y-70242306D01*
X99509635Y-70279552D01*
X99511601Y-70284689D01*
X99523700Y-70291835D01*
X99549504Y-70299164D01*
X99592105Y-70306941D01*
X99654596Y-70315434D01*
X99740072Y-70324906D01*
X99851626Y-70335625D01*
X99992353Y-70347854D01*
X100165344Y-70361861D01*
X100373693Y-70377912D01*
X100620496Y-70396271D01*
X100908844Y-70417204D01*
X101241832Y-70440978D01*
X101622551Y-70467858D01*
X102054098Y-70498109D01*
X104601389Y-70676233D01*
X104609871Y-70554934D01*
X104615113Y-70503601D01*
X104631026Y-70450472D01*
X104658786Y-70436462D01*
X104676280Y-70432729D01*
X104696819Y-70397569D01*
X104707702Y-70317989D01*
X104712943Y-70266657D01*
X104728856Y-70213528D01*
X104756616Y-70199517D01*
X104786160Y-70184836D01*
X104802704Y-70121479D01*
X104815006Y-70065304D01*
X104848792Y-70043439D01*
X104866287Y-70039707D01*
X104886826Y-70004547D01*
X104897707Y-69924967D01*
X104902949Y-69873634D01*
X104918863Y-69820506D01*
X104946623Y-69806495D01*
X104964117Y-69802762D01*
X104984656Y-69767603D01*
X104995538Y-69688023D01*
X105000780Y-69636690D01*
X105016693Y-69583561D01*
X105044453Y-69569551D01*
X105061947Y-69565818D01*
X105082486Y-69530658D01*
X105093369Y-69451078D01*
X105098610Y-69399745D01*
X105114524Y-69346618D01*
X105142284Y-69332606D01*
X105171827Y-69317924D01*
X105188372Y-69254567D01*
X105200674Y-69198393D01*
X105234460Y-69176529D01*
X105251954Y-69172795D01*
X105272493Y-69137636D01*
X105283375Y-69058056D01*
X105288617Y-69006723D01*
X105304530Y-68953594D01*
X105332290Y-68939584D01*
X105349785Y-68935851D01*
X105370323Y-68900692D01*
X105381205Y-68821111D01*
X105386447Y-68769779D01*
X105402361Y-68716650D01*
X105430121Y-68702640D01*
X105447615Y-68698906D01*
X105468154Y-68663747D01*
X105479036Y-68584167D01*
X105484278Y-68532834D01*
X105500191Y-68479706D01*
X105527951Y-68465695D01*
X105557495Y-68451013D01*
X105574039Y-68387656D01*
X105586341Y-68331482D01*
X105620127Y-68309617D01*
X105637621Y-68305884D01*
X105658160Y-68270725D01*
X105669043Y-68191145D01*
X105674284Y-68139812D01*
X105690198Y-68086683D01*
X105717958Y-68072673D01*
X105735452Y-68068940D01*
X105755991Y-68033781D01*
X105766873Y-67954200D01*
X105775355Y-67832901D01*
X108484378Y-68022335D01*
X111193401Y-68211768D01*
X111184919Y-68333067D01*
X111182965Y-68384630D01*
X111191330Y-68439456D01*
X111216870Y-68457194D01*
X111244083Y-68475845D01*
X111251649Y-68540888D01*
X111256014Y-68598227D01*
X111286427Y-68624582D01*
X111303231Y-68630713D01*
X111318678Y-68668388D01*
X111318378Y-68748708D01*
X111316425Y-68800271D01*
X111324790Y-68855097D01*
X111350330Y-68872835D01*
X111367134Y-68878966D01*
X111382579Y-68916643D01*
X111382281Y-68996962D01*
X111380327Y-69048525D01*
X111388692Y-69103351D01*
X111414232Y-69121090D01*
X111431036Y-69127221D01*
X111446482Y-69164896D01*
X111446183Y-69245216D01*
X111444230Y-69296779D01*
X111452593Y-69351605D01*
X111478134Y-69369343D01*
X111505347Y-69387994D01*
X111512912Y-69453037D01*
X111517277Y-69510376D01*
X111547690Y-69536731D01*
X111564496Y-69542862D01*
X111579941Y-69580537D01*
X111579642Y-69660858D01*
X111577688Y-69712420D01*
X111586053Y-69767246D01*
X111611593Y-69784984D01*
X111628397Y-69791115D01*
X111643843Y-69828791D01*
X111643544Y-69909111D01*
X111641590Y-69960674D01*
X111649955Y-70015500D01*
X111675495Y-70033238D01*
X111702708Y-70051889D01*
X111710274Y-70116932D01*
X111714637Y-70174271D01*
X111745052Y-70200625D01*
X111761856Y-70206757D01*
X111777302Y-70244432D01*
X111777003Y-70324752D01*
X111775050Y-70376316D01*
X111783415Y-70431142D01*
X111808955Y-70448879D01*
X111825759Y-70455011D01*
X111841204Y-70492686D01*
X111840906Y-70573007D01*
X111838952Y-70624569D01*
X111847316Y-70679395D01*
X111872856Y-70697133D01*
X111889661Y-70703265D01*
X111905107Y-70740940D01*
X111904807Y-70821260D01*
X111902853Y-70872823D01*
X111911218Y-70927649D01*
X111936758Y-70945387D01*
X111963972Y-70964038D01*
X111971537Y-71029081D01*
X111975902Y-71086420D01*
X112006315Y-71112775D01*
X112024843Y-71118789D01*
X112043921Y-71156034D01*
X112044021Y-71157024D01*
X112049916Y-71162034D01*
X112066309Y-71167416D01*
X112095267Y-71173325D01*
X112138857Y-71179924D01*
X112199148Y-71187371D01*
X112278206Y-71195824D01*
X112378101Y-71205445D01*
X112500896Y-71216390D01*
X112648663Y-71228820D01*
X112823466Y-71242893D01*
X113027375Y-71258771D01*
X113262457Y-71276610D01*
X113530778Y-71296571D01*
X113834407Y-71318812D01*
X114175411Y-71343493D01*
X114555858Y-71370773D01*
X114977813Y-71400813D01*
X115443347Y-71433769D01*
X115954526Y-71469802D01*
X116513417Y-71509071D01*
X117122088Y-71551735D01*
X117782606Y-71597953D01*
X117921398Y-71607658D01*
X118571197Y-71653052D01*
X119169581Y-71694778D01*
X119718619Y-71732963D01*
X120220379Y-71767739D01*
X120676932Y-71799236D01*
X121090347Y-71827584D01*
X121462693Y-71852912D01*
X121796041Y-71875352D01*
X122092459Y-71895033D01*
X122354017Y-71912085D01*
X122582785Y-71926639D01*
X122780831Y-71938823D01*
X122950227Y-71948769D01*
X123093040Y-71956606D01*
X123211342Y-71962465D01*
X123307201Y-71966475D01*
X123382686Y-71968767D01*
X123439867Y-71969472D01*
X123480814Y-71968717D01*
X123507597Y-71966635D01*
X123522283Y-71963354D01*
X123526945Y-71959006D01*
X123532960Y-71940478D01*
X123570205Y-71921401D01*
X123587700Y-71917667D01*
X123608238Y-71882508D01*
X123619121Y-71802928D01*
X123624362Y-71751595D01*
X123640276Y-71698467D01*
X123668036Y-71684456D01*
X123685530Y-71680723D01*
X123706069Y-71645564D01*
X123716952Y-71565984D01*
X123722193Y-71514651D01*
X123738106Y-71461523D01*
X123765866Y-71447512D01*
X123783361Y-71443778D01*
X123803900Y-71408619D01*
X123814781Y-71329040D01*
X123820023Y-71277706D01*
X123835937Y-71224578D01*
X123863697Y-71210567D01*
X123893241Y-71195885D01*
X123909785Y-71132528D01*
X123922087Y-71076354D01*
X123955873Y-71054489D01*
X123973367Y-71050756D01*
X123993906Y-71015597D01*
X124004788Y-70936017D01*
X124010030Y-70884684D01*
X124025943Y-70831556D01*
X124053703Y-70817545D01*
X124071197Y-70813812D01*
X124091736Y-70778653D01*
X124102619Y-70699073D01*
X124107860Y-70647740D01*
X124123774Y-70594612D01*
X124151534Y-70580600D01*
X124169028Y-70576867D01*
X124189567Y-70541708D01*
X124200449Y-70462129D01*
X124205691Y-70410795D01*
X124221605Y-70357667D01*
X124249365Y-70343656D01*
X124278908Y-70328974D01*
X124295453Y-70265617D01*
X124307754Y-70209443D01*
X124341540Y-70187578D01*
X124359035Y-70183845D01*
X124379573Y-70148686D01*
X124390455Y-70069106D01*
X124395697Y-70017773D01*
X124411610Y-69964645D01*
X124439370Y-69950634D01*
X124456864Y-69946901D01*
X124477404Y-69911741D01*
X124488286Y-69832162D01*
X124493527Y-69780828D01*
X124509441Y-69727701D01*
X124537201Y-69713689D01*
X124566745Y-69699008D01*
X124583289Y-69635650D01*
X124595591Y-69579476D01*
X124629377Y-69557612D01*
X124646871Y-69553878D01*
X124667410Y-69518719D01*
X124678292Y-69439139D01*
X124683534Y-69387806D01*
X124699448Y-69334678D01*
X124727208Y-69320667D01*
X124756751Y-69305985D01*
X124773296Y-69242628D01*
X124778951Y-69161762D01*
X127447540Y-69348368D01*
X127478611Y-69350541D01*
X127917417Y-69381306D01*
X128305528Y-69408702D01*
X128645968Y-69432986D01*
X128941758Y-69454417D01*
X129195923Y-69473249D01*
X129411486Y-69489744D01*
X129591471Y-69504156D01*
X129738899Y-69516744D01*
X129856797Y-69527765D01*
X129948184Y-69537477D01*
X130016086Y-69546137D01*
X130063526Y-69554002D01*
X130093526Y-69561331D01*
X130109111Y-69568380D01*
X130113302Y-69575406D01*
X130116680Y-69594592D01*
X130150908Y-69618667D01*
X130167713Y-69624799D01*
X130183159Y-69662475D01*
X130182859Y-69742794D01*
X130180906Y-69794358D01*
X130189271Y-69849184D01*
X130214811Y-69866921D01*
X130242024Y-69885572D01*
X130249589Y-69950615D01*
X130253954Y-70007954D01*
X130284368Y-70034308D01*
X130301172Y-70040440D01*
X130316618Y-70078116D01*
X130316319Y-70158435D01*
X130314365Y-70209999D01*
X130322730Y-70264825D01*
X130348270Y-70282563D01*
X130365074Y-70288694D01*
X130380520Y-70326369D01*
X130380221Y-70406690D01*
X130378268Y-70458252D01*
X130386633Y-70513078D01*
X130412172Y-70530816D01*
X130428977Y-70536948D01*
X130444422Y-70574623D01*
X130444124Y-70654943D01*
X130442170Y-70706506D01*
X130450534Y-70761332D01*
X130476075Y-70779070D01*
X130503287Y-70797721D01*
X130510852Y-70862764D01*
X130515217Y-70920103D01*
X130545631Y-70946458D01*
X130562436Y-70952589D01*
X130577882Y-70990264D01*
X130577582Y-71070584D01*
X130575628Y-71122147D01*
X130583993Y-71176974D01*
X130609533Y-71194711D01*
X130626337Y-71200842D01*
X130641784Y-71238519D01*
X130641484Y-71318838D01*
X130639531Y-71370401D01*
X130647896Y-71425227D01*
X130673436Y-71442966D01*
X130690240Y-71449097D01*
X130705685Y-71486772D01*
X130705387Y-71567092D01*
X130703433Y-71618655D01*
X130711798Y-71673481D01*
X130737338Y-71691219D01*
X130764550Y-71709870D01*
X130772116Y-71774913D01*
X130776480Y-71832252D01*
X130806895Y-71858607D01*
X130823699Y-71864738D01*
X130839145Y-71902413D01*
X130838846Y-71982733D01*
X130836893Y-72034296D01*
X130845256Y-72089122D01*
X130870797Y-72106860D01*
X130887602Y-72112991D01*
X130903047Y-72150667D01*
X130902747Y-72230987D01*
X130900794Y-72282551D01*
X130909159Y-72337376D01*
X130934699Y-72355114D01*
X130961912Y-72373764D01*
X130969477Y-72438808D01*
X130963823Y-72519674D01*
X133591980Y-72703453D01*
X136220136Y-72887231D01*
X136228618Y-72765932D01*
X136233860Y-72714599D01*
X136249774Y-72661471D01*
X136277534Y-72647460D01*
X136295028Y-72643727D01*
X136315567Y-72608567D01*
X136326449Y-72528987D01*
X136331690Y-72477655D01*
X136347604Y-72424527D01*
X136375364Y-72410515D01*
X136404908Y-72395834D01*
X136421452Y-72332477D01*
X136433754Y-72276302D01*
X136467540Y-72254438D01*
X136485034Y-72250705D01*
X136505573Y-72215545D01*
X136516456Y-72135965D01*
X136521697Y-72084632D01*
X136537610Y-72031504D01*
X136565371Y-72017493D01*
X136582865Y-72013760D01*
X136603404Y-71978601D01*
X136614285Y-71899021D01*
X136619528Y-71847688D01*
X136635441Y-71794560D01*
X136663201Y-71780549D01*
X136680696Y-71776816D01*
X136701234Y-71741656D01*
X136712116Y-71662076D01*
X136717358Y-71610743D01*
X136733271Y-71557616D01*
X136761031Y-71543604D01*
X136790576Y-71528922D01*
X136807119Y-71465565D01*
X136819422Y-71409391D01*
X136853207Y-71387527D01*
X136870701Y-71383793D01*
X136891241Y-71348634D01*
X136902123Y-71269054D01*
X136907364Y-71217721D01*
X136923278Y-71164593D01*
X136951038Y-71150582D01*
X136968532Y-71146849D01*
X136989071Y-71111690D01*
X136999953Y-71032109D01*
X137005195Y-70980777D01*
X137021109Y-70927649D01*
X137048869Y-70913638D01*
X137066363Y-70909904D01*
X137086901Y-70874745D01*
X137097784Y-70795166D01*
X137103026Y-70743832D01*
X137118939Y-70690704D01*
X137146700Y-70676693D01*
X137176243Y-70662011D01*
X137192787Y-70598654D01*
X137205089Y-70542480D01*
X137238875Y-70520615D01*
X137256370Y-70516882D01*
X137276908Y-70481723D01*
X137287790Y-70402143D01*
X137293031Y-70350810D01*
X137308945Y-70297682D01*
X137336705Y-70283671D01*
X137354199Y-70279938D01*
X137374739Y-70244779D01*
X137385621Y-70165198D01*
X137394103Y-70043900D01*
X140103125Y-70233333D01*
X142812149Y-70422766D01*
X142803667Y-70544065D01*
X142801714Y-70595629D01*
X142810079Y-70650455D01*
X142835618Y-70668192D01*
X142862831Y-70686843D01*
X142870397Y-70751886D01*
X142874761Y-70809225D01*
X142905174Y-70835580D01*
X142921980Y-70841711D01*
X142937425Y-70879386D01*
X142937126Y-70959706D01*
X142935172Y-71011270D01*
X142943537Y-71066096D01*
X142969077Y-71083833D01*
X142985882Y-71089965D01*
X143001328Y-71127641D01*
X143001028Y-71207961D01*
X142999074Y-71259523D01*
X143007439Y-71314349D01*
X143032979Y-71332088D01*
X143049783Y-71338219D01*
X143065230Y-71375894D01*
X143064930Y-71456214D01*
X143062977Y-71507777D01*
X143071342Y-71562603D01*
X143096882Y-71580341D01*
X143124095Y-71598992D01*
X143131660Y-71664035D01*
X143136024Y-71721374D01*
X143166439Y-71747729D01*
X143183243Y-71753860D01*
X143198688Y-71791535D01*
X143198390Y-71871856D01*
X143196436Y-71923418D01*
X143204801Y-71978244D01*
X143230341Y-71995982D01*
X143247145Y-72002113D01*
X143262591Y-72039790D01*
X143262292Y-72120109D01*
X143260339Y-72171673D01*
X143268703Y-72226498D01*
X143294242Y-72244237D01*
X143321456Y-72262887D01*
X143329021Y-72327930D01*
X143333386Y-72385270D01*
X143363799Y-72411623D01*
X143380604Y-72417755D01*
X143396050Y-72455431D01*
X143395751Y-72535750D01*
X143393797Y-72587314D01*
X143402162Y-72642140D01*
X143427702Y-72659878D01*
X143444506Y-72666009D01*
X143459953Y-72703684D01*
X143459653Y-72784005D01*
X143457699Y-72835567D01*
X143466064Y-72890393D01*
X143491604Y-72908131D01*
X143508408Y-72914263D01*
X143523854Y-72951938D01*
X143523555Y-73032258D01*
X143521602Y-73083821D01*
X143529967Y-73138648D01*
X143555506Y-73156385D01*
X143582719Y-73175036D01*
X143590285Y-73240079D01*
X143594649Y-73297418D01*
X143625064Y-73323773D01*
X143643591Y-73329787D01*
X143662669Y-73367033D01*
X143666401Y-73370823D01*
X143679553Y-73375151D01*
X143703723Y-73380037D01*
X143740502Y-73385600D01*
X143791476Y-73391958D01*
X143858235Y-73399226D01*
X143942367Y-73407525D01*
X144045461Y-73416972D01*
X144169106Y-73427683D01*
X144314891Y-73439777D01*
X144484403Y-73453370D01*
X144679232Y-73468584D01*
X144900967Y-73485533D01*
X145151196Y-73504335D01*
X145431507Y-73525109D01*
X145743491Y-73547971D01*
X146088735Y-73573041D01*
X146468827Y-73600435D01*
X146885357Y-73630272D01*
X147339914Y-73662668D01*
X147834085Y-73697743D01*
X148369460Y-73735613D01*
X148947628Y-73776395D01*
X149570176Y-73820209D01*
X150238694Y-73867171D01*
X150954771Y-73917400D01*
X151719994Y-73971013D01*
X152535954Y-74028127D01*
X153404238Y-74088861D01*
X154250725Y-74148070D01*
X155068018Y-74205277D01*
X155834535Y-74258978D01*
X156551863Y-74309293D01*
X157221592Y-74356338D01*
X157845309Y-74400232D01*
X158424605Y-74441092D01*
X158961067Y-74479035D01*
X159456284Y-74514180D01*
X159911846Y-74546644D01*
X160329339Y-74576546D01*
X160710354Y-74604002D01*
X161056479Y-74629130D01*
X161369304Y-74652049D01*
X161650415Y-74672875D01*
X161901402Y-74691727D01*
X162123853Y-74708722D01*
X162319360Y-74723978D01*
X162489507Y-74737613D01*
X162635885Y-74749745D01*
X162760082Y-74760490D01*
X162863688Y-74769968D01*
X162948291Y-74778294D01*
X163015480Y-74785588D01*
X163066842Y-74791967D01*
X163103967Y-74797550D01*
X163128444Y-74802452D01*
X163141861Y-74806793D01*
X163145807Y-74810688D01*
X163145794Y-74810816D01*
X163141046Y-74814090D01*
X163126808Y-74816482D01*
X163101491Y-74817891D01*
X163063510Y-74818209D01*
X163011279Y-74817333D01*
X162943211Y-74815160D01*
X162857720Y-74811584D01*
X162753219Y-74806501D01*
X162628123Y-74799807D01*
X162480845Y-74791397D01*
X162309798Y-74781167D01*
X162113396Y-74769015D01*
X161890054Y-74754832D01*
X161638184Y-74738517D01*
X161356201Y-74719966D01*
X161042518Y-74699071D01*
X160695547Y-74675732D01*
X160313705Y-74649843D01*
X159895403Y-74621298D01*
X159439056Y-74589995D01*
X158943079Y-74555829D01*
X158405881Y-74518695D01*
X157825881Y-74478489D01*
X157201489Y-74435107D01*
X156531120Y-74388444D01*
X155813189Y-74338396D01*
X155046108Y-74284859D01*
X154228290Y-74227729D01*
X153358150Y-74166900D01*
X153327274Y-74164741D01*
X152458965Y-74104005D01*
X151642931Y-74046884D01*
X150877585Y-73993261D01*
X150161340Y-73943019D01*
X149492613Y-73896042D01*
X148869817Y-73852209D01*
X148291367Y-73811406D01*
X147755678Y-73773514D01*
X147261164Y-73738415D01*
X146806239Y-73705993D01*
X146389320Y-73676129D01*
X146008819Y-73648706D01*
X145663152Y-73623608D01*
X145350733Y-73600716D01*
X145069977Y-73579913D01*
X144819298Y-73561082D01*
X144597111Y-73544104D01*
X144401830Y-73528863D01*
X144231870Y-73515242D01*
X144085647Y-73503123D01*
X143961573Y-73492387D01*
X143858066Y-73482918D01*
X143773536Y-73474599D01*
X143706401Y-73467312D01*
X143655075Y-73460940D01*
X143617972Y-73455364D01*
X143593507Y-73450467D01*
X143580093Y-73446134D01*
X143576148Y-73442245D01*
X143572770Y-73423060D01*
X143538542Y-73398984D01*
X143511329Y-73380334D01*
X143503764Y-73315291D01*
X143499399Y-73257951D01*
X143468985Y-73231597D01*
X143452181Y-73225466D01*
X143436734Y-73187790D01*
X143437034Y-73107470D01*
X143438988Y-73055907D01*
X143430623Y-73001082D01*
X143405083Y-72983343D01*
X143388279Y-72977212D01*
X143372833Y-72939536D01*
X143373132Y-72859216D01*
X143375085Y-72807653D01*
X143366720Y-72752827D01*
X143341180Y-72735089D01*
X143313968Y-72716439D01*
X143306402Y-72651396D01*
X143302038Y-72594056D01*
X143271623Y-72567702D01*
X143254819Y-72561570D01*
X143239374Y-72523895D01*
X143239673Y-72443575D01*
X143241626Y-72392012D01*
X143233262Y-72337186D01*
X143207722Y-72319448D01*
X143190917Y-72313316D01*
X143175471Y-72275641D01*
X143175771Y-72195321D01*
X143177725Y-72143758D01*
X143169360Y-72088932D01*
X143143820Y-72071194D01*
X143127015Y-72065063D01*
X143111569Y-72027388D01*
X143111869Y-71947067D01*
X143113822Y-71895505D01*
X143105457Y-71840678D01*
X143079917Y-71822941D01*
X143052704Y-71804290D01*
X143045139Y-71739247D01*
X143040775Y-71681908D01*
X143010360Y-71655553D01*
X142993556Y-71649422D01*
X142978111Y-71611747D01*
X142978409Y-71531426D01*
X142980363Y-71479863D01*
X142971998Y-71425037D01*
X142946458Y-71407299D01*
X142929654Y-71401167D01*
X142914208Y-71363492D01*
X142914507Y-71283172D01*
X142916460Y-71231609D01*
X142908096Y-71176783D01*
X142882556Y-71159045D01*
X142865751Y-71152914D01*
X142850306Y-71115239D01*
X142850605Y-71034918D01*
X142852558Y-70983356D01*
X142844194Y-70928530D01*
X142818654Y-70910791D01*
X142791441Y-70892141D01*
X142783876Y-70827098D01*
X142779511Y-70769758D01*
X142749097Y-70743404D01*
X142732293Y-70737273D01*
X142716846Y-70699597D01*
X142717146Y-70619277D01*
X142725628Y-70497977D01*
X140097471Y-70314199D01*
X137469314Y-70130420D01*
X137460832Y-70251720D01*
X137455591Y-70303053D01*
X137439677Y-70356181D01*
X137411917Y-70370192D01*
X137394423Y-70373925D01*
X137373884Y-70409084D01*
X137363002Y-70488665D01*
X137357760Y-70539997D01*
X137341846Y-70593125D01*
X137314086Y-70607136D01*
X137296592Y-70610870D01*
X137276054Y-70646029D01*
X137265171Y-70725608D01*
X137259929Y-70776942D01*
X137244017Y-70830069D01*
X137216256Y-70844081D01*
X137186712Y-70858763D01*
X137170168Y-70922120D01*
X137157866Y-70978294D01*
X137124081Y-71000158D01*
X137106586Y-71003892D01*
X137086047Y-71039051D01*
X137075165Y-71118631D01*
X137069924Y-71169964D01*
X137054010Y-71223092D01*
X137026250Y-71237103D01*
X137008756Y-71240836D01*
X136988216Y-71275995D01*
X136977335Y-71355576D01*
X136972093Y-71406908D01*
X136956179Y-71460036D01*
X136928419Y-71474047D01*
X136898875Y-71488729D01*
X136882331Y-71552086D01*
X136870030Y-71608261D01*
X136836243Y-71630125D01*
X136818749Y-71633858D01*
X136798211Y-71669018D01*
X136787328Y-71748598D01*
X136782086Y-71799930D01*
X136766172Y-71853058D01*
X136738412Y-71867070D01*
X136720918Y-71870803D01*
X136700380Y-71905962D01*
X136689497Y-71985542D01*
X136684256Y-72036875D01*
X136668343Y-72090003D01*
X136640582Y-72104014D01*
X136623088Y-72107747D01*
X136602549Y-72142906D01*
X136591666Y-72222486D01*
X136586425Y-72273819D01*
X136570512Y-72326947D01*
X136542752Y-72340959D01*
X136513208Y-72355640D01*
X136496664Y-72418997D01*
X136484362Y-72475172D01*
X136450576Y-72497036D01*
X136433082Y-72500769D01*
X136412542Y-72535929D01*
X136401661Y-72615509D01*
X136396419Y-72666842D01*
X136380505Y-72719969D01*
X136352745Y-72733981D01*
X136335251Y-72737714D01*
X136314712Y-72772873D01*
X136303830Y-72852453D01*
X136295348Y-72973752D01*
X133586325Y-72784319D01*
X130877301Y-72594886D01*
X130882956Y-72514019D01*
X130878592Y-72456680D01*
X130848178Y-72430326D01*
X130831373Y-72424194D01*
X130815928Y-72386519D01*
X130816227Y-72306199D01*
X130818181Y-72254636D01*
X130809816Y-72199810D01*
X130784276Y-72182072D01*
X130767471Y-72175941D01*
X130752025Y-72138266D01*
X130752325Y-72057945D01*
X130754278Y-72006382D01*
X130745914Y-71951556D01*
X130720374Y-71933819D01*
X130693160Y-71915168D01*
X130685595Y-71850125D01*
X130681231Y-71792785D01*
X130650817Y-71766431D01*
X130634012Y-71760300D01*
X130618567Y-71722623D01*
X130618865Y-71642304D01*
X130620819Y-71590741D01*
X130612454Y-71535915D01*
X130586914Y-71518176D01*
X130570110Y-71512045D01*
X130554665Y-71474370D01*
X130554963Y-71394050D01*
X130556917Y-71342487D01*
X130548552Y-71287661D01*
X130523012Y-71269923D01*
X130495800Y-71251272D01*
X130488233Y-71186229D01*
X130483870Y-71128890D01*
X130453456Y-71102535D01*
X130436651Y-71096404D01*
X130421205Y-71058729D01*
X130421505Y-70978409D01*
X130423458Y-70926846D01*
X130415093Y-70872020D01*
X130389553Y-70854282D01*
X130372748Y-70848151D01*
X130357303Y-70810475D01*
X130357602Y-70730155D01*
X130359556Y-70678592D01*
X130351191Y-70623766D01*
X130325651Y-70606028D01*
X130308847Y-70599897D01*
X130293400Y-70562221D01*
X130293700Y-70481902D01*
X130295654Y-70430338D01*
X130287289Y-70375512D01*
X130261749Y-70357774D01*
X130234535Y-70339124D01*
X130226970Y-70274080D01*
X130222606Y-70216741D01*
X130192192Y-70190387D01*
X130175387Y-70184255D01*
X130159942Y-70146580D01*
X130160241Y-70066259D01*
X130162194Y-70014697D01*
X130153829Y-69959871D01*
X130128289Y-69942133D01*
X130111485Y-69936001D01*
X130096040Y-69898326D01*
X130096338Y-69818006D01*
X130098292Y-69766443D01*
X130089928Y-69711617D01*
X130064388Y-69693879D01*
X130045859Y-69687864D01*
X130026782Y-69650618D01*
X130024000Y-69644680D01*
X130010472Y-69637569D01*
X129982928Y-69630236D01*
X129938300Y-69622418D01*
X129873517Y-69613853D01*
X129785510Y-69604277D01*
X129671209Y-69593428D01*
X129527546Y-69581041D01*
X129351450Y-69566856D01*
X129139851Y-69550608D01*
X128889680Y-69532035D01*
X128597867Y-69510874D01*
X128261344Y-69486863D01*
X127877040Y-69459737D01*
X127441885Y-69429234D01*
X124854162Y-69248283D01*
X124848508Y-69329149D01*
X124836205Y-69385323D01*
X124802420Y-69407188D01*
X124784925Y-69410921D01*
X124764386Y-69446080D01*
X124753504Y-69525661D01*
X124748263Y-69576993D01*
X124732349Y-69630121D01*
X124704589Y-69644132D01*
X124675045Y-69658814D01*
X124658501Y-69722171D01*
X124646198Y-69778346D01*
X124612413Y-69800210D01*
X124594919Y-69803943D01*
X124574379Y-69839103D01*
X124563498Y-69918683D01*
X124558256Y-69970015D01*
X124542342Y-70023144D01*
X124514582Y-70037155D01*
X124497088Y-70040888D01*
X124476550Y-70076047D01*
X124465667Y-70155627D01*
X124460425Y-70206960D01*
X124444511Y-70260088D01*
X124416752Y-70274099D01*
X124399258Y-70277832D01*
X124378719Y-70312992D01*
X124367836Y-70392572D01*
X124362595Y-70443904D01*
X124346682Y-70497032D01*
X124318921Y-70511044D01*
X124289378Y-70525725D01*
X124272834Y-70589082D01*
X124260531Y-70645257D01*
X124226746Y-70667121D01*
X124209251Y-70670854D01*
X124188712Y-70706014D01*
X124177830Y-70785594D01*
X124172589Y-70836927D01*
X124156675Y-70890055D01*
X124128915Y-70904066D01*
X124111421Y-70907799D01*
X124090882Y-70942958D01*
X124080000Y-71022539D01*
X124074758Y-71073871D01*
X124058844Y-71126999D01*
X124031084Y-71141010D01*
X124013590Y-71144743D01*
X123993051Y-71179903D01*
X123982169Y-71259483D01*
X123976927Y-71310816D01*
X123961014Y-71363943D01*
X123933254Y-71377955D01*
X123903711Y-71392637D01*
X123887166Y-71455994D01*
X123874864Y-71512168D01*
X123841078Y-71534032D01*
X123823584Y-71537766D01*
X123803045Y-71572925D01*
X123792162Y-71652505D01*
X123786921Y-71703838D01*
X123771008Y-71756967D01*
X123743247Y-71770977D01*
X123725753Y-71774710D01*
X123705214Y-71809869D01*
X123694333Y-71889450D01*
X123689090Y-71940782D01*
X123673177Y-71993910D01*
X123645417Y-72007921D01*
X123626232Y-72011299D01*
X123602157Y-72045527D01*
X123601501Y-72047198D01*
X123593474Y-72051148D01*
X123574697Y-72053989D01*
X123543117Y-72055593D01*
X123496677Y-72055829D01*
X123433323Y-72054569D01*
X123350998Y-72051683D01*
X123247649Y-72047042D01*
X123121221Y-72040515D01*
X122969656Y-72031976D01*
X122790903Y-72021293D01*
X122582903Y-72008337D01*
X122343603Y-71992979D01*
X122070948Y-71975089D01*
X121762882Y-71954539D01*
X121417351Y-71931198D01*
X121032298Y-71904938D01*
X120605669Y-71875629D01*
X120135409Y-71843141D01*
X119619462Y-71807346D01*
X119055773Y-71768114D01*
X118442288Y-71725315D01*
X117776951Y-71678820D01*
X117530866Y-71661608D01*
X116884476Y-71616355D01*
X116289207Y-71574600D01*
X115743005Y-71536188D01*
X115243818Y-71500958D01*
X114789594Y-71468756D01*
X114378278Y-71439420D01*
X114007816Y-71412795D01*
X113676158Y-71388722D01*
X113381248Y-71367044D01*
X113121033Y-71347601D01*
X112893462Y-71330237D01*
X112696480Y-71314793D01*
X112528035Y-71301113D01*
X112386074Y-71289037D01*
X112268542Y-71278407D01*
X112173387Y-71269066D01*
X112098556Y-71260857D01*
X112041996Y-71253620D01*
X112001654Y-71247199D01*
X111975475Y-71241435D01*
X111961409Y-71236170D01*
X111957400Y-71231246D01*
X111954022Y-71212062D01*
X111919794Y-71187986D01*
X111892582Y-71169336D01*
X111885015Y-71104293D01*
X111880652Y-71046953D01*
X111850237Y-71020599D01*
X111833433Y-71014468D01*
X111817987Y-70976792D01*
X111818287Y-70896472D01*
X111820240Y-70844908D01*
X111811875Y-70790083D01*
X111786336Y-70772345D01*
X111769530Y-70766213D01*
X111754085Y-70728538D01*
X111754384Y-70648217D01*
X111756338Y-70596655D01*
X111747973Y-70541829D01*
X111722433Y-70524091D01*
X111695220Y-70505441D01*
X111687655Y-70440397D01*
X111683291Y-70383058D01*
X111652876Y-70356703D01*
X111636072Y-70350572D01*
X111620626Y-70312897D01*
X111620925Y-70232576D01*
X111622879Y-70181014D01*
X111614514Y-70126188D01*
X111588974Y-70108450D01*
X111572170Y-70102318D01*
X111556724Y-70064643D01*
X111557023Y-69984323D01*
X111558976Y-69932760D01*
X111550611Y-69877934D01*
X111525071Y-69860196D01*
X111508267Y-69854065D01*
X111492822Y-69816389D01*
X111493120Y-69736069D01*
X111495074Y-69684506D01*
X111486710Y-69629680D01*
X111461170Y-69611942D01*
X111433957Y-69593292D01*
X111426392Y-69528249D01*
X111422027Y-69470909D01*
X111391613Y-69444555D01*
X111374808Y-69438423D01*
X111359362Y-69400748D01*
X111359662Y-69320428D01*
X111361615Y-69268865D01*
X111353251Y-69214039D01*
X111327711Y-69196300D01*
X111310906Y-69190169D01*
X111295460Y-69152494D01*
X111295760Y-69072174D01*
X111297713Y-69020611D01*
X111289348Y-68965785D01*
X111263808Y-68948047D01*
X111247004Y-68941916D01*
X111231559Y-68904241D01*
X111231857Y-68823920D01*
X111233811Y-68772358D01*
X111225446Y-68717531D01*
X111199906Y-68699793D01*
X111172694Y-68681143D01*
X111165127Y-68616100D01*
X111160764Y-68558760D01*
X111130349Y-68532406D01*
X111113545Y-68526275D01*
X111098099Y-68488599D01*
X111098398Y-68408279D01*
X111106880Y-68286979D01*
X108478724Y-68103200D01*
X105850567Y-67919422D01*
X105842085Y-68040722D01*
X105836843Y-68092055D01*
X105820930Y-68145183D01*
X105793170Y-68159194D01*
X105775675Y-68162927D01*
X105755136Y-68198086D01*
X105744254Y-68277666D01*
X105739013Y-68328999D01*
X105723099Y-68382127D01*
X105695339Y-68396138D01*
X105677845Y-68399872D01*
X105657305Y-68435030D01*
X105646424Y-68514610D01*
X105641182Y-68565944D01*
X105625268Y-68619071D01*
X105597508Y-68633083D01*
X105567964Y-68647765D01*
X105551420Y-68711122D01*
X105539119Y-68767296D01*
X105505332Y-68789160D01*
X105487838Y-68792894D01*
X105467300Y-68828053D01*
X105456417Y-68907632D01*
X105451175Y-68958966D01*
X105435262Y-69012094D01*
X105407502Y-69026105D01*
X105390008Y-69029838D01*
X105369469Y-69064997D01*
X105358586Y-69144577D01*
X105353345Y-69195910D01*
X105337432Y-69249038D01*
X105309671Y-69263049D01*
X105280128Y-69277731D01*
X105263584Y-69341088D01*
X105251281Y-69397263D01*
X105217496Y-69419127D01*
X105200001Y-69422860D01*
X105179462Y-69458020D01*
X105168581Y-69537600D01*
X105163339Y-69588932D01*
X105147425Y-69642060D01*
X105119665Y-69656072D01*
X105102171Y-69659805D01*
X105081632Y-69694964D01*
X105070750Y-69774543D01*
X105065508Y-69825877D01*
X105049594Y-69879005D01*
X105021835Y-69893016D01*
X105004341Y-69896749D01*
X104983801Y-69931907D01*
X104972919Y-70011488D01*
X104967678Y-70062821D01*
X104951764Y-70115949D01*
X104924004Y-70129961D01*
X104894461Y-70144642D01*
X104877916Y-70207999D01*
X104865614Y-70264174D01*
X104831828Y-70286038D01*
X104814334Y-70289771D01*
X104793795Y-70324931D01*
X104782912Y-70404510D01*
X104777671Y-70455844D01*
X104761758Y-70508971D01*
X104733997Y-70522983D01*
X104716503Y-70526716D01*
X104695964Y-70561875D01*
X104685083Y-70641454D01*
X104676601Y-70762754D01*
X102048443Y-70578976D01*
X101630439Y-70549682D01*
X101240103Y-70522148D01*
X100897748Y-70497750D01*
X100600326Y-70476226D01*
X100344793Y-70457316D01*
X100128100Y-70440759D01*
X99947203Y-70426297D01*
X99799055Y-70413669D01*
X99680610Y-70402615D01*
X99588821Y-70392874D01*
X99520643Y-70384186D01*
X99473029Y-70376291D01*
X99442935Y-70368930D01*
X99427311Y-70361841D01*
X99423114Y-70354764D01*
X99419736Y-70335579D01*
X99385509Y-70311503D01*
X99358295Y-70292853D01*
X99350730Y-70227810D01*
X99346365Y-70170470D01*
X99315951Y-70144116D01*
X99299147Y-70137985D01*
X99283701Y-70100309D01*
X99284000Y-70019989D01*
X99285954Y-69968426D01*
X99277589Y-69913601D01*
X99252049Y-69895862D01*
X99235245Y-69889731D01*
X99219799Y-69852056D01*
X99220098Y-69771735D01*
X99222051Y-69720172D01*
X99213687Y-69665346D01*
X99188147Y-69647609D01*
X99160934Y-69628958D01*
X99153368Y-69563915D01*
X99149004Y-69506576D01*
X99118590Y-69480221D01*
X99101785Y-69474090D01*
X99086340Y-69436414D01*
X99086638Y-69356094D01*
X99088592Y-69304531D01*
X99080228Y-69249705D01*
X99054688Y-69231967D01*
X99037883Y-69225835D01*
X99022438Y-69188160D01*
X99022737Y-69107840D01*
X99024691Y-69056277D01*
X99016326Y-69001451D01*
X98990786Y-68983713D01*
X98973982Y-68977582D01*
X98958535Y-68939907D01*
X98958835Y-68859586D01*
X98960788Y-68808024D01*
X98952423Y-68753198D01*
X98926884Y-68735460D01*
X98899670Y-68716809D01*
X98892105Y-68651766D01*
X98887741Y-68594427D01*
X98857327Y-68568072D01*
X98840522Y-68561941D01*
X98825077Y-68524266D01*
X98825375Y-68443945D01*
X98827329Y-68392382D01*
X98818964Y-68337556D01*
X98793424Y-68319818D01*
X98776620Y-68313687D01*
X98761174Y-68276011D01*
X98761473Y-68195691D01*
X98763427Y-68144128D01*
X98755063Y-68089302D01*
X98729522Y-68071564D01*
X98712718Y-68065433D01*
X98697272Y-68027758D01*
X98697572Y-67947437D01*
X98699524Y-67895875D01*
X98691160Y-67841049D01*
X98665620Y-67823310D01*
X98638407Y-67804660D01*
X98630842Y-67739617D01*
X98626477Y-67682277D01*
X98596063Y-67655923D01*
X98579259Y-67649792D01*
X98563813Y-67612116D01*
X98564112Y-67531796D01*
X98572594Y-67410496D01*
X95944437Y-67226718D01*
X93316281Y-67042939D01*
X93307799Y-67164239D01*
X93302557Y-67215572D01*
X93286643Y-67268701D01*
X93258883Y-67282711D01*
X93241389Y-67286444D01*
X93220851Y-67321603D01*
X93209968Y-67401184D01*
X93204726Y-67452516D01*
X93188812Y-67505644D01*
X93161053Y-67519655D01*
X93143558Y-67523389D01*
X93123020Y-67558548D01*
X93112137Y-67638128D01*
X93106896Y-67689461D01*
X93090982Y-67742588D01*
X93063222Y-67756600D01*
X93033679Y-67771282D01*
X93017134Y-67834639D01*
X93004832Y-67890813D01*
X92971046Y-67912677D01*
X92953552Y-67916411D01*
X92933013Y-67951570D01*
X92922131Y-68031150D01*
X92916890Y-68082483D01*
X92900976Y-68135612D01*
X92873216Y-68149622D01*
X92855721Y-68153355D01*
X92835182Y-68188514D01*
X92824301Y-68268095D01*
X92819059Y-68319427D01*
X92803145Y-68372555D01*
X92775385Y-68386566D01*
X92745841Y-68401248D01*
X92729297Y-68464605D01*
X92716996Y-68520780D01*
X92683209Y-68542644D01*
X92665715Y-68546377D01*
X92645177Y-68581537D01*
X92634294Y-68661117D01*
X92629052Y-68712449D01*
X92613139Y-68765578D01*
X92585379Y-68779589D01*
X92567885Y-68783322D01*
X92547346Y-68818481D01*
X92536463Y-68898061D01*
X92531222Y-68949394D01*
X92515308Y-69002522D01*
X92487548Y-69016533D01*
X92470054Y-69020266D01*
X92449515Y-69055425D01*
X92438633Y-69135006D01*
X92433391Y-69186338D01*
X92417478Y-69239466D01*
X92389718Y-69253478D01*
X92360174Y-69268159D01*
X92343630Y-69331516D01*
X92331328Y-69387691D01*
X92297542Y-69409555D01*
X92280047Y-69413288D01*
X92259509Y-69448448D01*
X92248627Y-69528028D01*
X92243385Y-69579361D01*
X92227472Y-69632489D01*
X92199712Y-69646500D01*
X92182218Y-69650233D01*
X92161678Y-69685392D01*
X92150796Y-69764972D01*
X92142314Y-69886271D01*
X89433291Y-69696838D01*
X86724267Y-69507405D01*
X86729922Y-69426538D01*
X86725558Y-69369199D01*
X86695144Y-69342845D01*
X86678339Y-69336713D01*
X86662894Y-69299038D01*
X86663193Y-69218718D01*
X86665146Y-69167155D01*
X86656782Y-69112329D01*
X86631242Y-69094591D01*
X86614437Y-69088460D01*
X86598991Y-69050785D01*
X86599291Y-68970464D01*
X86601245Y-68918902D01*
X86592880Y-68864075D01*
X86567340Y-68846338D01*
X86540127Y-68827687D01*
X86532561Y-68762644D01*
X86528197Y-68705304D01*
X86497783Y-68678950D01*
X86480979Y-68672819D01*
X86465532Y-68635142D01*
X86465832Y-68554823D01*
X86467785Y-68503260D01*
X86459420Y-68448434D01*
X86433881Y-68430696D01*
X86417076Y-68424564D01*
X86401631Y-68386889D01*
X86401929Y-68306569D01*
X86403883Y-68255006D01*
X86395518Y-68200180D01*
X86369978Y-68182442D01*
X86342766Y-68163792D01*
X86335200Y-68098748D01*
X86330836Y-68041409D01*
X86300421Y-68015054D01*
X86283617Y-68008923D01*
X86268171Y-67971248D01*
X86268471Y-67890928D01*
X86270423Y-67839365D01*
X86262060Y-67784539D01*
X86236520Y-67766801D01*
X86219714Y-67760670D01*
X86204269Y-67722994D01*
X86204569Y-67642674D01*
X86206522Y-67591111D01*
X86198157Y-67536286D01*
X86172617Y-67518547D01*
X86155813Y-67512416D01*
X86140367Y-67474740D01*
X86140666Y-67394421D01*
X86142620Y-67342857D01*
X86134255Y-67288031D01*
X86108715Y-67270293D01*
X86081502Y-67251643D01*
X86073936Y-67186600D01*
X86069573Y-67129261D01*
X86039158Y-67102906D01*
X86022354Y-67096775D01*
X86006908Y-67059099D01*
X86007207Y-66978779D01*
X86009160Y-66927216D01*
X86000795Y-66872390D01*
X85975256Y-66854652D01*
X85958451Y-66848520D01*
X85943006Y-66810845D01*
X85943304Y-66730525D01*
X85945258Y-66678962D01*
X85936894Y-66624136D01*
X85911353Y-66606398D01*
X85892826Y-66600383D01*
X85873748Y-66563137D01*
X85870966Y-66557199D01*
X85857438Y-66550088D01*
X85829894Y-66542755D01*
X85785266Y-66534938D01*
X85720484Y-66526372D01*
X85632476Y-66516796D01*
X85518176Y-66505947D01*
X85374512Y-66493560D01*
X85198415Y-66479375D01*
X84986817Y-66463127D01*
X84736646Y-66444554D01*
X84444834Y-66423393D01*
X84108310Y-66399382D01*
X83724006Y-66372256D01*
X83288852Y-66341753D01*
X80701128Y-66160802D01*
X80695473Y-66241668D01*
X80683171Y-66297842D01*
X80649386Y-66319707D01*
X80631891Y-66323440D01*
X80611352Y-66358599D01*
X80600470Y-66438180D01*
X80595229Y-66489512D01*
X80579315Y-66542641D01*
X80551555Y-66556651D01*
X80522011Y-66571333D01*
X80505467Y-66634690D01*
X80493165Y-66690865D01*
X80459379Y-66712730D01*
X80441885Y-66716462D01*
X80421346Y-66751622D01*
X80410464Y-66831202D01*
X80405222Y-66882534D01*
X80389308Y-66935663D01*
X80361548Y-66949674D01*
X80344054Y-66953407D01*
X80323516Y-66988566D01*
X80312633Y-67068146D01*
X80307392Y-67119479D01*
X80291478Y-67172608D01*
X80263718Y-67186618D01*
X80246224Y-67190351D01*
X80225685Y-67225511D01*
X80214802Y-67305091D01*
X80209561Y-67356423D01*
X80193648Y-67409552D01*
X80165887Y-67423563D01*
X80136344Y-67438244D01*
X80119799Y-67501601D01*
X80107498Y-67557776D01*
X80073712Y-67579641D01*
X80056217Y-67583373D01*
X80035678Y-67618533D01*
X80024797Y-67698113D01*
X80019555Y-67749446D01*
X80003641Y-67802574D01*
X79975881Y-67816585D01*
X79958387Y-67820318D01*
X79937848Y-67855477D01*
X79926966Y-67935058D01*
X79921724Y-67986390D01*
X79905811Y-68039519D01*
X79878051Y-68053529D01*
X79860557Y-68057262D01*
X79840017Y-68092422D01*
X79829135Y-68172002D01*
X79823894Y-68223335D01*
X79807980Y-68276462D01*
X79780220Y-68290474D01*
X79750676Y-68305156D01*
X79734132Y-68368513D01*
X79721830Y-68424687D01*
X79688044Y-68446551D01*
X79670550Y-68450285D01*
X79650011Y-68485444D01*
X79639129Y-68565024D01*
X79633887Y-68616357D01*
X79617974Y-68669486D01*
X79590213Y-68683496D01*
X79572719Y-68687229D01*
X79552181Y-68722388D01*
X79541298Y-68801969D01*
X79536056Y-68853301D01*
X79520143Y-68906430D01*
X79492384Y-68920440D01*
X79473198Y-68923818D01*
X79449123Y-68958046D01*
X79448632Y-68959294D01*
X79441263Y-68962667D01*
X79423712Y-68965068D01*
X79394229Y-68966381D01*
X79351064Y-68966496D01*
X79292468Y-68965297D01*
X79216694Y-68962672D01*
X79121991Y-68958507D01*
X79006611Y-68952688D01*
X78868804Y-68945103D01*
X78706822Y-68935636D01*
X78518916Y-68924176D01*
X78303336Y-68910608D01*
X78058334Y-68894820D01*
X77782161Y-68876697D01*
X77473068Y-68856125D01*
X77129305Y-68832993D01*
X76749124Y-68807186D01*
X76330776Y-68778591D01*
X75872512Y-68747094D01*
X75372582Y-68712582D01*
X74829239Y-68674941D01*
X74240731Y-68634058D01*
X73605312Y-68589818D01*
X72921232Y-68542111D01*
X72186742Y-68490821D01*
X71400093Y-68435834D01*
X71146248Y-68418081D01*
X70376242Y-68364201D01*
X69657853Y-68313879D01*
X68989329Y-68266984D01*
X68368925Y-68223385D01*
X67794893Y-68182949D01*
X67265483Y-68145548D01*
X66778951Y-68111048D01*
X66333546Y-68079321D01*
X65927521Y-68050234D01*
X65559128Y-68023656D01*
X65226621Y-67999456D01*
X64928251Y-67977505D01*
X64662271Y-67957669D01*
X64426931Y-67939818D01*
X64220486Y-67923822D01*
X64041186Y-67909548D01*
X63887285Y-67896867D01*
X63757035Y-67885646D01*
X63648687Y-67875756D01*
X63560493Y-67867065D01*
X63490708Y-67859441D01*
X63437582Y-67852755D01*
X63399367Y-67846874D01*
X63374316Y-67841668D01*
X63360682Y-67837005D01*
X63356717Y-67832755D01*
X63357036Y-67831762D01*
X63363791Y-67828319D01*
X63380618Y-67825843D01*
X63409273Y-67824447D01*
X63451508Y-67824246D01*
X63509076Y-67825353D01*
X63583732Y-67827881D01*
X63677228Y-67831946D01*
X63791317Y-67837660D01*
X63927753Y-67845135D01*
X64088291Y-67854488D01*
X64274682Y-67865831D01*
X64488679Y-67879278D01*
X64732038Y-67894944D01*
X65006511Y-67912940D01*
X65313851Y-67933381D01*
X65655813Y-67956381D01*
X66034147Y-67982054D01*
X66450611Y-68010514D01*
X66906955Y-68041873D01*
X67404932Y-68076246D01*
X67946299Y-68113746D01*
X68532806Y-68154488D01*
X69166208Y-68198584D01*
X69848257Y-68246149D01*
X70580708Y-68297297D01*
X71365314Y-68352140D01*
X71565503Y-68366138D01*
X72336969Y-68420051D01*
X73056715Y-68470296D01*
X73726496Y-68516988D01*
X74348067Y-68560239D01*
X74923179Y-68600163D01*
X75453585Y-68636875D01*
X75941040Y-68670488D01*
X76387297Y-68701115D01*
X76794110Y-68728871D01*
X77163230Y-68753868D01*
X77496414Y-68776221D01*
X77795412Y-68796043D01*
X78061979Y-68813449D01*
X78297869Y-68828551D01*
X78504834Y-68841464D01*
X78684628Y-68852302D01*
X78839005Y-68861176D01*
X78969717Y-68868204D01*
X79078519Y-68873496D01*
X79167163Y-68877168D01*
X79237403Y-68879332D01*
X79290993Y-68880103D01*
X79329685Y-68879593D01*
X79355233Y-68877918D01*
X79369390Y-68875191D01*
X79373911Y-68871525D01*
X79379926Y-68852997D01*
X79417172Y-68833920D01*
X79434666Y-68830186D01*
X79455204Y-68795027D01*
X79466087Y-68715448D01*
X79471329Y-68664114D01*
X79487241Y-68610986D01*
X79515002Y-68596975D01*
X79532496Y-68593242D01*
X79553035Y-68558083D01*
X79563917Y-68478503D01*
X79569159Y-68427170D01*
X79585072Y-68374042D01*
X79612832Y-68360031D01*
X79630327Y-68356297D01*
X79650866Y-68321139D01*
X79661747Y-68241559D01*
X79666989Y-68190225D01*
X79682903Y-68137097D01*
X79710663Y-68123086D01*
X79740207Y-68108404D01*
X79756751Y-68045047D01*
X79769053Y-67988873D01*
X79802839Y-67967008D01*
X79820333Y-67963275D01*
X79840872Y-67928116D01*
X79851754Y-67848537D01*
X79856996Y-67797203D01*
X79872910Y-67744075D01*
X79900670Y-67730064D01*
X79918164Y-67726331D01*
X79938702Y-67691172D01*
X79949585Y-67611592D01*
X79954826Y-67560259D01*
X79970740Y-67507131D01*
X79998500Y-67493119D01*
X80015994Y-67489386D01*
X80036533Y-67454228D01*
X80047416Y-67374648D01*
X80052657Y-67323314D01*
X80068570Y-67270186D01*
X80096331Y-67256175D01*
X80125874Y-67241493D01*
X80142418Y-67178136D01*
X80154720Y-67121962D01*
X80188506Y-67100097D01*
X80206001Y-67096364D01*
X80226540Y-67061205D01*
X80237421Y-66981626D01*
X80242663Y-66930292D01*
X80258577Y-66877164D01*
X80286337Y-66863153D01*
X80303831Y-66859420D01*
X80324370Y-66824260D01*
X80335252Y-66744681D01*
X80340494Y-66693347D01*
X80356407Y-66640220D01*
X80384167Y-66626208D01*
X80413711Y-66611527D01*
X80430255Y-66548169D01*
X80442557Y-66491995D01*
X80476343Y-66470131D01*
X80493837Y-66466397D01*
X80514376Y-66431238D01*
X80525259Y-66351659D01*
X80530500Y-66300325D01*
X80546414Y-66247197D01*
X80574174Y-66233186D01*
X80603717Y-66218504D01*
X80620262Y-66155147D01*
X80625917Y-66074281D01*
X83294506Y-66260887D01*
G37*
%TD*%
D10*
%TO.C,J2*%
X86995000Y-63030000D03*
D11*
X86995000Y-65570000D03*
X84455000Y-63030000D03*
X84455000Y-65570000D03*
X81915000Y-63030000D03*
X81915000Y-65570000D03*
X79375000Y-63030000D03*
X79375000Y-65570000D03*
X76835000Y-63030000D03*
X76835000Y-65570000D03*
%TD*%
D10*
%TO.C,J3*%
X104775000Y-62865000D03*
D11*
X104775000Y-65405000D03*
X102235000Y-62865000D03*
X102235000Y-65405000D03*
X99695000Y-62865000D03*
X99695000Y-65405000D03*
%TD*%
D12*
%TO.C,J1*%
X71755000Y-73025000D03*
X74295000Y-73025000D03*
X76835000Y-73025000D03*
X79375000Y-73025000D03*
X81915000Y-73025000D03*
X84455000Y-73025000D03*
X86995000Y-73025000D03*
X89535000Y-73025000D03*
X107315000Y-73025000D03*
X109855000Y-73025000D03*
X112395000Y-73025000D03*
X114935000Y-73025000D03*
X117475000Y-73025000D03*
X120015000Y-73025000D03*
X122555000Y-73025000D03*
X125095000Y-73025000D03*
X127635000Y-73025000D03*
X130175000Y-73025000D03*
%TD*%
M02*
