%TF.GenerationSoftware,KiCad,Pcbnew,7.0.9*%
%TF.CreationDate,2024-01-07T05:54:26-05:00*%
%TF.ProjectId,Flipper-ICSP,466c6970-7065-4722-9d49-4353502e6b69,A*%
%TF.SameCoordinates,Original*%
%TF.FileFunction,Drillmap*%
%TF.FilePolarity,Positive*%
%FSLAX45Y45*%
G04 Gerber Fmt 4.5, Leading zero omitted, Abs format (unit mm)*
G04 Created by KiCad (PCBNEW 7.0.9) date 2024-01-07 05:54:26*
%MOMM*%
%LPD*%
G01*
G04 APERTURE LIST*
%ADD10C,0.100000*%
%ADD11C,0.200000*%
G04 APERTURE END LIST*
D10*
X13173480Y-5995380D02*
X13173480Y-5766516D01*
X13173014Y-7320298D02*
X13173480Y-5995380D01*
X7020452Y-5996777D02*
X7020452Y-5767913D01*
X13055686Y-7437624D02*
G75*
G03*
X13173014Y-7320298I4J117324D01*
G01*
X13173482Y-5766516D02*
G75*
G03*
X13056151Y-5649188I-117332J-4D01*
G01*
X7137575Y-7437523D02*
X13055686Y-7437626D01*
X7020452Y-5996777D02*
X7020247Y-7320194D01*
X7020247Y-7320194D02*
G75*
G03*
X7137575Y-7437523I117333J4D01*
G01*
X7137780Y-5650582D02*
G75*
G03*
X7020452Y-5767913I0J-117328D01*
G01*
X7137780Y-5650585D02*
X13056151Y-5649188D01*
D11*
X7276023Y-7754110D02*
X7276023Y-7554110D01*
X7276023Y-7554110D02*
X7323642Y-7554110D01*
X7323642Y-7554110D02*
X7352214Y-7563634D01*
X7352214Y-7563634D02*
X7371261Y-7582681D01*
X7371261Y-7582681D02*
X7380785Y-7601729D01*
X7380785Y-7601729D02*
X7390309Y-7639824D01*
X7390309Y-7639824D02*
X7390309Y-7668396D01*
X7390309Y-7668396D02*
X7380785Y-7706491D01*
X7380785Y-7706491D02*
X7371261Y-7725539D01*
X7371261Y-7725539D02*
X7352214Y-7744586D01*
X7352214Y-7744586D02*
X7323642Y-7754110D01*
X7323642Y-7754110D02*
X7276023Y-7754110D01*
X7476023Y-7754110D02*
X7476023Y-7620777D01*
X7476023Y-7658872D02*
X7485547Y-7639824D01*
X7485547Y-7639824D02*
X7495071Y-7630300D01*
X7495071Y-7630300D02*
X7514119Y-7620777D01*
X7514119Y-7620777D02*
X7533166Y-7620777D01*
X7599833Y-7754110D02*
X7599833Y-7620777D01*
X7599833Y-7554110D02*
X7590309Y-7563634D01*
X7590309Y-7563634D02*
X7599833Y-7573158D01*
X7599833Y-7573158D02*
X7609357Y-7563634D01*
X7609357Y-7563634D02*
X7599833Y-7554110D01*
X7599833Y-7554110D02*
X7599833Y-7573158D01*
X7723642Y-7754110D02*
X7704595Y-7744586D01*
X7704595Y-7744586D02*
X7695071Y-7725539D01*
X7695071Y-7725539D02*
X7695071Y-7554110D01*
X7828404Y-7754110D02*
X7809357Y-7744586D01*
X7809357Y-7744586D02*
X7799833Y-7725539D01*
X7799833Y-7725539D02*
X7799833Y-7554110D01*
X8056976Y-7754110D02*
X8056976Y-7554110D01*
X8056976Y-7554110D02*
X8123642Y-7696967D01*
X8123642Y-7696967D02*
X8190309Y-7554110D01*
X8190309Y-7554110D02*
X8190309Y-7754110D01*
X8371261Y-7754110D02*
X8371261Y-7649348D01*
X8371261Y-7649348D02*
X8361738Y-7630300D01*
X8361738Y-7630300D02*
X8342690Y-7620777D01*
X8342690Y-7620777D02*
X8304595Y-7620777D01*
X8304595Y-7620777D02*
X8285547Y-7630300D01*
X8371261Y-7744586D02*
X8352214Y-7754110D01*
X8352214Y-7754110D02*
X8304595Y-7754110D01*
X8304595Y-7754110D02*
X8285547Y-7744586D01*
X8285547Y-7744586D02*
X8276023Y-7725539D01*
X8276023Y-7725539D02*
X8276023Y-7706491D01*
X8276023Y-7706491D02*
X8285547Y-7687443D01*
X8285547Y-7687443D02*
X8304595Y-7677920D01*
X8304595Y-7677920D02*
X8352214Y-7677920D01*
X8352214Y-7677920D02*
X8371261Y-7668396D01*
X8466500Y-7620777D02*
X8466500Y-7820777D01*
X8466500Y-7630300D02*
X8485547Y-7620777D01*
X8485547Y-7620777D02*
X8523643Y-7620777D01*
X8523643Y-7620777D02*
X8542690Y-7630300D01*
X8542690Y-7630300D02*
X8552214Y-7639824D01*
X8552214Y-7639824D02*
X8561738Y-7658872D01*
X8561738Y-7658872D02*
X8561738Y-7716015D01*
X8561738Y-7716015D02*
X8552214Y-7735062D01*
X8552214Y-7735062D02*
X8542690Y-7744586D01*
X8542690Y-7744586D02*
X8523643Y-7754110D01*
X8523643Y-7754110D02*
X8485547Y-7754110D01*
X8485547Y-7754110D02*
X8466500Y-7744586D01*
X8647452Y-7735062D02*
X8656976Y-7744586D01*
X8656976Y-7744586D02*
X8647452Y-7754110D01*
X8647452Y-7754110D02*
X8637928Y-7744586D01*
X8637928Y-7744586D02*
X8647452Y-7735062D01*
X8647452Y-7735062D02*
X8647452Y-7754110D01*
X8647452Y-7630300D02*
X8656976Y-7639824D01*
X8656976Y-7639824D02*
X8647452Y-7649348D01*
X8647452Y-7649348D02*
X8637928Y-7639824D01*
X8637928Y-7639824D02*
X8647452Y-7630300D01*
X8647452Y-7630300D02*
X8647452Y-7649348D01*
M02*
