%TF.GenerationSoftware,KiCad,Pcbnew,7.0.9*%
%TF.CreationDate,2024-01-07T05:54:30-05:00*%
%TF.ProjectId,Flipper-ICSP,466c6970-7065-4722-9d49-4353502e6b69,A*%
%TF.SameCoordinates,Original*%
%TF.FileFunction,Soldermask,Top*%
%TF.FilePolarity,Negative*%
%FSLAX46Y46*%
G04 Gerber Fmt 4.6, Leading zero omitted, Abs format (unit mm)*
G04 Created by KiCad (PCBNEW 7.0.9) date 2024-01-07 05:54:30*
%MOMM*%
%LPD*%
G01*
G04 APERTURE LIST*
G04 Aperture macros list*
%AMRoundRect*
0 Rectangle with rounded corners*
0 $1 Rounding radius*
0 $2 $3 $4 $5 $6 $7 $8 $9 X,Y pos of 4 corners*
0 Add a 4 corners polygon primitive as box body*
4,1,4,$2,$3,$4,$5,$6,$7,$8,$9,$2,$3,0*
0 Add four circle primitives for the rounded corners*
1,1,$1+$1,$2,$3*
1,1,$1+$1,$4,$5*
1,1,$1+$1,$6,$7*
1,1,$1+$1,$8,$9*
0 Add four rect primitives between the rounded corners*
20,1,$1+$1,$2,$3,$4,$5,0*
20,1,$1+$1,$4,$5,$6,$7,0*
20,1,$1+$1,$6,$7,$8,$9,0*
20,1,$1+$1,$8,$9,$2,$3,0*%
G04 Aperture macros list end*
%ADD10R,1.500000X1.500000*%
%ADD11R,1.200000X1.950000*%
%ADD12R,1.725000X1.725000*%
%ADD13C,1.725000*%
%ADD14RoundRect,0.250000X0.400000X0.625000X-0.400000X0.625000X-0.400000X-0.625000X0.400000X-0.625000X0*%
%ADD15C,1.524000*%
G04 APERTURE END LIST*
D10*
%TO.C,LED1*%
X122555000Y-69569332D03*
X122555000Y-66569332D03*
%TD*%
D11*
%TO.C,S1*%
X113515722Y-63132260D03*
X116015722Y-63132260D03*
X118515722Y-63132260D03*
X113515722Y-68782260D03*
X116015722Y-68782260D03*
X118515722Y-68782260D03*
%TD*%
D12*
%TO.C,J2*%
X86995000Y-63030000D03*
D13*
X86995000Y-65570000D03*
X84455000Y-63030000D03*
X84455000Y-65570000D03*
X81915000Y-63030000D03*
X81915000Y-65570000D03*
X79375000Y-63030000D03*
X79375000Y-65570000D03*
X76835000Y-63030000D03*
X76835000Y-65570000D03*
%TD*%
D10*
%TO.C,LED4*%
X130175000Y-69569332D03*
X130175000Y-66569332D03*
%TD*%
%TO.C,LED3*%
X127635000Y-69569332D03*
X127635000Y-66569332D03*
%TD*%
D12*
%TO.C,J3*%
X104775000Y-62865000D03*
D13*
X104775000Y-65405000D03*
X102235000Y-62865000D03*
X102235000Y-65405000D03*
X99695000Y-62865000D03*
X99695000Y-65405000D03*
%TD*%
D14*
%TO.C,R1*%
X96800000Y-71755000D03*
X93700000Y-71755000D03*
%TD*%
D15*
%TO.C,J1*%
X71755000Y-73025000D03*
X74295000Y-73025000D03*
X76835000Y-73025000D03*
X79375000Y-73025000D03*
X81915000Y-73025000D03*
X84455000Y-73025000D03*
X86995000Y-73025000D03*
X89535000Y-73025000D03*
X107315000Y-73025000D03*
X109855000Y-73025000D03*
X112395000Y-73025000D03*
X114935000Y-73025000D03*
X117475000Y-73025000D03*
X120015000Y-73025000D03*
X122555000Y-73025000D03*
X125095000Y-73025000D03*
X127635000Y-73025000D03*
X130175000Y-73025000D03*
%TD*%
D10*
%TO.C,LED2*%
X125095000Y-69569332D03*
X125095000Y-66569332D03*
%TD*%
M02*
