%TF.GenerationSoftware,KiCad,Pcbnew,7.0.9*%
%TF.CreationDate,2024-01-07T05:54:30-05:00*%
%TF.ProjectId,Flipper-ICSP,466c6970-7065-4722-9d49-4353502e6b69,A*%
%TF.SameCoordinates,Original*%
%TF.FileFunction,Legend,Bot*%
%TF.FilePolarity,Positive*%
%FSLAX46Y46*%
G04 Gerber Fmt 4.6, Leading zero omitted, Abs format (unit mm)*
G04 Created by KiCad (PCBNEW 7.0.9) date 2024-01-07 05:54:30*
%MOMM*%
%LPD*%
G01*
G04 APERTURE LIST*
G04 APERTURE END LIST*
%TO.C,G\u002A\u002A\u002A*%
G36*
X126497530Y-59362264D02*
G01*
X126502353Y-59367399D01*
X126502463Y-59369723D01*
X126497497Y-59376769D01*
X126482640Y-59385181D01*
X126455193Y-59395655D01*
X126412454Y-59408890D01*
X126351726Y-59425585D01*
X126270305Y-59446439D01*
X126165493Y-59472150D01*
X126034591Y-59503418D01*
X125874896Y-59540941D01*
X125683710Y-59585417D01*
X125458331Y-59637546D01*
X125373571Y-59657103D01*
X125160663Y-59706083D01*
X124980862Y-59747152D01*
X124831437Y-59780863D01*
X124709653Y-59807774D01*
X124612778Y-59828440D01*
X124538078Y-59843416D01*
X124482820Y-59853259D01*
X124444272Y-59858524D01*
X124419697Y-59859767D01*
X124406367Y-59857543D01*
X124401544Y-59852409D01*
X124401434Y-59850085D01*
X124406401Y-59843038D01*
X124421258Y-59834626D01*
X124448705Y-59824153D01*
X124491444Y-59810917D01*
X124552172Y-59794222D01*
X124633592Y-59773368D01*
X124738404Y-59747657D01*
X124869307Y-59716389D01*
X125029001Y-59678867D01*
X125220188Y-59634390D01*
X125445567Y-59582262D01*
X125530326Y-59562705D01*
X125743235Y-59513724D01*
X125923035Y-59472656D01*
X126072460Y-59438944D01*
X126194244Y-59412033D01*
X126291119Y-59391367D01*
X126365820Y-59376392D01*
X126421077Y-59366548D01*
X126459626Y-59361283D01*
X126484200Y-59360041D01*
X126497530Y-59362264D01*
G37*
G36*
X137304593Y-54716065D02*
G01*
X137308131Y-54718137D01*
X137306899Y-54720698D01*
X137299544Y-54725146D01*
X137284570Y-54731162D01*
X137260760Y-54739033D01*
X137226892Y-54749048D01*
X137181752Y-54761495D01*
X137124118Y-54776662D01*
X137052774Y-54794836D01*
X136966500Y-54816307D01*
X136864076Y-54841361D01*
X136744287Y-54870287D01*
X136605912Y-54903374D01*
X136447734Y-54940908D01*
X136268533Y-54983178D01*
X136067091Y-55030473D01*
X135842190Y-55083080D01*
X135592611Y-55141287D01*
X135317136Y-55205382D01*
X135014547Y-55275654D01*
X134683624Y-55352389D01*
X134323149Y-55435878D01*
X133931904Y-55526406D01*
X133508669Y-55624263D01*
X133052228Y-55729737D01*
X132561361Y-55843115D01*
X132034850Y-55964685D01*
X131622154Y-56059974D01*
X131123476Y-56175147D01*
X130659494Y-56282351D01*
X130228990Y-56381875D01*
X129830745Y-56474006D01*
X129463541Y-56559033D01*
X129126160Y-56637244D01*
X128817383Y-56708927D01*
X128535991Y-56774369D01*
X128280766Y-56833858D01*
X128050489Y-56887684D01*
X127843942Y-56936134D01*
X127659908Y-56979495D01*
X127497165Y-57018056D01*
X127354497Y-57052105D01*
X127230685Y-57081931D01*
X127124510Y-57107820D01*
X127034754Y-57130062D01*
X126960199Y-57148944D01*
X126899626Y-57164753D01*
X126851815Y-57177779D01*
X126815550Y-57188310D01*
X126789611Y-57196632D01*
X126772780Y-57203035D01*
X126763838Y-57207807D01*
X126761567Y-57211235D01*
X126761333Y-57224867D01*
X126740307Y-57245258D01*
X126728157Y-57251445D01*
X126719047Y-57279282D01*
X126718812Y-57292915D01*
X126697786Y-57313307D01*
X126686841Y-57319385D01*
X126680288Y-57347122D01*
X126689289Y-57402615D01*
X126696286Y-57438046D01*
X126696506Y-57476865D01*
X126680792Y-57491923D01*
X126669846Y-57498002D01*
X126663294Y-57525738D01*
X126672295Y-57581232D01*
X126679291Y-57616663D01*
X126679512Y-57655481D01*
X126663798Y-57670540D01*
X126652852Y-57676618D01*
X126646299Y-57704355D01*
X126655301Y-57759849D01*
X126662297Y-57795280D01*
X126662517Y-57834097D01*
X126646803Y-57849157D01*
X126630033Y-57865029D01*
X126631925Y-57910823D01*
X126635186Y-57950940D01*
X126617046Y-57972489D01*
X126606100Y-57978567D01*
X126599547Y-58006304D01*
X126608548Y-58061798D01*
X126615545Y-58097230D01*
X126615766Y-58136047D01*
X126600052Y-58151106D01*
X126589106Y-58157184D01*
X126582554Y-58184921D01*
X126591555Y-58240414D01*
X126598551Y-58275846D01*
X126598771Y-58314664D01*
X126583058Y-58329722D01*
X126572112Y-58335801D01*
X126565559Y-58363538D01*
X126574560Y-58419031D01*
X126581557Y-58454462D01*
X126581777Y-58493281D01*
X126566064Y-58508339D01*
X126555117Y-58514418D01*
X126548565Y-58542154D01*
X126557567Y-58597648D01*
X126564563Y-58633079D01*
X126564783Y-58671896D01*
X126549069Y-58686956D01*
X126538124Y-58693034D01*
X126531571Y-58720771D01*
X126540572Y-58776265D01*
X126547568Y-58811696D01*
X126547789Y-58850513D01*
X126532076Y-58865573D01*
X126521129Y-58871651D01*
X126514577Y-58899388D01*
X126523578Y-58954881D01*
X126530574Y-58990313D01*
X126530795Y-59029130D01*
X126515081Y-59044189D01*
X126504135Y-59050268D01*
X126497582Y-59078005D01*
X126506584Y-59133497D01*
X126513580Y-59168930D01*
X126513801Y-59207747D01*
X126498086Y-59222806D01*
X126485937Y-59228993D01*
X126476826Y-59256830D01*
X126476592Y-59270462D01*
X126455566Y-59290854D01*
X126441933Y-59290619D01*
X126421542Y-59269594D01*
X126421777Y-59255961D01*
X126442803Y-59235569D01*
X126453748Y-59229491D01*
X126460300Y-59201754D01*
X126451299Y-59146261D01*
X126444303Y-59110829D01*
X126444083Y-59072012D01*
X126459796Y-59056952D01*
X126470742Y-59050874D01*
X126477295Y-59023137D01*
X126468294Y-58967645D01*
X126461297Y-58932213D01*
X126461077Y-58893395D01*
X126476791Y-58878336D01*
X126487736Y-58872257D01*
X126494289Y-58844520D01*
X126485288Y-58789028D01*
X126478292Y-58753596D01*
X126478071Y-58714778D01*
X126493785Y-58699720D01*
X126504730Y-58693641D01*
X126511283Y-58665904D01*
X126502282Y-58610411D01*
X126495285Y-58574979D01*
X126495066Y-58536162D01*
X126510779Y-58521103D01*
X126521725Y-58515024D01*
X126528277Y-58487287D01*
X126519277Y-58431794D01*
X126512280Y-58396362D01*
X126512059Y-58357545D01*
X126527773Y-58342486D01*
X126538718Y-58336407D01*
X126545271Y-58308671D01*
X126536270Y-58253178D01*
X126529274Y-58217745D01*
X126529054Y-58178928D01*
X126544768Y-58163869D01*
X126555713Y-58157790D01*
X126562266Y-58130054D01*
X126553265Y-58074561D01*
X126546268Y-58039129D01*
X126546048Y-58000311D01*
X126561761Y-57985252D01*
X126572707Y-57979173D01*
X126579260Y-57951437D01*
X126570258Y-57895944D01*
X126563262Y-57860512D01*
X126563042Y-57821694D01*
X126578756Y-57806636D01*
X126589701Y-57800557D01*
X126596254Y-57772821D01*
X126587253Y-57717327D01*
X126580257Y-57681895D01*
X126580036Y-57643078D01*
X126595749Y-57628019D01*
X126606696Y-57621940D01*
X126613248Y-57594204D01*
X126604247Y-57538710D01*
X126597250Y-57503278D01*
X126597030Y-57464461D01*
X126612744Y-57449402D01*
X126629514Y-57433530D01*
X126627622Y-57387736D01*
X126624362Y-57347619D01*
X126642502Y-57326070D01*
X126653447Y-57319991D01*
X126660000Y-57292255D01*
X126650999Y-57236762D01*
X126631854Y-57153835D01*
X131966802Y-55922165D01*
X132451705Y-55810230D01*
X132948471Y-55695591D01*
X133410712Y-55588964D01*
X133839643Y-55490077D01*
X134236479Y-55398655D01*
X134602436Y-55314425D01*
X134938728Y-55237111D01*
X135246571Y-55166441D01*
X135527180Y-55102141D01*
X135781769Y-55043935D01*
X136011555Y-54991552D01*
X136217752Y-54944716D01*
X136401574Y-54903154D01*
X136564238Y-54866593D01*
X136706959Y-54834757D01*
X136830952Y-54807372D01*
X136937430Y-54784166D01*
X137027611Y-54764864D01*
X137102708Y-54749193D01*
X137163938Y-54736879D01*
X137212514Y-54727646D01*
X137249653Y-54721223D01*
X137276569Y-54717335D01*
X137294477Y-54715706D01*
X137304593Y-54716065D01*
G37*
G36*
X123333932Y-58002567D02*
G01*
X123343177Y-58037479D01*
X123359995Y-58072465D01*
X123380720Y-58079112D01*
X123402751Y-58086026D01*
X123421125Y-58128014D01*
X123435781Y-58165501D01*
X123461531Y-58176917D01*
X123474034Y-58177582D01*
X123492082Y-58199639D01*
X123508319Y-58253462D01*
X123517563Y-58288375D01*
X123534381Y-58323361D01*
X123555106Y-58330007D01*
X123567609Y-58330672D01*
X123585657Y-58352729D01*
X123601893Y-58406552D01*
X123611138Y-58441465D01*
X123627956Y-58476451D01*
X123648681Y-58483097D01*
X123661183Y-58483762D01*
X123679231Y-58505819D01*
X123695468Y-58559642D01*
X123704712Y-58594555D01*
X123721531Y-58629540D01*
X123742255Y-58636187D01*
X123754758Y-58636851D01*
X123772806Y-58658909D01*
X123789043Y-58712732D01*
X123798287Y-58747645D01*
X123815105Y-58782631D01*
X123835830Y-58789277D01*
X123848332Y-58789941D01*
X123866381Y-58811998D01*
X123882617Y-58865822D01*
X123891862Y-58900734D01*
X123908680Y-58935720D01*
X123929405Y-58942367D01*
X123941907Y-58943031D01*
X123959955Y-58965089D01*
X123976192Y-59018912D01*
X123985436Y-59053824D01*
X124002255Y-59088810D01*
X124022979Y-59095457D01*
X124035482Y-59096121D01*
X124053531Y-59118178D01*
X124069767Y-59172001D01*
X124079011Y-59206914D01*
X124095829Y-59241899D01*
X124116554Y-59248547D01*
X124129056Y-59249211D01*
X124147105Y-59271269D01*
X124163341Y-59325092D01*
X124172586Y-59360004D01*
X124189404Y-59394989D01*
X124210128Y-59401637D01*
X124222631Y-59402301D01*
X124240680Y-59424358D01*
X124256916Y-59478181D01*
X124266160Y-59513094D01*
X124282979Y-59548079D01*
X124303703Y-59554726D01*
X124316206Y-59555391D01*
X124334255Y-59577448D01*
X124350490Y-59631271D01*
X124359735Y-59666184D01*
X124376553Y-59701169D01*
X124397278Y-59707815D01*
X124410911Y-59708051D01*
X124431302Y-59729077D01*
X124431068Y-59742709D01*
X124410042Y-59763100D01*
X124396410Y-59762866D01*
X124376017Y-59741840D01*
X124369831Y-59729690D01*
X124341993Y-59720579D01*
X124329491Y-59719914D01*
X124311443Y-59697857D01*
X124295206Y-59644034D01*
X124285962Y-59609122D01*
X124269144Y-59574136D01*
X124248418Y-59567489D01*
X124235916Y-59566824D01*
X124217868Y-59544767D01*
X124201632Y-59490945D01*
X124192388Y-59456032D01*
X124175569Y-59421046D01*
X124154845Y-59414400D01*
X124142341Y-59413734D01*
X124124293Y-59391677D01*
X124108057Y-59337855D01*
X124098813Y-59302942D01*
X124081995Y-59267956D01*
X124061269Y-59261310D01*
X124048767Y-59260644D01*
X124030719Y-59238587D01*
X124014482Y-59184765D01*
X124005238Y-59149852D01*
X123988420Y-59114866D01*
X123967695Y-59108220D01*
X123955192Y-59107554D01*
X123937144Y-59085497D01*
X123920907Y-59031675D01*
X123911664Y-58996762D01*
X123894845Y-58961776D01*
X123874120Y-58955130D01*
X123861617Y-58954465D01*
X123843569Y-58932408D01*
X123827333Y-58878585D01*
X123818089Y-58843672D01*
X123801271Y-58808686D01*
X123780545Y-58802040D01*
X123768043Y-58801374D01*
X123749995Y-58779318D01*
X123733758Y-58725495D01*
X123724514Y-58690582D01*
X123707695Y-58655596D01*
X123686971Y-58648950D01*
X123664939Y-58642035D01*
X123646565Y-58600047D01*
X123631911Y-58562561D01*
X123606160Y-58551145D01*
X123593657Y-58550480D01*
X123575608Y-58528422D01*
X123559373Y-58474600D01*
X123550128Y-58439687D01*
X123533310Y-58404701D01*
X123512585Y-58398055D01*
X123500082Y-58397389D01*
X123482034Y-58375332D01*
X123465798Y-58321510D01*
X123456553Y-58286597D01*
X123439735Y-58251611D01*
X123419011Y-58244965D01*
X123406507Y-58244300D01*
X123388459Y-58222243D01*
X123372223Y-58168420D01*
X123362979Y-58133507D01*
X123346161Y-58098521D01*
X123325435Y-58091875D01*
X123311803Y-58091641D01*
X123291412Y-58070614D01*
X123285225Y-58058464D01*
X123257387Y-58049354D01*
X123243755Y-58049119D01*
X123223364Y-58028094D01*
X123222541Y-58027623D01*
X123216661Y-58027693D01*
X123204686Y-58029209D01*
X123186077Y-58032295D01*
X123160294Y-58037075D01*
X123126797Y-58043674D01*
X123085046Y-58052213D01*
X123034504Y-58062819D01*
X122974627Y-58075614D01*
X122904879Y-58090724D01*
X122824719Y-58108272D01*
X122733606Y-58128381D01*
X122631002Y-58151177D01*
X122516368Y-58176782D01*
X122389163Y-58205321D01*
X122248846Y-58236919D01*
X122094881Y-58271699D01*
X121926727Y-58309784D01*
X121743842Y-58351299D01*
X121545689Y-58396369D01*
X121331727Y-58445117D01*
X121101416Y-58497666D01*
X120854219Y-58554142D01*
X120589593Y-58614668D01*
X120307000Y-58679368D01*
X120005901Y-58748365D01*
X119685755Y-58821785D01*
X119346023Y-58899751D01*
X118986165Y-58982387D01*
X118605642Y-59069817D01*
X118203912Y-59162166D01*
X117780439Y-59259555D01*
X117334681Y-59362113D01*
X116866099Y-59469959D01*
X116374154Y-59583220D01*
X115858306Y-59702019D01*
X115318014Y-59826480D01*
X114752739Y-59956727D01*
X114161942Y-60092884D01*
X113545083Y-60235077D01*
X112901623Y-60383426D01*
X112231021Y-60538058D01*
X111532739Y-60699097D01*
X110806235Y-60866665D01*
X110050971Y-61040888D01*
X109266408Y-61221888D01*
X108452005Y-61409792D01*
X107607223Y-61604722D01*
X106731522Y-61806801D01*
X105824362Y-62016155D01*
X104885204Y-62232907D01*
X103913508Y-62457182D01*
X102908736Y-62689103D01*
X101870346Y-62928794D01*
X100797798Y-63176379D01*
X99690555Y-63431983D01*
X98548076Y-63695729D01*
X97369821Y-63967741D01*
X96155250Y-64248144D01*
X95540796Y-64390002D01*
X94344529Y-64666176D01*
X93184305Y-64934022D01*
X92059587Y-65193663D01*
X90969833Y-65445226D01*
X89914505Y-65688832D01*
X88893062Y-65924605D01*
X87904966Y-66152672D01*
X86949676Y-66373153D01*
X86026654Y-66586175D01*
X85135358Y-66791860D01*
X84275250Y-66990335D01*
X83445790Y-67181721D01*
X82646438Y-67366142D01*
X81876654Y-67543724D01*
X81135899Y-67714590D01*
X80423634Y-67878863D01*
X79739319Y-68036669D01*
X79082413Y-68188132D01*
X78452378Y-68333374D01*
X77848673Y-68472520D01*
X77270760Y-68605694D01*
X76718097Y-68733021D01*
X76190146Y-68854623D01*
X75686368Y-68970625D01*
X75206222Y-69081152D01*
X74749168Y-69186327D01*
X74314667Y-69286274D01*
X73902181Y-69381117D01*
X73511168Y-69470980D01*
X73141088Y-69555987D01*
X72791404Y-69636263D01*
X72461574Y-69711931D01*
X72151059Y-69783115D01*
X71859320Y-69849938D01*
X71585817Y-69912527D01*
X71330009Y-69971003D01*
X71091359Y-70025492D01*
X70869326Y-70076117D01*
X70663369Y-70123003D01*
X70472950Y-70166271D01*
X70297530Y-70206049D01*
X70136567Y-70242459D01*
X69989523Y-70275626D01*
X69855858Y-70305672D01*
X69735033Y-70332723D01*
X69626507Y-70356902D01*
X69529741Y-70378332D01*
X69444195Y-70397140D01*
X69369331Y-70413448D01*
X69304607Y-70427381D01*
X69249484Y-70439061D01*
X69203423Y-70448614D01*
X69165885Y-70456163D01*
X69136329Y-70461833D01*
X69114216Y-70465747D01*
X69099006Y-70468030D01*
X69090159Y-70468804D01*
X69087137Y-70468195D01*
X69087826Y-70467298D01*
X69093492Y-70464706D01*
X69105301Y-70460735D01*
X69123791Y-70455259D01*
X69149503Y-70448154D01*
X69182975Y-70439294D01*
X69224744Y-70428555D01*
X69275352Y-70415811D01*
X69335335Y-70400939D01*
X69405233Y-70383811D01*
X69485586Y-70364304D01*
X69576931Y-70342292D01*
X69679808Y-70317651D01*
X69794755Y-70290256D01*
X69922312Y-70259981D01*
X70063017Y-70226702D01*
X70217409Y-70190293D01*
X70386027Y-70150631D01*
X70569409Y-70107589D01*
X70768095Y-70061043D01*
X70982623Y-70010867D01*
X71213534Y-69956937D01*
X71461364Y-69899129D01*
X71726652Y-69837316D01*
X72009939Y-69771373D01*
X72311763Y-69701176D01*
X72632662Y-69626600D01*
X72973175Y-69547521D01*
X73333841Y-69463812D01*
X73715200Y-69375349D01*
X74117789Y-69282007D01*
X74542148Y-69183661D01*
X74988816Y-69080185D01*
X75458331Y-68971457D01*
X75951233Y-68857348D01*
X76468060Y-68737736D01*
X77009351Y-68612495D01*
X77575644Y-68481499D01*
X78167479Y-68344625D01*
X78785395Y-68201748D01*
X79429931Y-68052741D01*
X80101624Y-67897480D01*
X80801015Y-67735841D01*
X81528641Y-67567697D01*
X82285043Y-67392924D01*
X83070757Y-67211398D01*
X83886325Y-67022994D01*
X84732284Y-66827585D01*
X85609173Y-66625048D01*
X86517531Y-66415257D01*
X87457897Y-66198086D01*
X88430810Y-65973413D01*
X89436808Y-65741111D01*
X90476430Y-65501055D01*
X91550217Y-65253120D01*
X92658705Y-64997182D01*
X93802434Y-64733116D01*
X94981943Y-64460796D01*
X96197771Y-64180097D01*
X123314787Y-57919640D01*
X123333932Y-58002567D01*
G37*
G36*
X137593442Y-58728445D02*
G01*
X137842328Y-59806492D01*
X138146393Y-59736293D01*
X138248123Y-59713153D01*
X138334415Y-59694748D01*
X138393420Y-59684292D01*
X138430151Y-59681095D01*
X138449620Y-59684473D01*
X138456839Y-59693737D01*
X138457157Y-59695610D01*
X138452956Y-59706607D01*
X138434898Y-59718051D01*
X138398353Y-59731427D01*
X138338692Y-59748214D01*
X138251289Y-59769898D01*
X138131515Y-59797960D01*
X137799808Y-59874540D01*
X137550921Y-58796493D01*
X137302035Y-57718446D01*
X136251631Y-57960951D01*
X135201226Y-58203456D01*
X135450112Y-59281503D01*
X135698999Y-60359550D01*
X134620953Y-60608437D01*
X133542906Y-60857324D01*
X133294019Y-59779277D01*
X133045133Y-58701230D01*
X131994729Y-58943735D01*
X130944325Y-59186239D01*
X131193211Y-60264286D01*
X131442098Y-61342333D01*
X130336409Y-61597602D01*
X129230720Y-61852870D01*
X128981834Y-60774823D01*
X128732947Y-59696776D01*
X127682543Y-59939281D01*
X126632138Y-60181786D01*
X126881025Y-61259833D01*
X127129911Y-62337880D01*
X126079507Y-62580385D01*
X125029103Y-62822890D01*
X124780216Y-61744843D01*
X124531330Y-60666796D01*
X123480926Y-60909301D01*
X122430521Y-61151806D01*
X122679407Y-62229853D01*
X122928294Y-63307900D01*
X121822605Y-63563168D01*
X120716917Y-63818436D01*
X120468031Y-62740389D01*
X120219144Y-61662343D01*
X119168739Y-61904848D01*
X118118335Y-62147353D01*
X118367221Y-63225399D01*
X118616108Y-64303446D01*
X117538061Y-64552333D01*
X116460015Y-64801220D01*
X116211129Y-63723173D01*
X115962242Y-62645126D01*
X114911838Y-62887631D01*
X113861433Y-63130136D01*
X114110320Y-64208183D01*
X114359206Y-65286230D01*
X113253517Y-65541498D01*
X112147830Y-65796766D01*
X111898943Y-64718719D01*
X111650056Y-63640672D01*
X110572009Y-63889559D01*
X109493962Y-64138446D01*
X109742849Y-65216493D01*
X109991736Y-66294540D01*
X108886048Y-66549808D01*
X107780359Y-66805076D01*
X107531472Y-65727029D01*
X107282585Y-64648982D01*
X106232180Y-64891487D01*
X105181776Y-65133992D01*
X105430663Y-66212039D01*
X105679550Y-67290086D01*
X104601504Y-67538973D01*
X103523457Y-67787860D01*
X103274570Y-66709813D01*
X103025683Y-65631766D01*
X101975279Y-65874271D01*
X100924874Y-66116776D01*
X101173761Y-67194823D01*
X101422648Y-68272870D01*
X100316960Y-68528138D01*
X99211271Y-68783406D01*
X98962384Y-67705359D01*
X98713498Y-66627312D01*
X97663093Y-66869817D01*
X96612689Y-67112322D01*
X96861575Y-68190369D01*
X97110462Y-69268416D01*
X96060058Y-69510921D01*
X95009654Y-69753426D01*
X94760767Y-68675379D01*
X94511880Y-67597332D01*
X93461475Y-67839837D01*
X92411071Y-68082342D01*
X92659958Y-69160389D01*
X92908845Y-70238436D01*
X91803156Y-70493704D01*
X90697467Y-70748973D01*
X90448580Y-69670926D01*
X90199694Y-68592879D01*
X89149290Y-68835384D01*
X88098886Y-69077888D01*
X88347772Y-70155935D01*
X88596659Y-71233982D01*
X87518612Y-71482869D01*
X86440566Y-71731756D01*
X86191679Y-70653709D01*
X85942793Y-69575662D01*
X84892388Y-69818167D01*
X83841984Y-70060672D01*
X84090870Y-71138719D01*
X84339757Y-72216766D01*
X83234068Y-72472034D01*
X82128379Y-72727302D01*
X81879493Y-71649255D01*
X81630606Y-70571209D01*
X80580202Y-70813713D01*
X79529798Y-71056218D01*
X79778685Y-72134265D01*
X80027571Y-73212312D01*
X78921882Y-73467581D01*
X77816194Y-73722849D01*
X77567307Y-72644802D01*
X77318420Y-71566755D01*
X76268016Y-71809260D01*
X75217612Y-72051765D01*
X75466499Y-73129812D01*
X75715385Y-74207859D01*
X74637339Y-74456745D01*
X73559292Y-74705632D01*
X73310405Y-73627585D01*
X73061518Y-72549538D01*
X72011114Y-72792043D01*
X70960710Y-73034548D01*
X71209597Y-74112595D01*
X71458483Y-75190642D01*
X70850355Y-75331040D01*
X70754773Y-75353055D01*
X70605595Y-75387067D01*
X70487671Y-75413289D01*
X70397418Y-75432374D01*
X70331255Y-75444984D01*
X70285599Y-75451773D01*
X70256867Y-75453399D01*
X70241476Y-75450521D01*
X70235844Y-75443794D01*
X70235594Y-75440894D01*
X70240893Y-75432055D01*
X70258018Y-75422091D01*
X70290557Y-75409992D01*
X70342095Y-75394749D01*
X70416217Y-75375351D01*
X70516509Y-75350790D01*
X70646558Y-75320054D01*
X70809949Y-75282136D01*
X71390435Y-75148121D01*
X71141548Y-74070074D01*
X70892662Y-72992028D01*
X71970709Y-72743141D01*
X72091925Y-72715179D01*
X72302737Y-72666712D01*
X72480805Y-72626076D01*
X72628827Y-72592720D01*
X72749501Y-72566094D01*
X72845526Y-72545646D01*
X72919600Y-72530828D01*
X72974421Y-72521088D01*
X73012687Y-72515874D01*
X73037096Y-72514639D01*
X73050347Y-72516829D01*
X73055136Y-72521896D01*
X73061324Y-72534046D01*
X73089161Y-72543156D01*
X73091485Y-72543047D01*
X73098532Y-72548014D01*
X73106943Y-72562871D01*
X73117417Y-72590318D01*
X73130652Y-72633056D01*
X73147347Y-72693785D01*
X73168201Y-72775205D01*
X73193913Y-72880016D01*
X73225181Y-73010919D01*
X73262703Y-73170614D01*
X73307180Y-73361801D01*
X73359308Y-73587180D01*
X73601813Y-74637584D01*
X74624575Y-74401461D01*
X75647337Y-74165337D01*
X75404832Y-73114933D01*
X75385275Y-73030173D01*
X75336295Y-72817265D01*
X75295227Y-72637465D01*
X75261516Y-72488039D01*
X75234605Y-72366256D01*
X75213939Y-72269381D01*
X75198962Y-72194681D01*
X75189120Y-72139423D01*
X75183854Y-72100874D01*
X75182611Y-72076300D01*
X75184835Y-72062969D01*
X75189969Y-72058147D01*
X75202119Y-72051960D01*
X75211230Y-72024123D01*
X75211353Y-72020821D01*
X75217633Y-72013679D01*
X75234141Y-72005062D01*
X75263542Y-71994280D01*
X75308504Y-71980649D01*
X75371692Y-71963478D01*
X75455772Y-71942078D01*
X75563413Y-71915765D01*
X75697279Y-71883848D01*
X75860037Y-71845639D01*
X76054353Y-71800450D01*
X76282895Y-71747594D01*
X77360942Y-71498708D01*
X77609828Y-72576754D01*
X77858715Y-73654801D01*
X78909119Y-73412296D01*
X79959523Y-73169791D01*
X79717018Y-72119387D01*
X79697461Y-72034627D01*
X79648481Y-71821718D01*
X79607413Y-71641918D01*
X79573701Y-71492493D01*
X79546790Y-71370709D01*
X79526125Y-71273834D01*
X79511148Y-71199135D01*
X79501305Y-71143876D01*
X79496041Y-71105328D01*
X79494797Y-71080754D01*
X79497021Y-71067423D01*
X79502156Y-71062600D01*
X79514306Y-71056413D01*
X79523416Y-71028576D01*
X79523538Y-71025274D01*
X79529819Y-71018132D01*
X79546326Y-71009515D01*
X79575728Y-70998734D01*
X79620690Y-70985102D01*
X79683878Y-70967931D01*
X79767959Y-70946531D01*
X79875598Y-70920218D01*
X80009464Y-70888301D01*
X80172223Y-70850092D01*
X80366539Y-70804903D01*
X80595080Y-70752048D01*
X81673127Y-70503161D01*
X81922014Y-71581207D01*
X82170901Y-72659254D01*
X83221305Y-72416749D01*
X84271710Y-72174244D01*
X84022823Y-71096197D01*
X83773937Y-70018151D01*
X84851982Y-69769265D01*
X84973199Y-69741302D01*
X85184011Y-69692836D01*
X85362078Y-69652200D01*
X85510101Y-69618844D01*
X85630775Y-69592218D01*
X85726800Y-69571770D01*
X85800874Y-69556952D01*
X85855694Y-69547211D01*
X85893960Y-69541998D01*
X85918370Y-69540762D01*
X85931620Y-69542953D01*
X85936411Y-69548020D01*
X85942598Y-69560170D01*
X85970435Y-69569280D01*
X85972758Y-69569171D01*
X85979805Y-69574138D01*
X85988217Y-69588994D01*
X85998691Y-69616442D01*
X86011926Y-69659180D01*
X86028621Y-69719909D01*
X86049475Y-69801328D01*
X86075186Y-69906140D01*
X86106455Y-70037043D01*
X86143977Y-70196737D01*
X86188453Y-70387924D01*
X86240582Y-70613304D01*
X86483086Y-71663708D01*
X87505849Y-71427584D01*
X88528611Y-71191461D01*
X88286106Y-70141057D01*
X88266549Y-70056297D01*
X88217568Y-69843388D01*
X88176501Y-69663588D01*
X88142789Y-69514163D01*
X88115878Y-69392379D01*
X88095212Y-69295504D01*
X88080236Y-69220805D01*
X88070393Y-69165547D01*
X88065128Y-69126998D01*
X88063885Y-69102424D01*
X88066109Y-69089093D01*
X88071244Y-69084270D01*
X88083393Y-69078083D01*
X88092504Y-69050247D01*
X88092626Y-69046944D01*
X88098907Y-69039803D01*
X88115414Y-69031185D01*
X88144816Y-69020404D01*
X88189778Y-69006773D01*
X88252965Y-68989601D01*
X88337045Y-68968202D01*
X88444686Y-68941889D01*
X88578552Y-68909971D01*
X88741311Y-68871762D01*
X88935627Y-68826574D01*
X89164168Y-68773718D01*
X90242215Y-68524831D01*
X90491102Y-69602877D01*
X90739988Y-70680924D01*
X91790393Y-70438419D01*
X92840798Y-70195914D01*
X92598293Y-69145510D01*
X92578735Y-69060750D01*
X92529755Y-68847842D01*
X92488686Y-68668042D01*
X92454975Y-68518616D01*
X92428064Y-68396833D01*
X92407398Y-68299958D01*
X92392422Y-68225258D01*
X92382579Y-68170000D01*
X92377314Y-68131451D01*
X92376072Y-68106877D01*
X92378295Y-68093546D01*
X92383429Y-68088724D01*
X92395579Y-68082537D01*
X92404690Y-68054700D01*
X92404812Y-68051398D01*
X92411092Y-68044256D01*
X92427601Y-68035639D01*
X92457001Y-68024858D01*
X92501963Y-68011226D01*
X92565151Y-67994055D01*
X92649232Y-67972655D01*
X92756873Y-67946342D01*
X92890738Y-67914425D01*
X93053496Y-67876216D01*
X93247813Y-67831027D01*
X93476355Y-67778171D01*
X94554401Y-67529285D01*
X94803288Y-68607331D01*
X95052174Y-69685378D01*
X96047295Y-69455636D01*
X97042415Y-69225895D01*
X96799910Y-68175490D01*
X96780352Y-68090731D01*
X96731372Y-67877822D01*
X96690304Y-67698022D01*
X96656592Y-67548597D01*
X96629681Y-67426813D01*
X96609015Y-67329938D01*
X96594039Y-67255238D01*
X96584196Y-67199980D01*
X96578932Y-67161432D01*
X96577689Y-67136857D01*
X96579912Y-67123526D01*
X96585047Y-67118704D01*
X96597196Y-67112517D01*
X96606307Y-67084680D01*
X96606429Y-67081378D01*
X96612710Y-67074236D01*
X96629218Y-67065619D01*
X96658619Y-67054838D01*
X96703581Y-67041206D01*
X96766768Y-67024035D01*
X96850849Y-67002635D01*
X96958490Y-66976322D01*
X97092355Y-66944405D01*
X97255114Y-66906196D01*
X97449431Y-66861007D01*
X97677972Y-66808152D01*
X98756018Y-66559265D01*
X99004905Y-67637311D01*
X99253791Y-68715358D01*
X100304197Y-68472853D01*
X101354601Y-68230348D01*
X101105714Y-67152301D01*
X100856827Y-66074255D01*
X101934873Y-65825369D01*
X102056090Y-65797406D01*
X102266901Y-65748940D01*
X102444969Y-65708304D01*
X102592992Y-65674948D01*
X102713666Y-65648322D01*
X102809691Y-65627874D01*
X102883765Y-65613056D01*
X102938586Y-65603315D01*
X102976851Y-65598102D01*
X103001261Y-65596866D01*
X103014511Y-65599057D01*
X103019302Y-65604124D01*
X103025488Y-65616273D01*
X103053325Y-65625384D01*
X103055649Y-65625274D01*
X103062697Y-65630241D01*
X103071108Y-65645098D01*
X103081582Y-65672545D01*
X103094817Y-65715284D01*
X103111512Y-65776013D01*
X103132366Y-65857432D01*
X103158078Y-65962243D01*
X103189345Y-66093147D01*
X103226868Y-66252841D01*
X103271344Y-66444028D01*
X103323473Y-66669407D01*
X103565978Y-67719811D01*
X104588740Y-67483688D01*
X105611502Y-67247565D01*
X105368997Y-66197161D01*
X105349440Y-66112401D01*
X105300459Y-65899492D01*
X105259391Y-65719692D01*
X105225680Y-65570267D01*
X105198769Y-65448483D01*
X105178103Y-65351608D01*
X105163127Y-65276909D01*
X105153284Y-65221650D01*
X105148019Y-65183102D01*
X105146777Y-65158527D01*
X105149000Y-65145197D01*
X105154134Y-65140374D01*
X105166284Y-65134187D01*
X105175395Y-65106350D01*
X105175517Y-65103048D01*
X105181797Y-65095907D01*
X105198305Y-65087289D01*
X105227706Y-65076508D01*
X105272668Y-65062876D01*
X105335856Y-65045705D01*
X105419937Y-65024306D01*
X105527577Y-64997993D01*
X105661443Y-64966075D01*
X105824201Y-64927866D01*
X106018518Y-64882677D01*
X106247060Y-64829822D01*
X107325106Y-64580935D01*
X107573993Y-65658981D01*
X107822879Y-66737028D01*
X108873284Y-66494523D01*
X109923688Y-66252018D01*
X109681183Y-65201614D01*
X109661626Y-65116854D01*
X109612646Y-64903946D01*
X109571578Y-64724145D01*
X109537866Y-64574720D01*
X109510956Y-64452937D01*
X109490290Y-64356061D01*
X109475313Y-64281362D01*
X109465470Y-64226104D01*
X109460205Y-64187555D01*
X109458962Y-64162981D01*
X109461186Y-64149650D01*
X109466320Y-64144827D01*
X109478470Y-64138641D01*
X109487581Y-64110804D01*
X109488107Y-64106540D01*
X109495729Y-64099284D01*
X109513902Y-64090445D01*
X109545262Y-64079348D01*
X109592441Y-64065314D01*
X109658073Y-64047664D01*
X109744794Y-64025722D01*
X109855234Y-63998809D01*
X109992030Y-63966247D01*
X110157816Y-63927359D01*
X110355224Y-63881468D01*
X110586888Y-63827894D01*
X111692577Y-63572625D01*
X111941463Y-64650671D01*
X112190350Y-65728718D01*
X113240754Y-65486213D01*
X114291159Y-65243708D01*
X114042272Y-64165661D01*
X113793386Y-63087615D01*
X114871432Y-62838729D01*
X114992648Y-62810766D01*
X115203460Y-62762300D01*
X115381527Y-62721664D01*
X115529550Y-62688308D01*
X115650224Y-62661682D01*
X115746249Y-62641234D01*
X115820324Y-62626416D01*
X115875145Y-62616675D01*
X115913410Y-62611462D01*
X115937819Y-62610226D01*
X115951070Y-62612417D01*
X115955860Y-62617484D01*
X115962047Y-62629634D01*
X115989884Y-62638744D01*
X115992208Y-62638635D01*
X115999256Y-62643601D01*
X116007666Y-62658458D01*
X116018140Y-62685906D01*
X116031375Y-62728644D01*
X116048070Y-62789373D01*
X116068924Y-62870792D01*
X116094636Y-62975604D01*
X116125904Y-63106507D01*
X116163427Y-63266201D01*
X116207902Y-63457388D01*
X116260032Y-63682767D01*
X116502537Y-64733171D01*
X117525298Y-64497048D01*
X118548060Y-64260925D01*
X118305555Y-63210521D01*
X118285998Y-63125761D01*
X118237018Y-62912852D01*
X118195950Y-62733052D01*
X118162238Y-62583627D01*
X118135327Y-62461843D01*
X118114662Y-62364968D01*
X118099685Y-62290269D01*
X118089842Y-62235011D01*
X118084578Y-62196462D01*
X118083335Y-62171888D01*
X118085558Y-62158557D01*
X118090693Y-62153734D01*
X118102843Y-62147548D01*
X118111953Y-62119711D01*
X118112075Y-62116408D01*
X118118356Y-62109267D01*
X118134863Y-62100649D01*
X118164265Y-62089868D01*
X118209227Y-62076237D01*
X118272415Y-62059065D01*
X118356496Y-62037666D01*
X118464135Y-62011353D01*
X118598001Y-61979435D01*
X118760760Y-61941226D01*
X118955076Y-61896038D01*
X119183618Y-61843182D01*
X120261664Y-61594295D01*
X120510551Y-62672341D01*
X120759438Y-63750388D01*
X121809842Y-63507883D01*
X122860247Y-63265378D01*
X122617742Y-62214974D01*
X122598185Y-62130214D01*
X122549204Y-61917306D01*
X122508136Y-61737506D01*
X122474424Y-61588081D01*
X122447513Y-61466297D01*
X122426847Y-61369422D01*
X122411872Y-61294722D01*
X122402028Y-61239464D01*
X122396764Y-61200915D01*
X122395521Y-61176341D01*
X122397744Y-61163010D01*
X122402879Y-61158188D01*
X122415028Y-61152001D01*
X122424139Y-61124164D01*
X122424262Y-61120862D01*
X122430543Y-61113720D01*
X122447050Y-61105103D01*
X122476452Y-61094321D01*
X122521412Y-61080690D01*
X122584600Y-61063519D01*
X122668681Y-61042119D01*
X122776322Y-61015806D01*
X122910188Y-60983889D01*
X123072946Y-60945680D01*
X123267263Y-60900491D01*
X123495804Y-60847635D01*
X124573850Y-60598749D01*
X124822737Y-61676795D01*
X125071623Y-62754842D01*
X126066744Y-62525100D01*
X127061864Y-62295359D01*
X126819359Y-61244955D01*
X126799802Y-61160195D01*
X126750822Y-60947286D01*
X126709753Y-60767486D01*
X126676041Y-60618061D01*
X126649130Y-60496277D01*
X126628465Y-60399402D01*
X126613489Y-60324702D01*
X126603645Y-60269444D01*
X126598381Y-60230896D01*
X126597138Y-60206321D01*
X126599361Y-60192991D01*
X126604496Y-60188168D01*
X126616646Y-60181981D01*
X126625756Y-60154144D01*
X126625879Y-60150842D01*
X126632160Y-60143700D01*
X126648667Y-60135083D01*
X126678069Y-60124302D01*
X126723030Y-60110670D01*
X126786218Y-60093499D01*
X126870299Y-60072099D01*
X126977939Y-60045786D01*
X127111805Y-60013869D01*
X127274563Y-59975660D01*
X127468880Y-59930471D01*
X127697421Y-59877616D01*
X128775467Y-59628729D01*
X129024354Y-60706775D01*
X129273241Y-61784822D01*
X130323646Y-61542317D01*
X131374050Y-61299812D01*
X131125163Y-60221765D01*
X130876276Y-59143719D01*
X131954323Y-58894832D01*
X132075539Y-58866870D01*
X132286351Y-58818403D01*
X132464419Y-58777767D01*
X132612441Y-58744412D01*
X132733115Y-58717786D01*
X132829140Y-58697338D01*
X132903214Y-58682520D01*
X132958035Y-58672779D01*
X132996301Y-58667566D01*
X133020710Y-58666330D01*
X133033960Y-58668521D01*
X133038751Y-58673588D01*
X133044938Y-58685738D01*
X133072775Y-58694848D01*
X133075099Y-58694738D01*
X133082146Y-58699705D01*
X133090557Y-58714562D01*
X133101031Y-58742010D01*
X133114266Y-58784748D01*
X133130962Y-58845476D01*
X133151816Y-58926896D01*
X133177527Y-59031708D01*
X133208794Y-59162611D01*
X133246318Y-59322305D01*
X133290794Y-59513492D01*
X133342923Y-59738871D01*
X133585427Y-60789275D01*
X134608190Y-60553152D01*
X135630952Y-60317029D01*
X135388447Y-59266625D01*
X135368890Y-59181865D01*
X135319909Y-58968956D01*
X135278841Y-58789156D01*
X135245129Y-58639731D01*
X135218218Y-58517947D01*
X135197552Y-58421072D01*
X135182577Y-58346372D01*
X135172733Y-58291115D01*
X135167469Y-58252566D01*
X135166226Y-58227992D01*
X135168449Y-58214661D01*
X135173584Y-58209838D01*
X135185733Y-58203651D01*
X135194844Y-58175815D01*
X135194967Y-58172512D01*
X135201248Y-58165370D01*
X135217755Y-58156753D01*
X135247157Y-58145972D01*
X135292117Y-58132341D01*
X135355305Y-58115169D01*
X135439386Y-58093770D01*
X135547027Y-58067456D01*
X135680892Y-58035539D01*
X135843651Y-57997330D01*
X136037968Y-57952141D01*
X136266509Y-57899286D01*
X137344555Y-57650399D01*
X137593442Y-58728445D01*
G37*
G36*
X139180915Y-62843149D02*
G01*
X139184354Y-62844950D01*
X139184371Y-62845037D01*
X139181863Y-62848200D01*
X139172822Y-62852716D01*
X139156165Y-62858839D01*
X139130808Y-62866825D01*
X139095668Y-62876926D01*
X139049662Y-62889401D01*
X138991708Y-62904502D01*
X138920722Y-62922485D01*
X138835619Y-62943603D01*
X138735319Y-62968114D01*
X138618737Y-62996270D01*
X138484790Y-63028326D01*
X138332395Y-63064538D01*
X138160469Y-63105160D01*
X137967930Y-63150446D01*
X137753692Y-63200654D01*
X137516674Y-63256035D01*
X137255793Y-63316846D01*
X136969966Y-63383341D01*
X136658108Y-63455774D01*
X136319136Y-63534401D01*
X135951969Y-63619477D01*
X135555522Y-63711256D01*
X135128713Y-63809992D01*
X134670458Y-63915943D01*
X134179674Y-64029360D01*
X133655279Y-64150500D01*
X133096188Y-64279616D01*
X132501318Y-64416965D01*
X132480210Y-64421839D01*
X131886585Y-64558874D01*
X131328691Y-64687633D01*
X130805439Y-64808361D01*
X130315745Y-64921303D01*
X129858523Y-65026705D01*
X129432690Y-65124816D01*
X129037160Y-65215876D01*
X128670846Y-65300137D01*
X128332665Y-65377839D01*
X128021530Y-65449233D01*
X127736356Y-65514562D01*
X127476060Y-65574072D01*
X127239554Y-65628010D01*
X127025754Y-65676620D01*
X126833575Y-65720150D01*
X126661931Y-65758843D01*
X126509738Y-65792948D01*
X126375910Y-65822708D01*
X126259362Y-65848371D01*
X126159008Y-65870181D01*
X126073763Y-65888386D01*
X126002543Y-65903230D01*
X125944262Y-65914960D01*
X125897834Y-65923821D01*
X125862175Y-65930058D01*
X125836199Y-65933919D01*
X125818822Y-65935649D01*
X125808957Y-65935493D01*
X125805520Y-65933697D01*
X125799333Y-65921547D01*
X125771496Y-65912437D01*
X125749465Y-65905521D01*
X125731091Y-65863533D01*
X125716436Y-65826047D01*
X125690685Y-65814631D01*
X125678183Y-65813966D01*
X125660134Y-65791909D01*
X125643898Y-65738086D01*
X125634654Y-65703173D01*
X125617835Y-65668188D01*
X125597111Y-65661540D01*
X125584608Y-65660876D01*
X125566559Y-65638819D01*
X125550324Y-65584995D01*
X125541079Y-65550083D01*
X125524261Y-65515098D01*
X125503536Y-65508451D01*
X125481504Y-65501536D01*
X125463130Y-65459548D01*
X125448475Y-65422061D01*
X125422725Y-65410645D01*
X125410222Y-65409981D01*
X125392174Y-65387923D01*
X125375937Y-65334100D01*
X125366693Y-65299188D01*
X125349874Y-65264202D01*
X125329150Y-65257555D01*
X125316647Y-65256891D01*
X125298599Y-65234834D01*
X125282363Y-65181010D01*
X125273118Y-65146098D01*
X125256300Y-65111112D01*
X125235575Y-65104466D01*
X125223073Y-65103801D01*
X125205024Y-65081743D01*
X125188788Y-65027920D01*
X125179543Y-64993008D01*
X125162725Y-64958023D01*
X125142001Y-64951375D01*
X125119969Y-64944461D01*
X125101595Y-64902473D01*
X125086940Y-64864986D01*
X125061189Y-64853570D01*
X125048686Y-64852906D01*
X125030638Y-64830849D01*
X125014402Y-64777025D01*
X125005157Y-64742112D01*
X124988339Y-64707127D01*
X124967614Y-64700480D01*
X124955112Y-64699816D01*
X124937064Y-64677758D01*
X124920827Y-64623935D01*
X124911583Y-64589023D01*
X124894764Y-64554037D01*
X124874040Y-64547390D01*
X124861537Y-64546726D01*
X124843489Y-64524669D01*
X124827252Y-64470846D01*
X124818009Y-64435933D01*
X124801190Y-64400947D01*
X124780465Y-64394300D01*
X124758434Y-64387386D01*
X124740060Y-64345398D01*
X124725404Y-64307911D01*
X124699653Y-64296495D01*
X124687151Y-64295830D01*
X124669103Y-64273773D01*
X124652866Y-64219950D01*
X124633721Y-64137024D01*
X122836977Y-64551835D01*
X121040233Y-64966646D01*
X121059378Y-65049572D01*
X121066375Y-65085005D01*
X121066594Y-65123822D01*
X121050881Y-65138881D01*
X121039935Y-65144960D01*
X121033382Y-65172696D01*
X121042384Y-65228189D01*
X121049380Y-65263622D01*
X121049601Y-65302439D01*
X121033887Y-65317498D01*
X121022942Y-65323577D01*
X121016389Y-65351313D01*
X121025390Y-65406806D01*
X121032386Y-65442238D01*
X121032606Y-65481056D01*
X121016893Y-65496114D01*
X121000122Y-65511987D01*
X121002014Y-65557781D01*
X121005275Y-65597898D01*
X120987135Y-65619446D01*
X120976189Y-65625526D01*
X120969636Y-65653261D01*
X120978638Y-65708755D01*
X120985634Y-65744187D01*
X120985855Y-65783004D01*
X120970141Y-65798063D01*
X120959196Y-65804142D01*
X120952643Y-65831878D01*
X120961644Y-65887372D01*
X120968640Y-65922804D01*
X120968860Y-65961621D01*
X120953147Y-65976680D01*
X120936376Y-65992553D01*
X120938268Y-66038347D01*
X120941529Y-66078463D01*
X120923389Y-66100012D01*
X120912443Y-66106091D01*
X120905890Y-66133828D01*
X120914892Y-66189320D01*
X120921888Y-66224753D01*
X120922109Y-66263570D01*
X120906395Y-66278629D01*
X120895449Y-66284708D01*
X120888897Y-66312444D01*
X120897898Y-66367937D01*
X120904894Y-66403370D01*
X120905114Y-66442187D01*
X120889401Y-66457246D01*
X120878455Y-66463325D01*
X120871902Y-66491061D01*
X120880903Y-66546554D01*
X120887900Y-66581986D01*
X120888121Y-66620804D01*
X120872406Y-66635862D01*
X120855636Y-66651736D01*
X120857528Y-66697529D01*
X120860789Y-66737646D01*
X120842648Y-66759195D01*
X120831703Y-66765273D01*
X120825151Y-66793010D01*
X120834152Y-66848503D01*
X120841149Y-66883935D01*
X120841368Y-66922753D01*
X120825655Y-66937811D01*
X120814709Y-66943890D01*
X120808156Y-66971627D01*
X120817157Y-67027120D01*
X120836302Y-67110046D01*
X118984274Y-67537621D01*
X117132245Y-67965195D01*
X117119482Y-67909912D01*
X117104827Y-67872425D01*
X117079077Y-67861008D01*
X117066573Y-67860343D01*
X117048525Y-67838287D01*
X117032289Y-67784463D01*
X117023045Y-67749550D01*
X117006227Y-67714565D01*
X116985501Y-67707919D01*
X116972999Y-67707253D01*
X116954951Y-67685197D01*
X116938714Y-67631373D01*
X116929470Y-67596460D01*
X116912652Y-67561475D01*
X116891927Y-67554828D01*
X116869895Y-67547914D01*
X116851521Y-67505926D01*
X116836867Y-67468439D01*
X116811116Y-67457023D01*
X116798613Y-67456358D01*
X116780565Y-67434302D01*
X116764329Y-67380478D01*
X116755084Y-67345565D01*
X116738266Y-67310580D01*
X116717541Y-67303933D01*
X116705039Y-67303268D01*
X116686990Y-67281211D01*
X116670754Y-67227388D01*
X116661509Y-67192475D01*
X116644691Y-67157490D01*
X116623967Y-67150843D01*
X116601934Y-67143928D01*
X116583560Y-67101940D01*
X116568906Y-67064454D01*
X116543155Y-67053038D01*
X116530652Y-67052373D01*
X116512604Y-67030315D01*
X116496368Y-66976493D01*
X116487123Y-66941580D01*
X116470305Y-66906595D01*
X116449580Y-66899948D01*
X116437078Y-66899283D01*
X116419030Y-66877226D01*
X116402793Y-66823403D01*
X116393549Y-66788490D01*
X116376730Y-66753505D01*
X116356006Y-66746858D01*
X116343503Y-66746193D01*
X116325455Y-66724136D01*
X116309218Y-66670313D01*
X116299974Y-66635400D01*
X116283156Y-66600415D01*
X116262431Y-66593768D01*
X116240400Y-66586853D01*
X116222026Y-66544865D01*
X116207370Y-66507379D01*
X116181619Y-66495963D01*
X116169117Y-66495298D01*
X116151069Y-66473240D01*
X116134832Y-66419418D01*
X116125589Y-66384505D01*
X116108770Y-66349520D01*
X116088045Y-66342873D01*
X116075542Y-66342208D01*
X116057494Y-66320150D01*
X116041257Y-66266328D01*
X116032014Y-66231415D01*
X116015196Y-66196430D01*
X115994470Y-66189783D01*
X115980838Y-66189549D01*
X115960447Y-66168522D01*
X115957368Y-66165116D01*
X115946858Y-66163125D01*
X115926922Y-66163854D01*
X115895451Y-66167753D01*
X115850336Y-66175278D01*
X115789470Y-66186878D01*
X115710744Y-66203006D01*
X115612049Y-66224114D01*
X115491277Y-66250655D01*
X115346320Y-66283082D01*
X115175069Y-66321844D01*
X114975417Y-66367397D01*
X114745254Y-66420190D01*
X114482472Y-66480677D01*
X114184963Y-66549310D01*
X112415861Y-66957739D01*
X112428625Y-67013024D01*
X112431886Y-67053140D01*
X112413745Y-67074689D01*
X112402800Y-67080768D01*
X112396248Y-67108505D01*
X112405248Y-67163998D01*
X112412244Y-67199430D01*
X112412465Y-67238247D01*
X112396752Y-67253306D01*
X112379980Y-67269179D01*
X112381872Y-67314973D01*
X112385134Y-67355089D01*
X112366994Y-67376639D01*
X112356047Y-67382717D01*
X112349495Y-67410454D01*
X112358497Y-67465947D01*
X112365493Y-67501379D01*
X112365713Y-67540196D01*
X112349999Y-67555256D01*
X112339054Y-67561334D01*
X112332501Y-67589071D01*
X112341502Y-67644563D01*
X112348498Y-67679996D01*
X112348719Y-67718813D01*
X112333005Y-67733872D01*
X112322059Y-67739951D01*
X112315507Y-67767688D01*
X112324508Y-67823180D01*
X112331505Y-67858612D01*
X112331725Y-67897430D01*
X112316011Y-67912488D01*
X112299241Y-67928362D01*
X112301133Y-67974155D01*
X112304393Y-68014272D01*
X112286253Y-68035822D01*
X112275308Y-68041899D01*
X112268755Y-68069636D01*
X112277756Y-68125130D01*
X112284753Y-68160561D01*
X112284973Y-68199379D01*
X112269260Y-68214438D01*
X112258313Y-68220516D01*
X112251761Y-68248253D01*
X112260762Y-68303747D01*
X112267759Y-68339178D01*
X112267979Y-68377995D01*
X112252265Y-68393055D01*
X112241320Y-68399133D01*
X112234766Y-68426870D01*
X112243768Y-68482363D01*
X112250764Y-68517795D01*
X112250985Y-68556612D01*
X112235270Y-68571671D01*
X112218500Y-68587544D01*
X112220392Y-68633337D01*
X112223653Y-68673455D01*
X112205514Y-68695004D01*
X112194567Y-68701082D01*
X112188015Y-68728819D01*
X112197016Y-68784312D01*
X112204012Y-68819744D01*
X112204233Y-68858562D01*
X112188519Y-68873621D01*
X112177574Y-68879699D01*
X112171021Y-68907435D01*
X112180022Y-68962929D01*
X112187018Y-68998360D01*
X112187239Y-69037179D01*
X112171526Y-69052237D01*
X112159375Y-69058424D01*
X112150264Y-69086261D01*
X112150169Y-69087514D01*
X112145604Y-69091800D01*
X112133617Y-69097544D01*
X112112806Y-69105080D01*
X112081771Y-69114742D01*
X112039107Y-69126863D01*
X111983413Y-69141777D01*
X111913288Y-69159820D01*
X111827328Y-69181324D01*
X111724132Y-69206624D01*
X111602299Y-69236054D01*
X111460425Y-69269946D01*
X111297108Y-69308636D01*
X111110948Y-69352458D01*
X110900541Y-69401744D01*
X110664486Y-69456831D01*
X110401380Y-69518050D01*
X110109822Y-69585737D01*
X109788408Y-69660226D01*
X109435738Y-69741848D01*
X109050409Y-69830941D01*
X108631020Y-69927836D01*
X108176167Y-70032869D01*
X108007930Y-70071708D01*
X107566012Y-70173693D01*
X107159030Y-70267560D01*
X106785573Y-70353622D01*
X106444237Y-70432195D01*
X106133615Y-70503593D01*
X105852301Y-70568129D01*
X105598887Y-70626118D01*
X105371968Y-70677875D01*
X105170136Y-70723714D01*
X104991985Y-70763950D01*
X104836108Y-70798898D01*
X104701100Y-70828870D01*
X104585553Y-70854184D01*
X104488060Y-70875151D01*
X104407216Y-70892088D01*
X104341614Y-70905308D01*
X104289846Y-70915126D01*
X104250507Y-70921857D01*
X104222191Y-70925814D01*
X104203489Y-70927314D01*
X104192997Y-70926668D01*
X104189305Y-70924193D01*
X104183119Y-70912044D01*
X104155282Y-70902933D01*
X104133250Y-70896018D01*
X104114876Y-70854030D01*
X104100221Y-70816544D01*
X104074470Y-70805127D01*
X104061968Y-70804462D01*
X104043920Y-70782405D01*
X104027683Y-70728582D01*
X104018439Y-70693669D01*
X104001620Y-70658684D01*
X103980896Y-70652037D01*
X103968393Y-70651372D01*
X103950344Y-70629315D01*
X103934108Y-70575492D01*
X103924864Y-70540580D01*
X103908046Y-70505594D01*
X103887321Y-70498947D01*
X103865290Y-70492033D01*
X103846916Y-70450045D01*
X103832260Y-70412558D01*
X103806509Y-70401142D01*
X103794007Y-70400477D01*
X103775959Y-70378420D01*
X103759722Y-70324597D01*
X103750479Y-70289684D01*
X103733659Y-70254698D01*
X103712935Y-70248052D01*
X103700432Y-70247387D01*
X103682384Y-70225330D01*
X103666147Y-70171507D01*
X103656904Y-70136594D01*
X103640085Y-70101608D01*
X103619360Y-70094962D01*
X103606858Y-70094297D01*
X103588810Y-70072240D01*
X103572573Y-70018417D01*
X103563329Y-69983505D01*
X103546510Y-69948519D01*
X103525785Y-69941872D01*
X103503754Y-69934958D01*
X103485380Y-69892970D01*
X103470724Y-69855483D01*
X103444974Y-69844067D01*
X103432472Y-69843402D01*
X103414423Y-69821345D01*
X103398187Y-69767522D01*
X103388943Y-69732608D01*
X103372125Y-69697623D01*
X103351399Y-69690977D01*
X103338897Y-69690312D01*
X103320849Y-69668255D01*
X103304612Y-69614432D01*
X103295368Y-69579520D01*
X103278550Y-69544533D01*
X103257825Y-69537887D01*
X103245322Y-69537222D01*
X103227274Y-69515165D01*
X103211037Y-69461342D01*
X103201794Y-69426429D01*
X103184975Y-69391443D01*
X103164250Y-69384797D01*
X103142219Y-69377883D01*
X103123845Y-69335895D01*
X103109190Y-69298408D01*
X103083439Y-69286992D01*
X103070937Y-69286326D01*
X103052888Y-69264270D01*
X103036652Y-69210447D01*
X103017507Y-69127520D01*
X101220762Y-69542331D01*
X99424018Y-69957142D01*
X99443163Y-70040069D01*
X99450160Y-70075501D01*
X99450380Y-70114319D01*
X99434666Y-70129377D01*
X99423720Y-70135456D01*
X99417168Y-70163192D01*
X99426169Y-70218686D01*
X99433165Y-70254118D01*
X99433386Y-70292935D01*
X99417672Y-70307994D01*
X99406727Y-70314073D01*
X99400173Y-70341809D01*
X99409175Y-70397302D01*
X99416171Y-70432735D01*
X99416392Y-70471552D01*
X99400677Y-70486611D01*
X99383907Y-70502483D01*
X99385799Y-70548277D01*
X99389060Y-70588394D01*
X99370920Y-70609943D01*
X99359974Y-70616022D01*
X99353422Y-70643758D01*
X99362423Y-70699251D01*
X99369419Y-70734684D01*
X99369640Y-70773501D01*
X99353926Y-70788560D01*
X99342981Y-70794639D01*
X99336428Y-70822375D01*
X99345429Y-70877868D01*
X99352425Y-70913300D01*
X99352646Y-70952118D01*
X99336931Y-70967177D01*
X99320161Y-70983050D01*
X99322053Y-71028843D01*
X99325314Y-71068960D01*
X99307174Y-71090508D01*
X99296228Y-71096588D01*
X99289676Y-71124324D01*
X99298677Y-71179817D01*
X99305673Y-71215249D01*
X99305894Y-71254066D01*
X99290180Y-71269125D01*
X99279235Y-71275204D01*
X99272682Y-71302940D01*
X99281683Y-71358434D01*
X99288679Y-71393866D01*
X99288899Y-71432683D01*
X99273186Y-71447742D01*
X99262240Y-71453821D01*
X99255687Y-71481557D01*
X99264688Y-71537051D01*
X99271685Y-71572483D01*
X99271905Y-71611300D01*
X99256192Y-71626359D01*
X99239422Y-71642232D01*
X99241313Y-71688025D01*
X99244574Y-71728142D01*
X99226434Y-71749691D01*
X99215489Y-71755770D01*
X99208936Y-71783507D01*
X99217937Y-71838999D01*
X99224933Y-71874432D01*
X99225153Y-71913249D01*
X99209440Y-71928308D01*
X99198494Y-71934387D01*
X99191942Y-71962124D01*
X99200942Y-72017616D01*
X99220088Y-72100543D01*
X97423343Y-72515354D01*
X97137560Y-72581286D01*
X96870658Y-72642735D01*
X96636513Y-72696463D01*
X96433032Y-72742919D01*
X96258122Y-72782554D01*
X96109693Y-72815817D01*
X95985651Y-72843155D01*
X95883905Y-72865019D01*
X95802362Y-72881859D01*
X95738931Y-72894122D01*
X95691519Y-72902258D01*
X95658033Y-72906718D01*
X95636383Y-72907949D01*
X95624475Y-72906401D01*
X95620217Y-72902523D01*
X95614031Y-72890373D01*
X95586194Y-72881263D01*
X95564163Y-72874348D01*
X95545788Y-72832360D01*
X95531133Y-72794874D01*
X95505382Y-72783457D01*
X95492880Y-72782792D01*
X95474832Y-72760735D01*
X95458595Y-72706912D01*
X95449352Y-72671999D01*
X95432533Y-72637014D01*
X95411808Y-72630367D01*
X95399305Y-72629702D01*
X95381257Y-72607645D01*
X95365020Y-72553822D01*
X95355776Y-72518909D01*
X95338958Y-72483924D01*
X95318233Y-72477277D01*
X95296202Y-72470362D01*
X95277828Y-72428375D01*
X95263172Y-72390888D01*
X95237421Y-72379472D01*
X95224919Y-72378807D01*
X95206871Y-72356750D01*
X95190634Y-72302927D01*
X95181391Y-72268014D01*
X95164572Y-72233028D01*
X95143847Y-72226382D01*
X95131344Y-72225717D01*
X95113296Y-72203660D01*
X95097060Y-72149837D01*
X95087816Y-72114924D01*
X95070998Y-72079938D01*
X95050272Y-72073292D01*
X95037770Y-72072627D01*
X95019722Y-72050570D01*
X95003485Y-71996747D01*
X94994241Y-71961834D01*
X94977423Y-71926849D01*
X94956698Y-71920202D01*
X94934666Y-71913288D01*
X94916292Y-71871300D01*
X94901637Y-71833813D01*
X94875887Y-71822397D01*
X94863384Y-71821732D01*
X94845335Y-71799675D01*
X94829100Y-71745851D01*
X94819855Y-71710938D01*
X94803037Y-71675953D01*
X94782312Y-71669307D01*
X94769810Y-71668642D01*
X94751761Y-71646585D01*
X94735525Y-71592762D01*
X94726280Y-71557849D01*
X94709462Y-71522863D01*
X94688738Y-71516217D01*
X94676235Y-71515552D01*
X94658186Y-71493495D01*
X94641950Y-71439672D01*
X94632706Y-71404759D01*
X94615888Y-71369773D01*
X94595162Y-71363127D01*
X94573131Y-71356212D01*
X94554757Y-71314224D01*
X94540102Y-71276737D01*
X94514351Y-71265322D01*
X94501849Y-71264656D01*
X94483801Y-71242600D01*
X94467564Y-71188777D01*
X94448419Y-71105850D01*
X92651674Y-71520661D01*
X90854930Y-71935472D01*
X90874075Y-72018399D01*
X90881072Y-72053831D01*
X90881292Y-72092648D01*
X90865579Y-72107707D01*
X90854633Y-72113786D01*
X90848080Y-72141522D01*
X90857081Y-72197016D01*
X90864078Y-72232448D01*
X90864298Y-72271265D01*
X90848584Y-72286324D01*
X90837639Y-72292403D01*
X90831086Y-72320139D01*
X90840087Y-72375632D01*
X90847083Y-72411065D01*
X90847304Y-72449882D01*
X90831590Y-72464941D01*
X90814819Y-72480813D01*
X90816711Y-72526607D01*
X90819972Y-72566724D01*
X90801833Y-72588273D01*
X90790887Y-72594352D01*
X90784334Y-72622088D01*
X90793336Y-72677581D01*
X90800332Y-72713013D01*
X90800552Y-72751831D01*
X90784838Y-72766889D01*
X90773893Y-72772968D01*
X90767340Y-72800704D01*
X90776341Y-72856198D01*
X90783337Y-72891630D01*
X90783558Y-72930447D01*
X90767844Y-72945506D01*
X90751073Y-72961380D01*
X90752965Y-73007173D01*
X90756226Y-73047289D01*
X90738086Y-73068838D01*
X90727140Y-73074917D01*
X90720588Y-73102654D01*
X90729590Y-73158147D01*
X90736586Y-73193579D01*
X90736806Y-73232396D01*
X90721092Y-73247455D01*
X90710147Y-73253534D01*
X90703594Y-73281270D01*
X90712595Y-73336763D01*
X90719591Y-73372196D01*
X90719812Y-73411013D01*
X90704098Y-73426072D01*
X90693152Y-73432151D01*
X90686600Y-73459887D01*
X90695601Y-73515380D01*
X90702598Y-73550812D01*
X90702818Y-73589630D01*
X90687104Y-73604689D01*
X90670334Y-73620562D01*
X90672226Y-73666355D01*
X90675486Y-73706472D01*
X90657346Y-73728021D01*
X90646401Y-73734100D01*
X90639848Y-73761837D01*
X90648849Y-73817329D01*
X90655845Y-73852761D01*
X90656066Y-73891579D01*
X90640352Y-73906637D01*
X90629406Y-73912716D01*
X90622854Y-73940453D01*
X90631855Y-73995946D01*
X90651000Y-74078873D01*
X88798972Y-74506447D01*
X86946943Y-74934022D01*
X86934179Y-74878738D01*
X86919524Y-74841251D01*
X86893774Y-74829835D01*
X86881271Y-74829169D01*
X86863223Y-74807113D01*
X86846986Y-74753290D01*
X86837742Y-74718376D01*
X86820924Y-74683391D01*
X86800199Y-74676745D01*
X86787697Y-74676079D01*
X86769649Y-74654023D01*
X86753412Y-74600200D01*
X86744167Y-74565286D01*
X86727349Y-74530301D01*
X86706625Y-74523655D01*
X86684593Y-74516741D01*
X86666218Y-74474752D01*
X86651563Y-74437266D01*
X86625813Y-74425850D01*
X86613310Y-74425184D01*
X86595262Y-74403128D01*
X86579026Y-74349304D01*
X86569782Y-74314391D01*
X86552964Y-74279406D01*
X86532238Y-74272760D01*
X86519736Y-74272094D01*
X86501688Y-74250038D01*
X86485451Y-74196215D01*
X86476207Y-74161301D01*
X86459388Y-74126316D01*
X86438664Y-74119670D01*
X86416632Y-74112754D01*
X86398258Y-74070767D01*
X86383604Y-74033280D01*
X86357853Y-74021864D01*
X86345349Y-74021199D01*
X86327301Y-73999142D01*
X86311066Y-73945319D01*
X86301821Y-73910406D01*
X86285003Y-73875421D01*
X86264278Y-73868775D01*
X86251775Y-73868109D01*
X86233727Y-73846053D01*
X86217491Y-73792230D01*
X86208246Y-73757316D01*
X86191428Y-73722331D01*
X86170703Y-73715684D01*
X86158200Y-73715019D01*
X86140152Y-73692963D01*
X86123915Y-73639140D01*
X86114672Y-73604226D01*
X86097854Y-73569241D01*
X86077128Y-73562595D01*
X86055097Y-73555679D01*
X86036723Y-73513691D01*
X86022068Y-73476205D01*
X85996317Y-73464790D01*
X85983815Y-73464124D01*
X85965766Y-73442067D01*
X85949530Y-73388244D01*
X85940286Y-73353331D01*
X85923467Y-73318346D01*
X85902743Y-73311699D01*
X85890240Y-73311034D01*
X85872191Y-73288977D01*
X85855955Y-73235155D01*
X85846711Y-73200241D01*
X85829893Y-73165256D01*
X85809168Y-73158610D01*
X85795536Y-73158375D01*
X85775144Y-73137348D01*
X85772066Y-73133942D01*
X85761556Y-73131952D01*
X85741620Y-73132680D01*
X85710148Y-73136579D01*
X85665034Y-73144104D01*
X85604167Y-73155704D01*
X85525441Y-73171832D01*
X85426746Y-73192941D01*
X85305974Y-73219482D01*
X85161017Y-73251908D01*
X84989767Y-73290670D01*
X84790115Y-73336223D01*
X84559952Y-73389016D01*
X84297169Y-73449503D01*
X83999660Y-73518136D01*
X82230558Y-73926565D01*
X82243321Y-73981850D01*
X82246583Y-74021967D01*
X82228443Y-74043516D01*
X82217497Y-74049594D01*
X82210945Y-74077331D01*
X82219946Y-74132824D01*
X82226942Y-74168256D01*
X82227162Y-74207074D01*
X82211449Y-74222132D01*
X82194678Y-74238006D01*
X82196570Y-74283799D01*
X82199830Y-74323915D01*
X82181691Y-74345465D01*
X82170745Y-74351543D01*
X82164192Y-74379280D01*
X82173194Y-74434774D01*
X82180190Y-74470205D01*
X82180411Y-74509022D01*
X82164697Y-74524082D01*
X82153751Y-74530160D01*
X82147199Y-74557897D01*
X82156200Y-74613389D01*
X82163196Y-74648822D01*
X82163416Y-74687639D01*
X82147703Y-74702698D01*
X82136757Y-74708777D01*
X82130204Y-74736514D01*
X82139205Y-74792006D01*
X82146202Y-74827439D01*
X82146423Y-74866256D01*
X82130708Y-74881315D01*
X82113938Y-74897188D01*
X82115830Y-74942981D01*
X82119091Y-74983098D01*
X82100951Y-75004648D01*
X82090005Y-75010726D01*
X82083453Y-75038463D01*
X82092454Y-75093956D01*
X82099449Y-75129387D01*
X82099670Y-75168205D01*
X82083957Y-75183264D01*
X82073011Y-75189343D01*
X82066458Y-75217079D01*
X82075459Y-75272573D01*
X82082456Y-75308004D01*
X82082677Y-75346821D01*
X82066963Y-75361881D01*
X82056016Y-75367959D01*
X82049464Y-75395696D01*
X82058466Y-75451190D01*
X82065461Y-75486621D01*
X82065682Y-75525438D01*
X82049968Y-75540497D01*
X82033198Y-75556370D01*
X82035089Y-75602164D01*
X82038351Y-75642281D01*
X82020211Y-75663830D01*
X82009265Y-75669908D01*
X82002712Y-75697645D01*
X82011713Y-75753139D01*
X82018710Y-75788570D01*
X82018931Y-75827388D01*
X82003217Y-75842447D01*
X81992271Y-75848525D01*
X81985718Y-75876262D01*
X81994720Y-75931755D01*
X82001715Y-75967187D01*
X82001936Y-76006005D01*
X81986222Y-76021064D01*
X81974072Y-76027250D01*
X81964962Y-76055087D01*
X81964888Y-76056023D01*
X81960647Y-76059788D01*
X81949391Y-76064987D01*
X81929925Y-76071900D01*
X81901056Y-76080809D01*
X81861590Y-76091998D01*
X81810335Y-76105747D01*
X81746094Y-76122340D01*
X81667674Y-76142055D01*
X81573882Y-76165179D01*
X81463522Y-76191990D01*
X81335404Y-76222773D01*
X81188331Y-76257807D01*
X81021110Y-76297376D01*
X80832546Y-76341761D01*
X80621448Y-76391244D01*
X80386619Y-76446108D01*
X80126867Y-76506634D01*
X79840998Y-76573104D01*
X79527816Y-76645800D01*
X79186130Y-76725004D01*
X78814744Y-76810999D01*
X78412466Y-76904065D01*
X77978100Y-77004485D01*
X77510453Y-77112541D01*
X77008331Y-77228515D01*
X76470542Y-77352689D01*
X76297001Y-77392753D01*
X75770578Y-77514262D01*
X75279431Y-77627590D01*
X74822364Y-77733006D01*
X74398179Y-77830781D01*
X74005681Y-77921185D01*
X73643670Y-78004489D01*
X73310953Y-78080961D01*
X73006332Y-78150870D01*
X72728610Y-78214490D01*
X72476592Y-78272087D01*
X72249078Y-78323933D01*
X72044874Y-78370297D01*
X71862783Y-78411450D01*
X71701608Y-78447662D01*
X71560151Y-78479201D01*
X71437218Y-78506339D01*
X71331610Y-78529345D01*
X71242132Y-78548489D01*
X71167586Y-78564041D01*
X71106776Y-78576271D01*
X71058506Y-78585449D01*
X71021578Y-78591845D01*
X70994796Y-78595729D01*
X70976963Y-78597371D01*
X70966883Y-78597041D01*
X70963359Y-78595007D01*
X70963370Y-78594277D01*
X70967187Y-78590590D01*
X70977943Y-78585489D01*
X70996838Y-78578691D01*
X71025066Y-78569913D01*
X71063826Y-78558873D01*
X71114313Y-78545289D01*
X71177725Y-78528877D01*
X71255259Y-78509354D01*
X71348111Y-78486437D01*
X71457479Y-78459845D01*
X71584560Y-78429295D01*
X71730550Y-78394504D01*
X71896646Y-78355188D01*
X72084044Y-78311067D01*
X72293944Y-78261855D01*
X72527539Y-78207272D01*
X72786029Y-78147033D01*
X73070608Y-78080859D01*
X73382476Y-78008463D01*
X73722828Y-77929565D01*
X74092861Y-77843881D01*
X74493772Y-77751130D01*
X74926758Y-77651027D01*
X75393017Y-77543291D01*
X75893744Y-77427639D01*
X76430137Y-77303787D01*
X76566997Y-77272189D01*
X77094403Y-77150404D01*
X77586442Y-77036748D01*
X78044310Y-76930937D01*
X78469203Y-76832690D01*
X78862320Y-76741723D01*
X79224857Y-76657754D01*
X79558009Y-76580501D01*
X79862975Y-76509680D01*
X80140952Y-76445008D01*
X80393135Y-76386203D01*
X80620723Y-76332983D01*
X80824912Y-76285064D01*
X81006898Y-76242165D01*
X81167880Y-76204001D01*
X81309052Y-76170292D01*
X81431615Y-76140753D01*
X81536761Y-76115102D01*
X81625691Y-76093057D01*
X81699599Y-76074334D01*
X81759683Y-76058651D01*
X81807141Y-76045726D01*
X81843169Y-76035276D01*
X81868963Y-76027017D01*
X81885720Y-76020668D01*
X81894638Y-76015945D01*
X81896913Y-76012566D01*
X81897149Y-75998934D01*
X81918175Y-75978542D01*
X81929120Y-75972463D01*
X81935672Y-75944727D01*
X81926671Y-75889234D01*
X81919676Y-75853801D01*
X81919455Y-75814984D01*
X81935168Y-75799926D01*
X81946114Y-75793846D01*
X81952667Y-75766111D01*
X81943666Y-75710617D01*
X81936669Y-75675185D01*
X81936449Y-75636368D01*
X81952163Y-75621309D01*
X81963109Y-75615231D01*
X81969662Y-75587494D01*
X81960660Y-75532000D01*
X81953664Y-75496568D01*
X81953443Y-75457751D01*
X81969157Y-75442692D01*
X81985928Y-75426820D01*
X81984036Y-75381026D01*
X81980775Y-75340909D01*
X81998914Y-75319360D01*
X82009860Y-75313281D01*
X82016413Y-75285545D01*
X82007412Y-75230051D01*
X82000415Y-75194619D01*
X82000195Y-75155802D01*
X82015909Y-75140743D01*
X82026855Y-75134664D01*
X82033408Y-75106928D01*
X82024406Y-75051435D01*
X82017410Y-75016002D01*
X82017189Y-74977185D01*
X82032903Y-74962126D01*
X82043848Y-74956047D01*
X82050401Y-74928311D01*
X82041400Y-74872818D01*
X82034404Y-74837385D01*
X82034184Y-74798568D01*
X82049897Y-74783510D01*
X82066668Y-74767637D01*
X82064776Y-74721843D01*
X82061514Y-74681726D01*
X82079655Y-74660177D01*
X82090600Y-74654099D01*
X82097154Y-74626362D01*
X82088152Y-74570869D01*
X82081156Y-74535437D01*
X82080935Y-74496619D01*
X82096649Y-74481561D01*
X82107594Y-74475482D01*
X82114147Y-74447746D01*
X82105146Y-74392252D01*
X82098149Y-74356820D01*
X82097930Y-74318003D01*
X82113643Y-74302944D01*
X82130413Y-74287071D01*
X82128522Y-74241277D01*
X82125260Y-74201161D01*
X82143401Y-74179612D01*
X82154346Y-74173533D01*
X82160899Y-74145796D01*
X82151898Y-74090304D01*
X82144902Y-74054871D01*
X82144681Y-74016054D01*
X82160395Y-74000995D01*
X82177166Y-73985122D01*
X82175274Y-73939329D01*
X82162510Y-73884044D01*
X83986897Y-73462851D01*
X84008138Y-73457948D01*
X84308146Y-73388743D01*
X84573531Y-73327658D01*
X84806371Y-73274247D01*
X85008741Y-73228060D01*
X85182718Y-73188654D01*
X85330379Y-73155582D01*
X85453800Y-73128396D01*
X85555056Y-73106653D01*
X85636225Y-73089903D01*
X85699382Y-73077702D01*
X85746604Y-73069603D01*
X85779967Y-73065160D01*
X85801547Y-73063926D01*
X85813421Y-73065455D01*
X85817665Y-73069301D01*
X85823852Y-73081451D01*
X85851689Y-73090561D01*
X85864191Y-73091227D01*
X85882239Y-73113283D01*
X85898476Y-73167106D01*
X85907721Y-73202020D01*
X85924539Y-73237005D01*
X85945263Y-73243651D01*
X85967295Y-73250565D01*
X85985669Y-73292554D01*
X86000324Y-73330041D01*
X86026075Y-73341456D01*
X86038578Y-73342122D01*
X86056626Y-73364179D01*
X86072862Y-73418001D01*
X86082106Y-73452915D01*
X86098924Y-73487900D01*
X86119650Y-73494546D01*
X86132152Y-73495212D01*
X86150200Y-73517268D01*
X86166437Y-73571091D01*
X86175681Y-73606005D01*
X86192500Y-73640990D01*
X86213224Y-73647636D01*
X86225727Y-73648302D01*
X86243775Y-73670358D01*
X86260012Y-73724181D01*
X86269256Y-73759095D01*
X86286074Y-73794080D01*
X86306799Y-73800726D01*
X86328830Y-73807642D01*
X86347204Y-73849629D01*
X86361859Y-73887116D01*
X86387610Y-73898531D01*
X86400113Y-73899197D01*
X86418161Y-73921254D01*
X86434397Y-73975076D01*
X86443641Y-74009990D01*
X86460460Y-74044975D01*
X86481184Y-74051621D01*
X86493688Y-74052287D01*
X86511736Y-74074344D01*
X86527972Y-74128166D01*
X86537216Y-74163080D01*
X86554034Y-74198065D01*
X86574760Y-74204711D01*
X86587262Y-74205377D01*
X86605310Y-74227433D01*
X86621547Y-74281256D01*
X86630791Y-74316170D01*
X86647609Y-74351155D01*
X86668335Y-74357801D01*
X86690366Y-74364717D01*
X86708740Y-74406704D01*
X86723395Y-74444190D01*
X86749145Y-74455607D01*
X86761648Y-74456272D01*
X86779697Y-74478329D01*
X86795932Y-74532152D01*
X86805177Y-74567065D01*
X86821995Y-74602050D01*
X86842720Y-74608696D01*
X86855222Y-74609362D01*
X86873271Y-74631419D01*
X86889507Y-74685242D01*
X86898752Y-74720155D01*
X86915570Y-74755140D01*
X86936294Y-74761787D01*
X86958327Y-74768702D01*
X86976701Y-74810689D01*
X86989464Y-74865974D01*
X88786208Y-74451163D01*
X90582953Y-74036352D01*
X90563808Y-73953425D01*
X90556811Y-73917993D01*
X90556590Y-73879176D01*
X90572304Y-73864117D01*
X90583250Y-73858038D01*
X90589803Y-73830301D01*
X90580801Y-73774809D01*
X90573805Y-73739376D01*
X90573585Y-73700559D01*
X90589299Y-73685500D01*
X90606069Y-73669627D01*
X90604177Y-73623834D01*
X90600916Y-73583717D01*
X90619056Y-73562167D01*
X90630002Y-73556089D01*
X90636554Y-73528352D01*
X90627554Y-73472860D01*
X90620557Y-73437428D01*
X90620336Y-73398610D01*
X90636050Y-73383551D01*
X90646996Y-73377472D01*
X90653549Y-73349735D01*
X90644547Y-73294243D01*
X90637551Y-73258811D01*
X90637331Y-73219993D01*
X90653045Y-73204935D01*
X90663990Y-73198856D01*
X90670542Y-73171119D01*
X90661542Y-73115626D01*
X90654545Y-73080194D01*
X90654325Y-73041377D01*
X90670038Y-73026318D01*
X90686809Y-73010445D01*
X90684918Y-72964651D01*
X90681656Y-72924535D01*
X90699796Y-72902985D01*
X90710741Y-72896907D01*
X90717295Y-72869170D01*
X90708293Y-72813677D01*
X90701297Y-72778245D01*
X90701077Y-72739428D01*
X90716791Y-72724368D01*
X90727736Y-72718290D01*
X90734289Y-72690553D01*
X90725287Y-72635060D01*
X90718291Y-72599628D01*
X90718071Y-72560811D01*
X90733784Y-72545752D01*
X90744731Y-72539673D01*
X90751283Y-72511936D01*
X90742282Y-72456444D01*
X90735285Y-72421012D01*
X90735065Y-72382194D01*
X90750779Y-72367135D01*
X90767549Y-72351262D01*
X90765657Y-72305469D01*
X90762396Y-72265351D01*
X90780536Y-72243803D01*
X90791482Y-72237724D01*
X90798035Y-72209988D01*
X90789034Y-72154494D01*
X90782037Y-72119063D01*
X90781817Y-72080244D01*
X90797530Y-72065186D01*
X90808477Y-72059108D01*
X90815029Y-72031371D01*
X90806027Y-71975877D01*
X90786882Y-71892951D01*
X92638911Y-71465376D01*
X94490940Y-71037802D01*
X94510085Y-71120728D01*
X94519329Y-71155642D01*
X94536147Y-71190627D01*
X94556872Y-71197273D01*
X94578903Y-71204189D01*
X94597278Y-71246176D01*
X94611933Y-71283662D01*
X94637684Y-71295079D01*
X94650186Y-71295744D01*
X94668234Y-71317801D01*
X94684471Y-71371624D01*
X94693715Y-71406537D01*
X94710534Y-71441522D01*
X94731258Y-71448169D01*
X94743761Y-71448834D01*
X94761809Y-71470891D01*
X94778046Y-71524714D01*
X94787290Y-71559627D01*
X94804108Y-71594612D01*
X94824833Y-71601259D01*
X94837335Y-71601924D01*
X94855384Y-71623981D01*
X94871620Y-71677803D01*
X94880865Y-71712717D01*
X94897683Y-71747702D01*
X94918408Y-71754348D01*
X94940439Y-71761264D01*
X94958813Y-71803251D01*
X94973469Y-71840738D01*
X94999219Y-71852155D01*
X95011722Y-71852819D01*
X95029770Y-71874876D01*
X95046007Y-71928699D01*
X95055250Y-71963612D01*
X95072069Y-71998598D01*
X95092794Y-72005244D01*
X95105296Y-72005909D01*
X95123344Y-72027966D01*
X95139581Y-72081789D01*
X95148825Y-72116702D01*
X95165643Y-72151687D01*
X95186368Y-72158334D01*
X95208400Y-72165249D01*
X95226774Y-72207236D01*
X95241429Y-72244723D01*
X95267179Y-72256140D01*
X95279682Y-72256804D01*
X95297731Y-72278861D01*
X95313966Y-72332685D01*
X95323211Y-72367598D01*
X95340029Y-72402583D01*
X95360754Y-72409229D01*
X95373256Y-72409894D01*
X95391305Y-72431951D01*
X95407542Y-72485775D01*
X95416786Y-72520687D01*
X95433604Y-72555673D01*
X95454329Y-72562320D01*
X95466831Y-72562984D01*
X95484880Y-72585041D01*
X95501117Y-72638864D01*
X95510360Y-72673777D01*
X95527178Y-72708763D01*
X95547904Y-72715409D01*
X95569935Y-72722324D01*
X95588309Y-72764312D01*
X95602964Y-72801799D01*
X95628715Y-72813215D01*
X95642347Y-72813449D01*
X95662739Y-72834475D01*
X95665106Y-72837511D01*
X95674666Y-72839819D01*
X95693438Y-72839443D01*
X95723544Y-72835932D01*
X95767110Y-72828828D01*
X95826261Y-72817676D01*
X95903122Y-72802021D01*
X95999819Y-72781410D01*
X96118476Y-72755385D01*
X96261218Y-72723492D01*
X96430170Y-72685274D01*
X96627457Y-72640279D01*
X96855204Y-72588051D01*
X97115538Y-72528132D01*
X97410580Y-72460070D01*
X99152040Y-72058022D01*
X99132895Y-71975096D01*
X99125898Y-71939663D01*
X99125678Y-71900846D01*
X99141392Y-71885787D01*
X99152338Y-71879708D01*
X99158891Y-71851971D01*
X99149889Y-71796479D01*
X99142893Y-71761047D01*
X99142672Y-71722229D01*
X99158387Y-71707170D01*
X99175157Y-71691297D01*
X99173265Y-71645504D01*
X99170004Y-71605387D01*
X99188143Y-71583838D01*
X99199090Y-71577759D01*
X99205642Y-71550023D01*
X99196641Y-71494530D01*
X99189645Y-71459098D01*
X99189424Y-71420281D01*
X99205138Y-71405222D01*
X99216083Y-71399143D01*
X99222637Y-71371406D01*
X99213635Y-71315913D01*
X99206639Y-71280481D01*
X99206418Y-71241664D01*
X99222133Y-71226605D01*
X99233078Y-71220526D01*
X99239630Y-71192789D01*
X99230629Y-71137296D01*
X99223633Y-71101864D01*
X99223413Y-71063047D01*
X99239126Y-71047988D01*
X99255896Y-71032115D01*
X99254006Y-70986321D01*
X99250744Y-70946205D01*
X99268884Y-70924655D01*
X99279829Y-70918577D01*
X99286382Y-70890840D01*
X99277381Y-70835347D01*
X99270385Y-70799915D01*
X99270164Y-70761098D01*
X99285878Y-70746038D01*
X99296824Y-70739960D01*
X99303376Y-70712223D01*
X99294375Y-70656730D01*
X99287379Y-70621299D01*
X99287159Y-70582481D01*
X99302872Y-70567423D01*
X99313818Y-70561343D01*
X99320371Y-70533607D01*
X99311369Y-70478114D01*
X99304373Y-70442682D01*
X99304153Y-70403865D01*
X99319867Y-70388806D01*
X99336637Y-70372932D01*
X99334745Y-70327139D01*
X99331484Y-70287022D01*
X99349624Y-70265473D01*
X99360570Y-70259395D01*
X99367122Y-70231658D01*
X99358121Y-70176164D01*
X99351125Y-70140733D01*
X99350904Y-70101915D01*
X99366618Y-70086856D01*
X99377564Y-70080778D01*
X99384117Y-70053041D01*
X99375115Y-69997548D01*
X99355970Y-69914621D01*
X101207999Y-69487046D01*
X103060028Y-69059472D01*
X103079173Y-69142398D01*
X103088417Y-69177312D01*
X103105235Y-69212297D01*
X103125960Y-69218943D01*
X103147991Y-69225859D01*
X103166365Y-69267847D01*
X103181021Y-69305333D01*
X103206772Y-69316750D01*
X103219274Y-69317414D01*
X103237322Y-69339472D01*
X103253559Y-69393295D01*
X103262802Y-69428207D01*
X103279621Y-69463192D01*
X103300346Y-69469840D01*
X103312849Y-69470504D01*
X103330897Y-69492561D01*
X103347134Y-69546384D01*
X103356377Y-69581297D01*
X103373195Y-69616282D01*
X103393921Y-69622930D01*
X103406423Y-69623594D01*
X103424471Y-69645652D01*
X103440708Y-69699474D01*
X103449952Y-69734387D01*
X103466770Y-69769372D01*
X103487495Y-69776019D01*
X103509527Y-69782934D01*
X103527901Y-69824922D01*
X103542556Y-69862409D01*
X103568307Y-69873825D01*
X103580809Y-69874489D01*
X103598858Y-69896547D01*
X103615094Y-69950370D01*
X103624338Y-69985282D01*
X103641156Y-70020268D01*
X103661882Y-70026915D01*
X103674384Y-70027579D01*
X103692432Y-70049637D01*
X103708669Y-70103460D01*
X103717913Y-70138372D01*
X103734731Y-70173357D01*
X103755456Y-70180005D01*
X103777488Y-70186919D01*
X103795862Y-70228907D01*
X103810516Y-70266394D01*
X103836267Y-70277810D01*
X103848770Y-70278474D01*
X103866819Y-70300532D01*
X103883054Y-70354355D01*
X103892299Y-70389268D01*
X103909117Y-70424253D01*
X103929842Y-70430900D01*
X103942344Y-70431564D01*
X103960393Y-70453622D01*
X103976629Y-70507445D01*
X103985874Y-70542357D01*
X104002692Y-70577343D01*
X104023416Y-70583990D01*
X104035919Y-70584654D01*
X104053968Y-70606712D01*
X104070204Y-70660535D01*
X104079448Y-70695447D01*
X104096266Y-70730433D01*
X104116991Y-70737080D01*
X104139022Y-70743994D01*
X104157397Y-70785982D01*
X104172052Y-70823469D01*
X104197803Y-70834885D01*
X104211435Y-70835119D01*
X104231826Y-70856145D01*
X104232096Y-70856787D01*
X104237067Y-70858935D01*
X104249140Y-70859181D01*
X104269733Y-70857211D01*
X104300260Y-70852708D01*
X104342139Y-70845354D01*
X104396787Y-70834835D01*
X104465618Y-70820831D01*
X104550050Y-70803029D01*
X104651499Y-70781110D01*
X104771383Y-70754759D01*
X104911118Y-70723658D01*
X105072117Y-70687492D01*
X105255802Y-70645943D01*
X105463584Y-70598696D01*
X105696883Y-70545434D01*
X105957115Y-70485841D01*
X106245695Y-70419598D01*
X106564040Y-70346391D01*
X106913568Y-70265903D01*
X107295692Y-70177817D01*
X107711833Y-70081816D01*
X108163404Y-69977585D01*
X108258288Y-69955678D01*
X108702516Y-69853088D01*
X109111578Y-69758565D01*
X109486887Y-69671769D01*
X109829852Y-69592368D01*
X110141888Y-69520022D01*
X110424405Y-69454395D01*
X110678815Y-69395152D01*
X110906531Y-69341957D01*
X111108964Y-69294471D01*
X111287525Y-69252360D01*
X111443627Y-69215287D01*
X111578682Y-69182914D01*
X111694101Y-69154906D01*
X111791296Y-69130927D01*
X111871678Y-69110640D01*
X111936661Y-69093707D01*
X111987655Y-69079794D01*
X112026073Y-69068564D01*
X112053326Y-69059680D01*
X112070827Y-69052806D01*
X112079986Y-69047604D01*
X112082217Y-69043740D01*
X112082451Y-69030107D01*
X112103477Y-69009716D01*
X112114422Y-69003637D01*
X112120975Y-68975901D01*
X112111974Y-68920408D01*
X112104978Y-68884975D01*
X112104758Y-68846158D01*
X112120472Y-68831099D01*
X112131417Y-68825020D01*
X112137970Y-68797284D01*
X112128969Y-68741791D01*
X112121972Y-68706359D01*
X112121752Y-68667541D01*
X112137465Y-68652482D01*
X112148412Y-68646404D01*
X112154964Y-68618667D01*
X112145962Y-68563174D01*
X112138966Y-68527742D01*
X112138746Y-68488925D01*
X112154460Y-68473866D01*
X112171230Y-68457993D01*
X112169338Y-68412200D01*
X112166077Y-68372083D01*
X112184217Y-68350534D01*
X112195163Y-68344455D01*
X112201716Y-68316719D01*
X112192715Y-68261225D01*
X112185718Y-68225793D01*
X112185497Y-68186976D01*
X112201211Y-68171917D01*
X112212157Y-68165838D01*
X112218710Y-68138102D01*
X112209708Y-68082609D01*
X112202712Y-68047176D01*
X112202492Y-68008359D01*
X112218206Y-67993300D01*
X112229151Y-67987221D01*
X112235704Y-67959485D01*
X112226703Y-67903992D01*
X112219707Y-67868559D01*
X112219486Y-67829742D01*
X112235199Y-67814683D01*
X112251971Y-67798811D01*
X112250079Y-67753017D01*
X112246817Y-67712900D01*
X112264957Y-67691351D01*
X112275903Y-67685272D01*
X112282456Y-67657536D01*
X112273454Y-67602043D01*
X112266458Y-67566611D01*
X112266238Y-67527793D01*
X112281952Y-67512734D01*
X112292897Y-67506655D01*
X112299450Y-67478920D01*
X112290449Y-67423426D01*
X112283453Y-67387994D01*
X112283232Y-67349176D01*
X112298945Y-67334118D01*
X112315717Y-67318244D01*
X112313825Y-67272451D01*
X112310563Y-67232335D01*
X112328703Y-67210786D01*
X112339650Y-67204707D01*
X112346202Y-67176970D01*
X112337200Y-67121477D01*
X112330204Y-67086045D01*
X112329984Y-67047228D01*
X112345698Y-67032169D01*
X112362468Y-67016296D01*
X112360576Y-66970502D01*
X112347813Y-66915218D01*
X114172199Y-66494025D01*
X114193442Y-66489122D01*
X114493448Y-66419917D01*
X114758834Y-66358832D01*
X114991673Y-66305420D01*
X115194044Y-66259234D01*
X115368021Y-66219828D01*
X115515682Y-66186756D01*
X115639103Y-66159570D01*
X115740359Y-66137826D01*
X115821527Y-66121077D01*
X115884684Y-66108876D01*
X115931907Y-66100777D01*
X115965269Y-66096334D01*
X115986850Y-66095100D01*
X115998723Y-66096629D01*
X116002967Y-66100475D01*
X116009155Y-66112624D01*
X116036992Y-66121735D01*
X116049494Y-66122401D01*
X116067542Y-66144457D01*
X116083779Y-66198280D01*
X116093023Y-66233193D01*
X116109841Y-66268179D01*
X116130566Y-66274825D01*
X116152598Y-66281739D01*
X116170972Y-66323728D01*
X116185627Y-66361214D01*
X116211377Y-66372630D01*
X116223880Y-66373296D01*
X116241929Y-66395353D01*
X116258164Y-66449175D01*
X116267409Y-66484089D01*
X116284227Y-66519074D01*
X116304952Y-66525720D01*
X116317454Y-66526386D01*
X116335503Y-66548442D01*
X116351739Y-66602265D01*
X116360984Y-66637178D01*
X116377802Y-66672164D01*
X116398526Y-66678810D01*
X116411030Y-66679476D01*
X116429078Y-66701532D01*
X116445314Y-66755355D01*
X116454558Y-66790268D01*
X116471376Y-66825254D01*
X116492101Y-66831900D01*
X116514133Y-66838815D01*
X116532507Y-66880803D01*
X116547162Y-66918289D01*
X116572913Y-66929705D01*
X116585415Y-66930371D01*
X116603464Y-66952428D01*
X116619700Y-67006250D01*
X116628945Y-67041163D01*
X116645763Y-67076149D01*
X116666487Y-67082795D01*
X116678990Y-67083461D01*
X116697039Y-67105518D01*
X116713275Y-67159340D01*
X116722519Y-67194254D01*
X116739337Y-67229239D01*
X116760062Y-67235885D01*
X116772565Y-67236551D01*
X116790613Y-67258607D01*
X116806849Y-67312430D01*
X116816094Y-67347343D01*
X116832912Y-67382329D01*
X116853637Y-67388975D01*
X116875668Y-67395890D01*
X116894043Y-67437878D01*
X116908698Y-67475364D01*
X116934448Y-67486780D01*
X116946951Y-67487446D01*
X116964999Y-67509503D01*
X116981236Y-67563325D01*
X116990479Y-67598239D01*
X117007298Y-67633224D01*
X117028023Y-67639870D01*
X117040525Y-67640536D01*
X117058574Y-67662593D01*
X117074810Y-67716415D01*
X117084055Y-67751329D01*
X117100873Y-67786314D01*
X117121598Y-67792960D01*
X117143629Y-67799875D01*
X117162003Y-67841863D01*
X117174767Y-67897148D01*
X118971511Y-67482337D01*
X120768255Y-67067526D01*
X120749110Y-66984599D01*
X120742113Y-66949167D01*
X120741894Y-66910350D01*
X120757607Y-66895291D01*
X120768553Y-66889212D01*
X120775105Y-66861475D01*
X120766104Y-66805983D01*
X120759108Y-66770550D01*
X120758887Y-66731733D01*
X120774601Y-66716674D01*
X120791371Y-66700801D01*
X120789480Y-66655008D01*
X120786219Y-66614891D01*
X120804358Y-66593341D01*
X120815304Y-66587263D01*
X120821857Y-66559526D01*
X120812856Y-66504034D01*
X120805859Y-66468601D01*
X120805639Y-66429784D01*
X120821353Y-66414725D01*
X120832299Y-66408646D01*
X120838851Y-66380909D01*
X120829850Y-66325417D01*
X120822854Y-66289985D01*
X120822633Y-66251167D01*
X120838347Y-66236108D01*
X120849292Y-66230029D01*
X120855845Y-66202293D01*
X120846844Y-66146800D01*
X120839848Y-66111368D01*
X120839628Y-66072550D01*
X120855341Y-66057492D01*
X120872112Y-66041618D01*
X120870220Y-65995825D01*
X120866959Y-65955709D01*
X120885099Y-65934159D01*
X120896045Y-65928081D01*
X120902598Y-65900344D01*
X120893596Y-65844850D01*
X120886600Y-65809419D01*
X120886379Y-65770602D01*
X120902093Y-65755542D01*
X120913039Y-65749464D01*
X120919591Y-65721727D01*
X120910590Y-65666233D01*
X120903593Y-65630802D01*
X120903374Y-65591985D01*
X120919087Y-65576926D01*
X120930033Y-65570847D01*
X120936586Y-65543110D01*
X120927585Y-65487618D01*
X120920588Y-65452185D01*
X120920367Y-65413368D01*
X120936082Y-65398309D01*
X120952852Y-65382436D01*
X120950960Y-65336643D01*
X120947699Y-65296525D01*
X120965839Y-65274976D01*
X120976785Y-65268898D01*
X120983337Y-65241161D01*
X120974336Y-65185668D01*
X120967339Y-65150237D01*
X120967120Y-65111418D01*
X120982833Y-65096360D01*
X120993779Y-65090281D01*
X121000332Y-65062544D01*
X120991331Y-65007051D01*
X120972185Y-64924124D01*
X122824214Y-64496550D01*
X124676243Y-64068975D01*
X124695388Y-64151902D01*
X124704631Y-64186815D01*
X124721449Y-64221801D01*
X124742175Y-64228447D01*
X124764206Y-64235362D01*
X124782580Y-64277350D01*
X124797235Y-64314836D01*
X124822987Y-64326253D01*
X124835488Y-64326918D01*
X124853537Y-64348975D01*
X124869774Y-64402798D01*
X124879018Y-64437710D01*
X124895836Y-64472696D01*
X124916561Y-64479343D01*
X124929064Y-64480008D01*
X124947112Y-64502065D01*
X124963349Y-64555888D01*
X124972592Y-64590801D01*
X124989410Y-64625786D01*
X125010136Y-64632433D01*
X125022639Y-64633098D01*
X125040687Y-64655155D01*
X125056922Y-64708977D01*
X125066167Y-64743890D01*
X125082985Y-64778876D01*
X125103710Y-64785522D01*
X125125742Y-64792437D01*
X125144116Y-64834425D01*
X125158771Y-64871912D01*
X125184521Y-64883328D01*
X125197024Y-64883993D01*
X125215073Y-64906050D01*
X125231309Y-64959873D01*
X125240553Y-64994786D01*
X125257371Y-65029772D01*
X125278096Y-65036418D01*
X125290598Y-65037083D01*
X125308648Y-65059140D01*
X125324883Y-65112963D01*
X125334128Y-65147875D01*
X125350946Y-65182861D01*
X125371671Y-65189508D01*
X125393702Y-65196422D01*
X125412077Y-65238410D01*
X125426732Y-65275897D01*
X125452482Y-65287313D01*
X125464985Y-65287978D01*
X125483033Y-65310035D01*
X125499270Y-65363858D01*
X125508514Y-65398772D01*
X125525332Y-65433757D01*
X125546057Y-65440403D01*
X125558559Y-65441068D01*
X125576607Y-65463125D01*
X125592844Y-65516948D01*
X125602089Y-65551861D01*
X125618907Y-65586847D01*
X125639631Y-65593493D01*
X125652134Y-65594158D01*
X125670182Y-65616215D01*
X125686419Y-65670038D01*
X125695663Y-65704951D01*
X125712482Y-65739937D01*
X125733206Y-65746583D01*
X125755237Y-65753498D01*
X125773611Y-65795485D01*
X125788267Y-65832972D01*
X125814018Y-65844388D01*
X125827650Y-65844623D01*
X125848041Y-65865649D01*
X125851315Y-65867423D01*
X125861004Y-65867627D01*
X125878182Y-65865952D01*
X125903938Y-65862149D01*
X125939358Y-65855973D01*
X125985530Y-65847177D01*
X126043541Y-65835515D01*
X126114480Y-65820740D01*
X126199432Y-65802607D01*
X126299487Y-65780870D01*
X126415730Y-65755280D01*
X126549252Y-65725593D01*
X126701136Y-65691562D01*
X126872473Y-65652941D01*
X127064348Y-65609483D01*
X127277850Y-65560942D01*
X127514066Y-65507072D01*
X127774084Y-65447627D01*
X128058991Y-65382359D01*
X128369874Y-65311025D01*
X128707822Y-65233375D01*
X129073920Y-65149164D01*
X129469258Y-65058147D01*
X129894922Y-64960076D01*
X130352000Y-64854705D01*
X130841579Y-64741789D01*
X131364746Y-64621080D01*
X131922590Y-64492331D01*
X132516198Y-64355300D01*
X133094903Y-64221706D01*
X133653659Y-64092747D01*
X134177710Y-63971833D01*
X134668144Y-63858719D01*
X135126050Y-63753156D01*
X135552512Y-63654899D01*
X135948620Y-63563702D01*
X136315462Y-63479319D01*
X136654124Y-63401502D01*
X136965694Y-63330007D01*
X137251259Y-63264586D01*
X137511907Y-63204992D01*
X137748725Y-63150982D01*
X137962801Y-63102306D01*
X138155223Y-63058720D01*
X138327077Y-63019977D01*
X138479451Y-62985830D01*
X138613434Y-62956034D01*
X138730110Y-62930342D01*
X138830569Y-62908507D01*
X138915899Y-62890284D01*
X138987187Y-62875426D01*
X139045519Y-62863686D01*
X139091983Y-62854819D01*
X139127668Y-62848578D01*
X139153660Y-62844717D01*
X139171047Y-62842990D01*
X139180915Y-62843149D01*
G37*
%TD*%
M02*
