M48
; DRILL file {KiCad 7.0.9} date Sun Jan  7 05:54:26 2024
; FORMAT={-:-/ absolute / inch / decimal}
; #@! TF.CreationDate,2024-01-07T05:54:26-05:00
; #@! TF.GenerationSoftware,Kicad,Pcbnew,7.0.9
; #@! TF.FileFunction,Plated,1,2,PTH
FMAT,2
INCH
; #@! TA.AperFunction,Plated,PTH,ViaDrill
T1C0.0157
; #@! TA.AperFunction,Plated,PTH,ComponentDrill
T2C0.0300
; #@! TA.AperFunction,Plated,PTH,ComponentDrill
T3C0.0453
%
G90
G05
T1
X3.1683Y-2.6887
X3.2585Y-2.6886
X3.3252Y-2.6887
X3.425Y-2.675
X3.501Y-2.7108
X3.525Y-2.575
X3.5608Y-2.6106
X3.625Y-2.825
X3.7507Y-2.5283
X3.875Y-2.825
X3.9535Y-2.7465
X4.15Y-2.7
X4.3Y-2.6
X4.4Y-2.7
X4.525Y-2.6
X4.675Y-2.825
X4.7028Y-2.7965
X4.725Y-2.675
X4.725Y-2.736
X4.874Y-2.6812
T2
X2.825Y-2.875
X2.925Y-2.875
X3.025Y-2.875
X3.125Y-2.875
X3.225Y-2.875
X3.325Y-2.875
X3.425Y-2.875
X3.525Y-2.875
X4.225Y-2.875
X4.325Y-2.875
X4.425Y-2.875
X4.525Y-2.875
X4.625Y-2.875
X4.725Y-2.875
X4.825Y-2.875
X4.925Y-2.875
X5.025Y-2.875
X5.125Y-2.875
T3
X3.025Y-2.4815
X3.025Y-2.5815
X3.125Y-2.4815
X3.125Y-2.5815
X3.225Y-2.4815
X3.225Y-2.5815
X3.325Y-2.4815
X3.325Y-2.5815
X3.425Y-2.4815
X3.425Y-2.5815
X3.925Y-2.475
X3.925Y-2.575
X4.025Y-2.475
X4.025Y-2.575
X4.125Y-2.475
X4.125Y-2.575
T0
M30
